<svg xmlns="http://www.w3.org/2000/svg" xmlns:xlink="http://www.w3.org/1999/xlink" width="500" zoomAndPan="magnify" viewBox="0 0 375 374.999991" height="500" preserveAspectRatio="xMidYMid meet" version="1.0"><defs><clipPath id="3ab7ab31c9"><path d="M 52 39 L 323.4375 39 L 323.4375 335 L 52 335 Z M 52 39 " clip-rule="nonzero"/></clipPath></defs><rect x="-37.5" width="450" fill="#ffffff" y="-37.499999" height="449.999989" fill-opacity="1"/><rect x="-37.5" width="450" fill="#ffffff" y="-37.499999" height="449.999989" fill-opacity="1"/><rect x="-37.5" width="450" fill="#1a2026" y="-37.499999" height="449.999989" fill-opacity="1"/><g clip-path="url(#3ab7ab31c9)"><path fill="#207cc2" d="M 302.714844 93.953125 L 220.980469 93.953125 C 214.664062 68.214844 203.53125 39.671875 187.972656 39.671875 C 172.417969 39.671875 161.285156 68.214844 154.96875 93.953125 L 73.234375 93.953125 C 61.582031 93.953125 52.167969 102.378906 52.167969 112.8125 L 52.167969 258.175781 C 52.167969 268.609375 61.582031 277.035156 73.234375 277.035156 L 149.632812 277.035156 L 149.632812 283.914062 C 149.632812 290.5625 148.65625 297.152344 146.875 303.457031 L 120.011719 303.457031 C 116.28125 303.457031 112.667969 305.40625 110.253906 308.617188 C 108.015625 311.425781 106.8125 315.152344 106.8125 319.105469 C 106.8125 327.707031 112.78125 334.753906 120.011719 334.753906 L 255.9375 334.753906 C 259.667969 334.753906 263.28125 332.863281 265.695312 329.597656 C 267.933594 326.789062 269.136719 323.0625 269.136719 319.105469 C 269.136719 310.507812 263.167969 303.457031 255.9375 303.457031 L 229.703125 303.457031 C 227.867188 297.210938 226.949219 290.621094 226.949219 283.914062 L 226.949219 277.035156 L 302.714844 277.035156 C 314.367188 277.035156 323.78125 268.609375 323.78125 258.175781 L 323.78125 112.8125 C 323.78125 102.378906 314.367188 93.953125 302.714844 93.953125 Z M 187.972656 51.136719 C 195.320312 51.136719 205.136719 76.46875 210.933594 100.316406 C 210.992188 100.890625 211.105469 101.519531 211.335938 102.035156 C 213.976562 113.386719 215.699219 124.21875 215.699219 131.613281 C 215.699219 146.917969 203.242188 159.296875 187.972656 159.296875 C 172.707031 159.296875 160.25 146.917969 160.25 131.613281 C 160.25 108.285156 176.953125 51.136719 187.972656 51.136719 Z M 207.261719 196.671875 C 203.703125 195.46875 199.109375 194.835938 194.574219 196.730469 C 191.992188 197.816406 189.8125 199.59375 187.972656 201.945312 C 186.136719 199.59375 183.957031 197.816406 181.375 196.730469 C 176.839844 194.835938 172.246094 195.46875 168.6875 196.671875 C 165.015625 180.734375 174.082031 171.164062 174.484375 170.707031 C 175.058594 170.132812 175.460938 169.5 175.75 168.8125 C 179.59375 170.074219 183.726562 170.761719 187.972656 170.761719 C 192.222656 170.761719 196.355469 170.074219 200.199219 168.8125 C 200.488281 169.5 200.890625 170.132812 201.464844 170.707031 C 201.578125 170.820312 210.992188 180.507812 207.261719 196.671875 Z M 158.757812 303.457031 C 160.308594 297.097656 161.113281 290.5625 161.113281 283.914062 L 161.113281 277.089844 L 215.46875 277.089844 L 215.46875 283.914062 C 215.46875 290.621094 216.273438 297.152344 217.824219 303.457031 Z M 166.738281 254.164062 C 166.738281 251.011719 169.320312 248.429688 172.476562 248.429688 L 203.472656 248.429688 C 206.628906 248.429688 209.210938 251.011719 209.210938 254.164062 C 209.210938 257.375 206.628906 259.894531 203.472656 259.894531 L 172.476562 259.894531 C 169.320312 259.894531 166.738281 257.375 166.738281 254.164062 Z M 312.300781 231.292969 L 63.648438 231.292969 L 63.648438 112.8125 C 63.648438 108.742188 67.953125 105.417969 73.234375 105.417969 L 152.386719 105.417969 C 151.46875 109.832031 150.78125 114.015625 150.207031 117.683594 C 145.210938 121.582031 118.003906 144.96875 125.007812 183.488281 C 125.351562 185.378906 126.671875 187.042969 128.507812 187.785156 C 129.199219 188.015625 129.945312 188.1875 130.632812 188.1875 C 131.835938 188.1875 132.984375 187.785156 134.019531 187.097656 L 163.980469 165.488281 C 159.617188 171.449219 151.582031 186.179688 159.90625 206.929688 C 160.539062 208.535156 161.972656 209.796875 163.636719 210.257812 C 165.359375 210.773438 167.195312 210.429688 168.628906 209.394531 C 170.238281 208.25 174.371094 206.1875 176.953125 207.277344 C 179.421875 208.363281 181.375 212.894531 182.292969 219.597656 C 182.636719 222.464844 185.105469 224.585938 187.972656 224.585938 C 190.84375 224.585938 193.3125 222.464844 193.65625 219.597656 C 194.574219 212.894531 196.527344 208.363281 198.996094 207.277344 C 201.578125 206.1875 205.710938 208.25 207.316406 209.394531 C 208.753906 210.429688 210.589844 210.773438 212.253906 210.3125 C 213.976562 209.796875 215.355469 208.535156 216.042969 206.929688 C 224.367188 186.179688 216.328125 171.449219 211.96875 165.488281 L 241.929688 187.097656 C 242.964844 187.785156 244.113281 188.1875 245.316406 188.1875 C 246.003906 188.1875 246.75 188.015625 247.441406 187.785156 C 249.277344 187.042969 250.597656 185.378906 250.941406 183.488281 C 257.945312 144.96875 230.738281 121.582031 225.742188 117.683594 C 225.167969 114.015625 224.480469 109.832031 223.5625 105.417969 L 302.714844 105.417969 C 307.996094 105.417969 312.300781 108.742188 312.300781 112.8125 Z M 312.300781 231.292969 " fill-opacity="1" fill-rule="nonzero"/></g><path fill="#207cc2" d="M 209.210938 127.542969 C 209.210938 139.0625 199.796875 148.40625 188.261719 148.40625 C 176.722656 148.40625 167.367188 139.0625 167.367188 127.542969 C 167.367188 116.023438 176.722656 106.621094 188.261719 106.621094 C 199.796875 106.621094 209.210938 116.023438 209.210938 127.542969 Z M 209.210938 127.542969 " fill-opacity="1" fill-rule="nonzero"/></svg>