<svg xmlns="http://www.w3.org/2000/svg" xmlns:xlink="http://www.w3.org/1999/xlink" width="500" zoomAndPan="magnify" viewBox="0 0 375 374.999991" height="500" preserveAspectRatio="xMidYMid meet" version="1.0"><defs><clipPath id="855e5362af"><path d="M 60 58 L 337.5 58 L 337.5 337 L 60 337 Z M 60 58 " clip-rule="nonzero"/></clipPath><clipPath id="0bb707b2c2"><path d="M 88 37.5 L 97 37.5 L 97 57 L 88 57 Z M 88 37.5 " clip-rule="nonzero"/></clipPath><clipPath id="baafd8cb99"><path d="M 37.5 81 L 57 81 L 57 92 L 37.5 92 Z M 37.5 81 " clip-rule="nonzero"/></clipPath></defs><rect x="-37.5" width="450" fill="#ffffff" y="-37.499999" height="449.999989" fill-opacity="1"/><rect x="-37.5" width="450" fill="#1a2026" y="-37.499999" height="449.999989" fill-opacity="1"/><path fill="#207cc2" d="M 150.683594 132.875 C 145.210938 132.875 140.777344 137.3125 140.777344 142.78125 C 140.777344 148.25 145.210938 152.683594 150.683594 152.683594 C 156.152344 152.683594 160.585938 148.25 160.585938 142.78125 C 160.585938 137.3125 156.152344 132.875 150.683594 132.875 Z M 150.683594 144.789062 C 149.574219 144.789062 148.671875 143.890625 148.671875 142.78125 C 148.671875 141.671875 149.574219 140.769531 150.683594 140.769531 C 151.792969 140.769531 152.691406 141.671875 152.691406 142.78125 C 152.691406 143.890625 151.792969 144.789062 150.683594 144.789062 Z M 150.683594 144.789062 " fill-opacity="1" fill-rule="nonzero"/><path fill="#207cc2" d="M 172.582031 132.875 C 167.109375 132.875 162.679688 137.3125 162.679688 142.78125 C 162.679688 148.25 167.109375 152.683594 172.582031 152.683594 C 178.054688 152.683594 182.484375 148.25 182.484375 142.78125 C 182.484375 137.3125 178.054688 132.875 172.582031 132.875 Z M 172.582031 144.789062 C 171.472656 144.789062 170.574219 143.890625 170.574219 142.78125 C 170.574219 141.671875 171.472656 140.769531 172.582031 140.769531 C 173.691406 140.769531 174.589844 141.671875 174.589844 142.78125 C 174.589844 143.890625 173.691406 144.789062 172.582031 144.789062 Z M 172.582031 144.789062 " fill-opacity="1" fill-rule="nonzero"/><path fill="#207cc2" d="M 194.480469 132.875 C 189.011719 132.875 184.578125 137.3125 184.578125 142.78125 C 184.578125 148.25 189.011719 152.683594 194.480469 152.683594 C 199.953125 152.683594 204.386719 148.25 204.386719 142.78125 C 204.386719 137.3125 199.953125 132.875 194.480469 132.875 Z M 194.480469 144.789062 C 193.371094 144.789062 192.472656 143.890625 192.472656 142.78125 C 192.472656 141.671875 193.371094 140.769531 194.480469 140.769531 C 195.589844 140.769531 196.492188 141.671875 196.492188 142.78125 C 196.492188 143.890625 195.589844 144.789062 194.480469 144.789062 Z M 194.480469 144.789062 " fill-opacity="1" fill-rule="nonzero"/><path fill="#207cc2" d="M 208.839844 218.914062 C 197.832031 218.914062 188.910156 227.835938 188.910156 238.839844 C 188.910156 249.84375 197.832031 258.765625 208.839844 258.765625 C 219.84375 258.765625 228.765625 249.84375 228.765625 238.839844 C 228.765625 227.835938 219.84375 218.914062 208.839844 218.914062 Z M 208.839844 250.871094 C 202.195312 250.871094 196.808594 245.488281 196.808594 238.839844 C 196.808594 232.195312 202.195312 226.808594 208.839844 226.808594 C 215.480469 226.808594 220.871094 232.195312 220.871094 238.839844 C 220.871094 245.488281 215.480469 250.871094 208.839844 250.871094 Z M 208.839844 250.871094 " fill-opacity="1" fill-rule="nonzero"/><path fill="#207cc2" d="M 81.402344 291.269531 C 82.933594 292.824219 85.433594 292.839844 86.984375 291.308594 L 97.78125 280.652344 C 99.332031 279.121094 99.351562 276.625 97.820312 275.074219 L 87.164062 264.273438 C 85.632812 262.722656 83.132812 262.707031 81.582031 264.238281 C 80.03125 265.765625 80.015625 268.265625 81.546875 269.820312 L 89.425781 277.804688 L 81.441406 285.6875 C 79.886719 287.21875 79.871094 289.71875 81.402344 291.269531 Z M 81.402344 291.269531 " fill-opacity="1" fill-rule="nonzero"/><path fill="#207cc2" d="M 105.597656 281.644531 L 128.660156 281.644531 C 130.84375 281.644531 132.605469 279.878906 132.605469 277.699219 C 132.605469 275.519531 130.84375 273.75 128.660156 273.75 L 105.597656 273.75 C 103.414062 273.75 101.652344 275.519531 101.652344 277.699219 C 101.652344 279.878906 103.414062 281.644531 105.597656 281.644531 Z M 105.597656 281.644531 " fill-opacity="1" fill-rule="nonzero"/><path fill="#207cc2" d="M 261.660156 155.007812 C 263.183594 156.574219 265.679688 156.609375 267.246094 155.089844 C 268.8125 153.570312 268.847656 151.070312 267.328125 149.507812 L 260.867188 142.863281 L 267.515625 136.40625 C 269.078125 134.886719 269.113281 132.386719 267.59375 130.824219 C 266.074219 129.261719 263.578125 129.222656 262.011719 130.742188 L 252.535156 139.949219 C 250.972656 141.46875 250.9375 143.96875 252.457031 145.53125 Z M 261.660156 155.007812 " fill-opacity="1" fill-rule="nonzero"/><path fill="#207cc2" d="M 303.867188 142.996094 L 297.410156 149.640625 C 295.894531 151.203125 295.929688 153.703125 297.492188 155.222656 C 299.054688 156.742188 301.554688 156.707031 303.074219 155.144531 L 312.28125 145.664062 C 313.796875 144.101562 313.761719 141.605469 312.199219 140.085938 L 302.722656 130.875 C 301.160156 129.359375 298.660156 129.394531 297.140625 130.957031 C 295.621094 132.519531 295.660156 135.019531 297.222656 136.539062 Z M 303.867188 142.996094 " fill-opacity="1" fill-rule="nonzero"/><path fill="#207cc2" d="M 276.527344 158.285156 C 278.570312 159.054688 280.847656 158.023438 281.613281 155.984375 L 290.511719 132.359375 C 291.277344 130.320312 290.25 128.042969 288.207031 127.273438 C 286.167969 126.503906 283.894531 127.535156 283.125 129.578125 L 274.226562 153.203125 C 273.457031 155.242188 274.488281 157.519531 276.527344 158.285156 Z M 276.527344 158.285156 " fill-opacity="1" fill-rule="nonzero"/><g clip-path="url(#855e5362af)"><path fill="#207cc2" d="M 321.761719 65.089844 C 312.871094 65.089844 305.667969 72.296875 305.667969 81.183594 C 305.667969 82.679688 305.9375 84.097656 306.316406 85.46875 L 300.039062 88.785156 C 298.742188 89.46875 297.929688 90.8125 297.929688 92.273438 L 297.929688 107.753906 L 287.042969 107.753906 L 287.042969 90.007812 C 294.015625 88.238281 299.191406 81.972656 299.191406 74.457031 C 299.191406 65.566406 291.984375 58.359375 283.09375 58.359375 C 274.199219 58.359375 267 65.566406 267 74.457031 C 267 81.976562 272.175781 88.242188 279.148438 90.007812 L 279.148438 107.753906 L 266.804688 107.753906 L 266.804688 92.273438 C 266.804688 90.808594 265.996094 89.46875 264.703125 88.785156 L 258.421875 85.46875 C 258.804688 84.097656 259.074219 82.679688 259.074219 81.183594 C 259.074219 72.296875 251.863281 65.089844 242.976562 65.089844 C 234.085938 65.089844 226.878906 72.296875 226.878906 81.183594 C 226.878906 90.074219 234.085938 97.277344 242.976562 97.277344 C 247.523438 97.277344 251.609375 95.378906 254.539062 92.347656 L 258.910156 94.652344 L 258.910156 107.753906 L 246.980469 107.753906 C 242.625 107.753906 239.085938 111.289062 239.085938 115.648438 L 239.085938 121.722656 L 136.554688 121.722656 C 130.011719 121.722656 124.710938 127.023438 124.710938 133.5625 L 124.710938 218.914062 L 80.023438 218.914062 C 77.894531 218.914062 75.855469 219.773438 74.371094 221.296875 L 63.195312 232.761719 C 61.757812 234.234375 60.953125 236.210938 60.953125 238.269531 L 60.953125 328.734375 C 60.953125 333.09375 64.492188 336.628906 68.847656 336.628906 L 140.777344 336.628906 C 145.140625 336.628906 148.671875 333.09375 148.671875 328.734375 L 148.671875 244.992188 L 165.769531 244.992188 C 165.453125 251.574219 170.09375 258.324219 178.203125 258.507812 C 181.226562 258.582031 183.449219 261.367188 182.84375 264.332031 C 180.195312 277.300781 196.625 285.214844 205.117188 275.054688 C 207.054688 272.734375 210.621094 272.734375 212.5625 275.054688 C 221.050781 285.214844 237.480469 277.300781 234.832031 264.332031 C 234.226562 261.367188 236.449219 258.582031 239.472656 258.507812 C 247.585938 258.324219 252.226562 251.574219 251.90625 244.992188 L 281.121094 244.992188 C 287.664062 244.992188 292.964844 239.691406 292.964844 233.152344 L 292.964844 177.808594 L 317.753906 177.808594 C 322.117188 177.808594 325.648438 174.273438 325.648438 169.914062 L 325.648438 115.648438 C 325.648438 111.289062 322.117188 107.753906 317.753906 107.753906 L 305.824219 107.753906 L 305.824219 94.65625 L 310.199219 92.347656 C 313.125 95.378906 317.214844 97.277344 321.761719 97.277344 C 330.652344 97.277344 337.859375 90.074219 337.859375 81.183594 C 337.859375 72.296875 330.652344 65.089844 321.761719 65.089844 Z M 242.976562 89.382812 C 238.449219 89.382812 234.773438 85.714844 234.773438 81.183594 C 234.773438 76.652344 238.449219 72.984375 242.976562 72.984375 C 247.507812 72.984375 251.179688 76.652344 251.179688 81.183594 C 251.179688 85.714844 247.507812 89.382812 242.976562 89.382812 Z M 274.894531 74.457031 C 274.894531 69.925781 278.566406 66.253906 283.09375 66.253906 C 287.625 66.253906 291.292969 69.925781 291.292969 74.457031 C 291.292969 78.988281 287.625 82.65625 283.09375 82.65625 C 278.566406 82.65625 274.894531 78.988281 274.894531 74.457031 Z M 132.605469 133.5625 C 132.605469 131.382812 134.375 129.617188 136.554688 129.617188 L 239.085938 129.617188 L 239.085938 156.320312 L 132.605469 156.320312 Z M 140.777344 328.734375 L 68.847656 328.734375 L 68.847656 238.269531 L 80.023438 226.808594 L 140.777344 226.808594 Z M 239.292969 250.617188 C 231.351562 250.800781 225.507812 258.125 227.097656 265.910156 C 228.105469 270.847656 221.847656 273.859375 218.621094 269.992188 C 213.523438 263.898438 204.152344 263.898438 199.054688 269.992188 C 195.824219 273.859375 189.570312 270.847656 190.578125 265.910156 C 192.167969 258.125 186.328125 250.800781 178.382812 250.617188 C 173.34375 250.5 171.800781 243.734375 176.289062 241.445312 C 183.367188 237.832031 185.449219 228.699219 180.640625 222.371094 C 177.589844 218.359375 181.921875 212.933594 186.507812 215.015625 C 193.742188 218.296875 202.1875 214.230469 204.132812 206.527344 C 205.367188 201.644531 212.308594 201.644531 213.542969 206.527344 C 215.488281 214.230469 223.933594 218.296875 231.167969 215.015625 C 235.753906 212.933594 240.085938 218.359375 237.035156 222.371094 C 232.226562 228.699219 234.3125 237.832031 241.386719 241.445312 C 245.875 243.734375 244.328125 250.5 239.292969 250.617188 Z M 285.070312 233.152344 C 285.070312 235.332031 283.300781 237.097656 281.121094 237.097656 L 248.597656 237.097656 C 247.617188 236.0625 246.417969 235.148438 244.976562 234.410156 C 242.28125 233.035156 241.488281 229.558594 243.320312 227.152344 C 251.332031 216.617188 239.964844 202.359375 227.90625 207.824219 C 225.152344 209.070312 221.941406 207.523438 221.199219 204.589844 C 217.957031 191.757812 199.71875 191.757812 196.480469 204.589844 C 195.738281 207.523438 192.523438 209.070312 189.769531 207.824219 C 177.714844 202.359375 166.34375 216.617188 174.359375 227.152344 C 176.191406 229.558594 175.394531 233.035156 172.699219 234.410156 C 171.257812 235.148438 170.058594 236.0625 169.078125 237.097656 L 148.671875 237.097656 L 148.671875 226.808594 C 148.671875 222.449219 145.140625 218.914062 140.777344 218.914062 L 132.605469 218.914062 L 132.605469 164.214844 L 239.085938 164.214844 L 239.085938 169.914062 C 239.085938 174.273438 242.625 177.808594 246.980469 177.808594 L 285.070312 177.808594 Z M 317.753906 115.648438 L 317.753906 169.914062 L 246.980469 169.914062 L 246.980469 115.648438 Z M 321.761719 89.382812 C 317.234375 89.382812 313.5625 85.710938 313.5625 81.183594 C 313.5625 76.652344 317.234375 72.984375 321.761719 72.984375 C 326.292969 72.984375 329.964844 76.652344 329.964844 81.183594 C 329.964844 85.710938 326.292969 89.382812 321.761719 89.382812 Z M 321.761719 89.382812 " fill-opacity="1" fill-rule="nonzero"/></g><path fill="#207cc2" d="M 122.964844 51.484375 L 116.476562 60.050781 C 115.160156 61.789062 115.503906 64.261719 117.238281 65.578125 C 118.980469 66.894531 121.457031 66.550781 122.769531 64.816406 L 129.253906 56.253906 C 130.570312 54.515625 130.230469 52.039062 128.492188 50.722656 C 126.753906 49.40625 124.277344 49.75 122.964844 51.484375 Z M 122.964844 51.484375 " fill-opacity="1" fill-rule="nonzero"/><path fill="#207cc2" d="M 70.175781 127.007812 C 73.25 129.445312 75.074219 132.464844 75.074219 135.414062 L 75.074219 141.714844 C 75.074219 146.605469 78.039062 150.796875 82.265625 152.605469 L 82.265625 153.90625 C 82.265625 159.308594 86.644531 163.691406 92.046875 163.691406 C 97.675781 163.691406 102.140625 158.949219 101.808594 153.332031 L 101.773438 152.742188 C 106.214844 151.03125 109.375 146.753906 109.375 141.714844 L 109.375 135.414062 C 109.375 132.464844 111.199219 129.445312 114.273438 127.007812 C 123.109375 119.992188 128.769531 108.886719 128.769531 96.457031 C 128.769531 75.5 112.601562 58.152344 92.226562 58.152344 C 71.847656 58.152344 55.679688 75.5 55.679688 96.457031 C 55.679688 108.886719 61.335938 119.992188 70.175781 127.007812 Z M 92.046875 155.792969 C 91.003906 155.792969 90.160156 154.949219 90.160156 153.90625 L 90.160156 153.554688 L 93.917969 153.554688 L 93.929688 153.796875 C 93.992188 154.878906 93.132812 155.792969 92.046875 155.792969 Z M 101.480469 141.714844 C 101.480469 143.894531 99.714844 145.660156 97.535156 145.660156 L 86.914062 145.660156 C 84.734375 145.660156 82.96875 143.894531 82.96875 141.714844 L 82.96875 136.339844 L 101.480469 136.339844 Z M 92.226562 66.046875 C 107.851562 66.046875 120.875 79.464844 120.875 96.457031 C 120.875 106.472656 116.320312 115.300781 109.363281 120.824219 C 106.910156 122.769531 104.609375 125.359375 103.132812 128.445312 L 81.316406 128.445312 C 79.835938 125.359375 77.535156 122.769531 75.085938 120.824219 C 68.125 115.300781 63.574219 106.472656 63.574219 96.457031 C 63.574219 79.464844 76.59375 66.046875 92.226562 66.046875 Z M 92.226562 66.046875 " fill-opacity="1" fill-rule="nonzero"/><g clip-path="url(#0bb707b2c2)"><path fill="#207cc2" d="M 88.277344 41.925781 L 88.277344 52.664062 C 88.277344 54.84375 90.042969 56.613281 92.226562 56.613281 C 94.402344 56.613281 96.171875 54.84375 96.171875 52.664062 L 96.171875 41.925781 C 96.171875 39.742188 94.402344 37.976562 92.226562 37.976562 C 90.042969 37.976562 88.277344 39.742188 88.277344 41.925781 Z M 88.277344 41.925781 " fill-opacity="1" fill-rule="nonzero"/></g><path fill="#207cc2" d="M 56.210938 50.390625 C 54.472656 51.707031 54.132812 54.183594 55.449219 55.921875 L 61.933594 64.484375 C 63.246094 66.222656 65.722656 66.566406 67.464844 65.246094 C 69.199219 63.929688 69.542969 61.457031 68.226562 59.71875 L 61.738281 51.152344 C 60.425781 49.417969 57.949219 49.078125 56.210938 50.390625 Z M 56.210938 50.390625 " fill-opacity="1" fill-rule="nonzero"/><path fill="#207cc2" d="M 135.195312 83.902344 C 133.03125 84.167969 131.492188 86.140625 131.757812 88.300781 C 132.023438 90.464844 133.992188 92.003906 136.15625 91.742188 L 146.816406 90.429688 C 148.980469 90.164062 150.519531 88.195312 150.253906 86.03125 C 149.992188 83.871094 148.019531 82.332031 145.859375 82.59375 Z M 135.195312 83.902344 " fill-opacity="1" fill-rule="nonzero"/><g clip-path="url(#baafd8cb99)"><path fill="#207cc2" d="M 53.023438 83.25 L 42.363281 81.945312 C 40.199219 81.675781 38.230469 83.214844 37.960938 85.378906 C 37.695312 87.542969 39.234375 89.515625 41.398438 89.777344 L 52.0625 91.085938 C 54.222656 91.351562 56.195312 89.808594 56.457031 87.648438 C 56.726562 85.484375 55.1875 83.515625 53.023438 83.25 Z M 53.023438 83.25 " fill-opacity="1" fill-rule="nonzero"/></g><path fill="#207cc2" d="M 313.660156 305.746094 L 303.953125 305.746094 C 303.601562 305.746094 303.265625 305.804688 302.925781 305.851562 C 303.5625 304.714844 303.953125 303.421875 303.953125 302.023438 L 303.953125 292.320312 C 303.953125 287.957031 300.417969 284.421875 296.058594 284.421875 L 286.347656 284.421875 C 285.9375 284.421875 285.539062 284.484375 285.144531 284.546875 C 285.785156 283.402344 286.183594 282.105469 286.183594 280.703125 L 286.183594 270.992188 C 286.183594 266.632812 282.644531 263.097656 278.289062 263.097656 L 268.578125 263.097656 C 264.214844 263.097656 260.683594 266.632812 260.683594 270.992188 L 260.683594 280.703125 C 260.683594 283.007812 261.691406 285.066406 263.269531 286.511719 C 261.691406 287.953125 260.683594 290.011719 260.683594 292.320312 L 260.683594 302.023438 C 260.683594 304.332031 261.691406 306.390625 263.269531 307.835938 C 261.691406 309.277344 260.683594 311.335938 260.683594 313.640625 L 260.683594 323.351562 C 260.683594 327.714844 264.214844 331.246094 268.578125 331.246094 L 278.289062 331.246094 C 279.765625 331.246094 281.136719 330.816406 282.320312 330.105469 C 283.503906 330.816406 284.871094 331.246094 286.347656 331.246094 L 296.058594 331.246094 C 297.503906 331.246094 298.839844 330.832031 300.007812 330.152344 C 301.171875 330.832031 302.507812 331.246094 303.953125 331.246094 L 313.660156 331.246094 C 318.023438 331.246094 321.554688 327.714844 321.554688 323.351562 L 321.554688 313.640625 C 321.554688 309.285156 318.023438 305.746094 313.660156 305.746094 Z M 278.289062 323.351562 L 268.578125 323.351562 L 268.578125 313.640625 L 278.289062 313.640625 Z M 278.289062 302.023438 L 268.578125 302.023438 L 268.578125 292.320312 L 278.289062 292.320312 Z M 278.289062 280.703125 L 268.578125 280.703125 L 268.578125 270.992188 L 278.289062 270.992188 Z M 296.058594 323.351562 L 286.347656 323.351562 L 286.347656 313.640625 L 296.058594 313.640625 Z M 296.058594 302.023438 L 286.347656 302.023438 L 286.347656 292.320312 L 296.058594 292.320312 Z M 313.660156 323.351562 L 303.953125 323.351562 L 303.953125 313.640625 L 313.660156 313.640625 Z M 313.660156 323.351562 " fill-opacity="1" fill-rule="nonzero"/></svg>