<svg xmlns="http://www.w3.org/2000/svg" xmlns:xlink="http://www.w3.org/1999/xlink" width="500" zoomAndPan="magnify" viewBox="0 0 375 374.999991" height="500" preserveAspectRatio="xMidYMid meet" version="1.0"><defs><clipPath id="b841e58b47"><path d="M 170 177 L 337.5 177 L 337.5 330.75 L 170 330.75 Z M 170 177 " clip-rule="nonzero"/></clipPath><clipPath id="ea2403a471"><path d="M 37.5 44.25 L 305 44.25 L 305 278 L 37.5 278 Z M 37.5 44.25 " clip-rule="nonzero"/></clipPath></defs><rect x="-37.5" width="450" fill="#ffffff" y="-37.499999" height="449.999989" fill-opacity="1"/><rect x="-37.5" width="450" fill="#1a2026" y="-37.499999" height="449.999989" fill-opacity="1"/><g clip-path="url(#b841e58b47)"><path fill="#207cc2" d="M 304.097656 330.75 C 302.988281 330.75 301.871094 330.472656 300.863281 329.910156 L 242.40625 297.4375 L 197.828125 297.4375 C 182.949219 297.4375 170.84375 285.332031 170.84375 270.453125 L 170.84375 224.144531 C 170.84375 220.464844 173.824219 217.484375 177.503906 217.484375 L 277.113281 217.484375 C 284.644531 217.484375 290.773438 211.355469 290.773438 203.824219 L 290.773438 184.167969 C 290.773438 180.488281 293.757812 177.503906 297.4375 177.503906 L 310.429688 177.503906 C 325.308594 177.503906 337.414062 189.609375 337.414062 204.488281 L 337.414062 270.453125 C 337.414062 285.332031 325.308594 297.4375 310.429688 297.4375 L 307.480469 297.4375 L 310.65625 322.828125 C 310.734375 323.234375 310.773438 323.65625 310.773438 324.085938 C 310.773438 327.765625 307.792969 330.75 304.113281 330.75 C 304.113281 330.75 304.101562 330.75 304.097656 330.75 Z M 184.167969 230.808594 L 184.167969 270.453125 C 184.167969 277.984375 190.296875 284.109375 197.828125 284.109375 L 244.132812 284.109375 C 245.265625 284.109375 246.378906 284.398438 247.367188 284.949219 L 295.859375 311.886719 L 293.324219 291.601562 C 293.085938 289.703125 293.671875 287.796875 294.9375 286.363281 C 296.203125 284.933594 298.023438 284.109375 299.933594 284.109375 L 310.429688 284.109375 C 317.960938 284.109375 324.085938 277.984375 324.085938 270.453125 L 324.085938 204.488281 C 324.085938 196.957031 317.960938 190.832031 310.429688 190.832031 L 304.097656 190.832031 L 304.097656 203.824219 C 304.097656 218.703125 291.992188 230.808594 277.113281 230.808594 Z M 184.167969 230.808594 " fill-opacity="1" fill-rule="nonzero"/></g><g clip-path="url(#ea2403a471)"><path fill="#207cc2" d="M 90.890625 277.449219 C 89.894531 277.449219 88.890625 277.222656 87.960938 276.769531 C 85.675781 275.652344 84.226562 273.328125 84.226562 270.785156 L 84.226562 230.808594 L 64.570312 230.808594 C 49.691406 230.808594 37.585938 218.703125 37.585938 203.824219 L 37.585938 71.234375 C 37.585938 56.355469 49.691406 44.25 64.570312 44.25 L 277.113281 44.25 C 291.992188 44.25 304.097656 56.355469 304.097656 71.234375 L 304.097656 203.824219 C 304.097656 218.703125 291.992188 230.808594 277.113281 230.808594 L 153.140625 230.808594 L 94.980469 276.042969 C 93.789062 276.972656 92.34375 277.449219 90.890625 277.449219 Z M 64.570312 57.574219 C 57.039062 57.574219 50.914062 63.703125 50.914062 71.234375 L 50.914062 203.824219 C 50.914062 211.355469 57.039062 217.484375 64.570312 217.484375 L 90.890625 217.484375 C 94.570312 217.484375 97.550781 220.464844 97.550781 224.144531 L 97.550781 257.164062 L 146.765625 218.886719 C 147.933594 217.976562 149.371094 217.484375 150.855469 217.484375 L 277.113281 217.484375 C 284.644531 217.484375 290.773438 211.355469 290.773438 203.824219 L 290.773438 71.234375 C 290.773438 63.703125 284.644531 57.578125 277.113281 57.578125 L 64.570312 57.578125 Z M 64.570312 57.574219 " fill-opacity="1" fill-rule="nonzero"/></g><path fill="#207cc2" d="M 170.84375 204.15625 L 104.046875 204.15625 C 93.117188 204.15625 84.226562 195.265625 84.226562 184.335938 L 84.226562 90.722656 C 84.226562 79.792969 93.117188 70.902344 104.046875 70.902344 L 170.84375 70.902344 C 174.523438 70.902344 177.503906 73.882812 177.503906 77.5625 L 177.503906 197.496094 C 177.503906 201.171875 174.523438 204.15625 170.84375 204.15625 Z M 104.046875 84.226562 C 100.464844 84.226562 97.550781 87.140625 97.550781 90.722656 L 97.550781 184.335938 C 97.550781 187.917969 100.464844 190.832031 104.046875 190.832031 L 164.179688 190.832031 L 164.179688 84.226562 Z M 104.046875 84.226562 " fill-opacity="1" fill-rule="nonzero"/><path fill="#207cc2" d="M 237.636719 204.15625 L 170.84375 204.15625 C 167.164062 204.15625 164.179688 201.171875 164.179688 197.496094 L 164.179688 77.5625 C 164.179688 73.882812 167.164062 70.902344 170.84375 70.902344 L 237.636719 70.902344 C 248.566406 70.902344 257.460938 79.792969 257.460938 90.722656 L 257.460938 184.335938 C 257.460938 195.265625 248.566406 204.15625 237.636719 204.15625 Z M 177.503906 190.832031 L 237.636719 190.832031 C 241.21875 190.832031 244.132812 187.917969 244.132812 184.335938 L 244.132812 90.722656 C 244.132812 87.140625 241.21875 84.226562 237.636719 84.226562 L 177.503906 84.226562 Z M 177.503906 190.832031 " fill-opacity="1" fill-rule="nonzero"/><path fill="#207cc2" d="M 230.808594 110.878906 L 190.832031 110.878906 C 187.152344 110.878906 184.167969 107.894531 184.167969 104.214844 C 184.167969 100.535156 187.152344 97.550781 190.832031 97.550781 L 230.808594 97.550781 C 234.488281 97.550781 237.472656 100.535156 237.472656 104.214844 C 237.472656 107.894531 234.488281 110.878906 230.808594 110.878906 Z M 230.808594 110.878906 " fill-opacity="1" fill-rule="nonzero"/><path fill="#207cc2" d="M 230.808594 130.867188 L 190.832031 130.867188 C 187.152344 130.867188 184.167969 127.882812 184.167969 124.203125 C 184.167969 120.523438 187.152344 117.539062 190.832031 117.539062 L 230.808594 117.539062 C 234.488281 117.539062 237.472656 120.523438 237.472656 124.203125 C 237.472656 127.882812 234.488281 130.867188 230.808594 130.867188 Z M 230.808594 130.867188 " fill-opacity="1" fill-rule="nonzero"/><path fill="#207cc2" d="M 150.855469 130.867188 L 110.878906 130.867188 C 107.199219 130.867188 104.214844 127.882812 104.214844 124.203125 C 104.214844 120.523438 107.199219 117.539062 110.878906 117.539062 L 150.855469 117.539062 C 154.535156 117.539062 157.515625 120.523438 157.515625 124.203125 C 157.515625 127.882812 154.535156 130.867188 150.855469 130.867188 Z M 150.855469 130.867188 " fill-opacity="1" fill-rule="nonzero"/><path fill="#207cc2" d="M 150.855469 170.84375 L 124.203125 170.84375 C 120.523438 170.84375 117.539062 167.859375 117.539062 164.179688 C 117.539062 160.5 120.523438 157.515625 124.203125 157.515625 L 150.855469 157.515625 C 154.535156 157.515625 157.515625 160.5 157.515625 164.179688 C 157.515625 167.859375 154.535156 170.84375 150.855469 170.84375 Z M 150.855469 170.84375 " fill-opacity="1" fill-rule="nonzero"/><path fill="#207cc2" d="M 150.855469 110.878906 L 110.878906 110.878906 C 107.199219 110.878906 104.214844 107.894531 104.214844 104.214844 C 104.214844 100.535156 107.199219 97.550781 110.878906 97.550781 L 150.855469 97.550781 C 154.535156 97.550781 157.515625 100.535156 157.515625 104.214844 C 157.515625 107.894531 154.535156 110.878906 150.855469 110.878906 Z M 150.855469 110.878906 " fill-opacity="1" fill-rule="nonzero"/><path fill="#207cc2" d="M 230.808594 150.855469 L 190.832031 150.855469 C 187.152344 150.855469 184.167969 147.871094 184.167969 144.191406 C 184.167969 140.511719 187.152344 137.527344 190.832031 137.527344 L 230.808594 137.527344 C 234.488281 137.527344 237.472656 140.511719 237.472656 144.191406 C 237.472656 147.871094 234.488281 150.855469 230.808594 150.855469 Z M 230.808594 150.855469 " fill-opacity="1" fill-rule="nonzero"/><path fill="#207cc2" d="M 124.203125 137.527344 L 137.527344 137.527344 L 137.527344 150.855469 L 124.203125 150.855469 Z M 124.203125 137.527344 " fill-opacity="1" fill-rule="nonzero"/></svg>