<svg xmlns="http://www.w3.org/2000/svg" xmlns:xlink="http://www.w3.org/1999/xlink" width="500" zoomAndPan="magnify" viewBox="0 0 375 374.999991" height="500" preserveAspectRatio="xMidYMid meet" version="1.0"><defs><clipPath id="491faffeab"><path d="M 38 50.25 L 337 50.25 L 337 324.75 L 38 324.75 Z M 38 50.25 " clip-rule="nonzero"/></clipPath></defs><path fill="#0f9d58" d="M 157.9375 143.726562 L 161.433594 147.378906 C 162.382812 148.34375 162.875 149.628906 162.835938 150.972656 C 162.816406 152.316406 162.28125 153.578125 161.296875 154.527344 C 159.28125 156.460938 156.082031 156.382812 154.148438 154.386719 L 150.652344 150.753906 Z M 157.800781 166.039062 C 161.59375 166.039062 165.382812 164.636719 168.304688 161.792969 C 171.226562 158.988281 172.886719 155.21875 172.945312 151.148438 C 173.027344 147.101562 171.523438 143.269531 168.71875 140.347656 L 161.710938 133.082031 C 160.78125 132.113281 159.5 131.558594 158.15625 131.519531 C 156.8125 131.539062 155.507812 132.015625 154.5625 132.941406 L 139.988281 146.964844 L 125.433594 161.003906 C 123.421875 162.9375 123.363281 166.136719 125.296875 168.152344 C 127.230469 170.164062 130.449219 170.226562 132.445312 168.269531 L 143.367188 157.765625 L 144.707031 159.148438 L 138.191406 177.511719 C 137.261719 180.136719 138.644531 183.042969 141.273438 183.96875 C 141.824219 184.167969 142.398438 184.265625 142.96875 184.265625 C 145.042969 184.265625 146.980469 182.960938 147.730469 180.890625 L 153.257812 165.269531 C 154.738281 165.722656 156.261719 166.039062 157.800781 166.039062 " fill-opacity="1" fill-rule="nonzero"/><path fill="#0f9d58" d="M 122.175781 143.054688 C 121.210938 144 120.203125 144.496094 118.582031 144.476562 C 117.238281 144.457031 115.976562 143.902344 115.027344 142.914062 L 111.53125 139.28125 L 118.820312 132.269531 L 122.316406 135.90625 C 124.25 137.917969 124.191406 141.117188 122.175781 143.054688 Z M 133.375 118.25 L 136.886719 121.882812 C 138.824219 123.898438 138.765625 127.097656 136.75 129.03125 C 135.78125 129.960938 134.753906 130.515625 133.136719 130.453125 C 131.792969 130.414062 130.53125 129.863281 129.601562 128.894531 L 126.085938 125.261719 Z M 133.730469 140.507812 C 137.5 140.386719 141.035156 138.945312 143.761719 136.320312 C 149.78125 130.515625 149.960938 120.898438 144.15625 114.875 L 137.144531 107.585938 C 135.210938 105.574219 132.011719 105.515625 130.015625 107.449219 L 115.441406 121.488281 L 100.871094 135.511719 C 99.902344 136.4375 99.347656 137.722656 99.328125 139.0625 C 99.308594 140.386719 99.824219 141.691406 100.75 142.660156 L 107.761719 149.945312 C 110.566406 152.867188 114.355469 154.507812 118.40625 154.585938 C 118.484375 154.585938 118.582031 154.585938 118.679688 154.585938 C 122.632812 154.585938 126.363281 153.085938 129.207031 150.339844 C 132.011719 147.632812 133.492188 144.121094 133.730469 140.507812 " fill-opacity="1" fill-rule="nonzero"/><path fill="#0f9d58" d="M 172.097656 187.582031 L 182.761719 182.980469 L 177.765625 193.46875 Z M 196.78125 169.476562 C 195.300781 167.953125 193.070312 167.519531 191.132812 168.347656 L 151.480469 185.488281 C 148.914062 186.59375 147.730469 189.558594 148.835938 192.125 C 149.941406 194.691406 152.921875 195.875 155.488281 194.769531 L 162.183594 191.867188 L 173.105469 203.203125 L 169.964844 209.796875 C 168.761719 212.304688 169.828125 215.328125 172.355469 216.53125 C 173.046875 216.867188 173.796875 217.027344 174.527344 217.027344 C 176.402344 217.027344 178.21875 215.960938 179.085938 214.144531 L 197.691406 175.160156 C 198.597656 173.265625 198.242188 170.996094 196.78125 169.476562 " fill-opacity="1" fill-rule="nonzero"/><path fill="#0f9d58" d="M 235.347656 209.542969 C 233.410156 207.527344 230.214844 207.46875 228.199219 209.402344 L 211.769531 225.222656 L 219.074219 196.054688 C 219.628906 193.882812 218.660156 191.589844 216.707031 190.464844 C 214.769531 189.320312 212.300781 189.636719 210.664062 191.195312 L 181.535156 219.257812 C 179.523438 221.191406 179.464844 224.390625 181.398438 226.40625 C 183.351562 228.417969 186.550781 228.480469 188.546875 226.542969 L 204.996094 210.707031 L 197.691406 239.875 C 197.136719 242.066406 198.105469 244.335938 200.039062 245.480469 C 200.847656 245.933594 201.71875 246.152344 202.585938 246.152344 C 203.851562 246.152344 205.113281 245.660156 206.082031 244.730469 L 235.207031 216.691406 C 237.222656 214.753906 237.28125 211.535156 235.347656 209.542969 " fill-opacity="1" fill-rule="nonzero"/><path fill="#0f9d58" d="M 241.6875 252.550781 C 235.683594 258.355469 226.066406 258.179688 220.242188 252.15625 L 242.101562 231.105469 C 244.90625 234.027344 246.40625 237.859375 246.347656 241.925781 C 246.246094 245.976562 244.609375 249.746094 241.6875 252.550781 Z M 245.871094 220.460938 C 244.945312 219.496094 243.660156 218.941406 242.316406 218.902344 C 241.09375 218.941406 239.691406 219.394531 238.722656 220.324219 L 209.597656 248.382812 C 207.582031 250.320312 207.523438 253.519531 209.457031 255.53125 L 212.972656 259.167969 C 217.929688 264.300781 224.546875 266.90625 231.179688 266.90625 C 237.5 266.90625 243.820312 264.558594 248.695312 259.835938 C 253.574219 255.15625 256.320312 248.859375 256.4375 242.105469 C 256.574219 235.351562 254.046875 228.953125 249.367188 224.09375 L 245.871094 220.460938 " fill-opacity="1" fill-rule="nonzero"/><g clip-path="url(#491faffeab)"><path fill="#0f9d58" d="M 298.714844 249.074219 C 295.792969 249.074219 292.988281 248.640625 290.363281 247.792969 L 296.898438 241.492188 L 303.769531 241.492188 L 303.769531 234.878906 L 304.480469 234.1875 L 309.4375 239.164062 L 316.585938 231.992188 L 310.917969 226.328125 L 318.9375 226.328125 L 318.9375 216.214844 L 310.917969 216.214844 L 316.585938 210.546875 L 309.4375 203.398438 L 303.769531 209.066406 L 303.769531 201.050781 L 293.660156 201.050781 L 293.660156 209.066406 L 287.992188 203.398438 L 286.789062 204.625 L 281.695312 199.351562 C 286.414062 195.679688 292.296875 193.46875 298.714844 193.46875 C 314.039062 193.46875 326.519531 205.949219 326.519531 221.269531 C 326.519531 236.613281 314.039062 249.074219 298.714844 249.074219 Z M 242.792969 279.566406 L 242.792969 279.40625 L 176.324219 279.40625 L 61.097656 159.796875 L 148.480469 75.617188 L 267.773438 199.449219 C 263.386719 205.632812 260.800781 213.15625 260.800781 221.269531 C 260.800781 232.625 265.835938 242.796875 273.753906 249.746094 Z M 186.589844 289.515625 L 232.464844 289.515625 L 208.433594 312.679688 Z M 76.738281 88.570312 C 77.6875 87.664062 78.929688 87.167969 80.234375 87.167969 C 80.273438 87.167969 80.292969 87.167969 80.332031 87.167969 C 81.675781 87.1875 82.9375 87.742188 83.886719 88.710938 C 85.824219 90.722656 85.742188 93.921875 83.730469 95.859375 C 82.761719 96.804688 81.714844 97.28125 80.136719 97.28125 C 78.792969 97.261719 77.527344 96.707031 76.601562 95.71875 C 75.652344 94.753906 75.160156 93.46875 75.179688 92.125 C 75.199219 90.78125 75.75 89.519531 76.738281 88.570312 Z M 59.164062 77.632812 L 66.707031 85.472656 C 65.71875 87.464844 65.128906 89.636719 65.066406 91.949219 C 65.007812 95.996094 66.507812 99.828125 69.3125 102.730469 C 72.117188 105.652344 75.910156 107.3125 79.957031 107.390625 C 80.054688 107.390625 80.15625 107.390625 80.234375 107.390625 C 84.183594 107.390625 87.914062 105.890625 90.757812 103.144531 C 96.78125 97.339844 96.960938 87.722656 91.171875 81.699219 C 88.351562 78.777344 84.578125 77.136719 80.53125 77.058594 C 78.257812 76.980469 76.046875 77.511719 73.992188 78.441406 L 66.90625 71.074219 L 139.59375 66.394531 L 141.46875 68.332031 L 54.070312 152.511719 L 48.796875 147.023438 Z M 270.910156 221.269531 C 270.910156 216.019531 272.414062 211.121094 274.941406 206.933594 L 283.90625 216.214844 L 278.496094 216.214844 L 278.496094 226.328125 L 286.511719 226.328125 L 280.84375 231.992188 L 286.414062 237.5625 L 281.042969 242.738281 C 274.859375 237.621094 270.910156 229.902344 270.910156 221.269531 Z M 298.714844 183.355469 C 289.574219 183.355469 281.179688 186.617188 274.625 192.027344 L 152.25 64.972656 C 152.25 64.953125 152.25 64.953125 152.25 64.953125 L 145.242188 57.6875 C 144.214844 56.621094 142.753906 56.027344 141.273438 56.144531 L 57.703125 61.539062 L 48.816406 52.296875 C 46.882812 50.300781 43.664062 50.242188 41.667969 52.175781 C 39.652344 54.113281 39.59375 57.3125 41.53125 59.324219 L 50.316406 68.449219 L 38.429688 147.988281 C 38.191406 149.53125 38.6875 151.109375 39.792969 152.234375 L 50.296875 163.15625 L 204.621094 323.363281 C 204.621094 323.363281 204.621094 323.363281 204.640625 323.382812 L 204.699219 323.441406 L 204.699219 323.421875 C 205.6875 324.410156 206.96875 324.902344 208.253906 324.902344 C 209.519531 324.902344 210.78125 324.449219 211.75 323.503906 L 282.40625 255.453125 C 287.359375 257.824219 292.871094 259.1875 298.714844 259.1875 C 319.628906 259.1875 336.628906 242.183594 336.628906 221.269531 C 336.628906 200.378906 319.628906 183.355469 298.714844 183.355469 " fill-opacity="1" fill-rule="nonzero"/></g></svg>