<svg xmlns="http://www.w3.org/2000/svg" xmlns:xlink="http://www.w3.org/1999/xlink" width="500" zoomAndPan="magnify" viewBox="0 0 375 374.999991" height="500" preserveAspectRatio="xMidYMid meet" version="1.0"><defs><clipPath id="af711e5805"><path d="M 37.5 37.5 L 337.5 37.5 L 337.5 337.5 L 37.5 337.5 Z M 37.5 37.5 " clip-rule="nonzero"/></clipPath></defs><rect x="-37.5" width="450" fill="#ffffff" y="-37.499999" height="449.999989" fill-opacity="1"/><rect x="-37.5" width="450" fill="#1a2026" y="-37.499999" height="449.999989" fill-opacity="1"/><g clip-path="url(#af711e5805)"><path fill="#207cc2" d="M 332.585938 290.699219 L 327.90625 290.699219 L 327.90625 145.613281 C 327.90625 137.65625 321.820312 131.570312 313.863281 131.570312 L 256.296875 131.570312 C 257.234375 127.359375 257.703125 123.617188 257.703125 119.402344 L 257.703125 70.730469 C 257.703125 68.390625 255.832031 66.515625 253.492188 66.050781 C 226.8125 63.242188 205.753906 53.878906 190.777344 39.371094 C 188.902344 37.5 186.097656 37.5 184.222656 39.371094 C 169.246094 53.878906 148.1875 63.242188 121.507812 66.050781 C 119.167969 66.515625 117.296875 68.390625 117.296875 70.730469 L 117.296875 119.402344 C 117.296875 123.617188 117.765625 127.828125 118.703125 131.570312 L 61.136719 131.570312 C 53.179688 131.570312 47.09375 137.65625 47.09375 145.613281 L 47.09375 290.699219 L 42.414062 290.699219 C 39.605469 290.699219 37.734375 292.570312 37.734375 295.378906 L 37.734375 314.097656 C 37.734375 327.203125 48.03125 337.5 61.136719 337.5 L 313.863281 337.5 C 326.96875 337.5 337.265625 327.203125 337.265625 314.097656 L 337.265625 295.378906 C 337.265625 292.570312 335.394531 290.699219 332.585938 290.699219 Z M 313.863281 140.933594 C 316.671875 140.933594 318.546875 142.804688 318.546875 145.613281 L 318.546875 290.699219 L 309.183594 290.699219 L 309.183594 154.972656 C 309.183594 152.164062 307.3125 150.292969 304.503906 150.292969 L 249.277344 150.292969 C 251.152344 147.484375 252.554688 144.207031 253.957031 140.933594 Z M 159.417969 300.058594 L 215.582031 300.058594 L 215.582031 304.738281 C 215.582031 307.546875 213.710938 309.417969 210.902344 309.417969 L 164.097656 309.417969 C 161.289062 309.417969 159.417969 307.546875 159.417969 304.738281 Z M 75.175781 290.699219 L 75.175781 159.652344 L 132.742188 159.652344 C 136.484375 163.398438 140.230469 167.140625 144.910156 170.417969 L 185.160156 196.625 C 186.097656 197.09375 187.03125 197.5625 187.5 197.5625 C 187.96875 197.5625 189.371094 197.09375 189.839844 196.625 L 230.089844 170.417969 C 234.769531 167.609375 238.515625 163.863281 242.257812 159.652344 L 299.824219 159.652344 L 299.824219 290.699219 Z M 126.65625 74.941406 C 151.929688 71.664062 172.054688 62.773438 187.5 49.199219 C 202.945312 62.773438 223.070312 71.664062 248.34375 74.941406 L 248.34375 119.402344 C 248.34375 136.71875 239.449219 153.101562 224.941406 162.460938 L 187.5 186.796875 L 150.058594 162.460938 C 135.550781 153.101562 126.65625 136.71875 126.65625 119.402344 Z M 56.453125 145.613281 C 56.453125 142.804688 58.328125 140.933594 61.136719 140.933594 L 121.507812 140.933594 C 122.914062 144.207031 124.316406 147.484375 126.191406 150.292969 L 70.496094 150.292969 C 67.6875 150.292969 65.816406 152.164062 65.816406 154.972656 L 65.816406 290.699219 L 56.453125 290.699219 Z M 327.90625 314.097656 C 327.90625 322.054688 321.820312 328.140625 313.863281 328.140625 L 61.136719 328.140625 C 53.179688 328.140625 47.09375 322.054688 47.09375 314.097656 L 47.09375 300.058594 L 150.058594 300.058594 L 150.058594 304.738281 C 150.058594 312.695312 156.144531 318.777344 164.097656 318.777344 L 210.902344 318.777344 C 218.855469 318.777344 224.941406 312.695312 224.941406 304.738281 L 224.941406 300.058594 L 327.90625 300.058594 Z M 327.90625 314.097656 " fill-opacity="1" fill-rule="nonzero"/></g><path fill="#207cc2" d="M 159.417969 157.3125 L 185.160156 172.757812 C 185.628906 173.695312 186.5625 173.695312 187.5 173.695312 C 188.4375 173.695312 189.371094 173.695312 189.839844 173.226562 L 215.582031 157.3125 C 230.089844 147.953125 238.980469 131.570312 238.980469 114.253906 L 238.980469 84.769531 C 238.980469 82.429688 237.578125 80.558594 235.238281 80.089844 C 216.050781 75.878906 202.007812 70.261719 190.308594 62.304688 C 188.902344 61.367188 186.5625 61.367188 184.691406 62.304688 C 172.992188 70.730469 158.949219 76.34375 139.761719 80.089844 C 137.421875 80.558594 136.019531 82.429688 136.019531 84.769531 L 136.019531 114.253906 C 136.019531 131.570312 144.910156 147.953125 159.417969 157.3125 Z M 145.378906 88.515625 C 162.695312 84.769531 176.265625 79.152344 187.5 71.664062 C 198.734375 79.152344 212.304688 84.769531 229.621094 88.515625 L 229.621094 114.253906 C 229.621094 128.761719 222.601562 141.867188 210.433594 149.355469 L 187.5 163.398438 L 164.566406 149.355469 C 152.398438 141.398438 145.378906 128.296875 145.378906 114.253906 Z M 145.378906 88.515625 " fill-opacity="1" fill-rule="nonzero"/><path fill="#207cc2" d="M 184.222656 148.886719 C 185.160156 149.824219 186.097656 150.292969 187.5 150.292969 C 187.96875 150.292969 188.4375 150.292969 188.4375 150.292969 C 189.839844 149.824219 191.242188 148.886719 191.710938 147.015625 L 210.433594 90.855469 C 211.367188 88.515625 209.964844 85.707031 207.625 84.769531 C 205.285156 83.832031 202.476562 85.238281 201.539062 87.578125 L 185.160156 136.71875 L 171.585938 123.148438 C 169.714844 121.273438 166.90625 121.273438 165.035156 123.148438 C 163.164062 125.019531 163.164062 127.828125 165.035156 129.699219 Z M 184.222656 148.886719 " fill-opacity="1" fill-rule="nonzero"/><path fill="#207cc2" d="M 262.382812 215.816406 L 243.195312 215.816406 C 240.855469 205.050781 231.492188 197.09375 220.261719 197.09375 C 209.027344 197.09375 199.667969 205.050781 197.328125 215.816406 L 189.371094 215.816406 L 187.5 201.304688 C 187.03125 198.964844 185.160156 197.09375 182.820312 197.09375 L 172.992188 197.09375 C 170.652344 186.328125 161.289062 178.375 150.058594 178.375 C 138.824219 178.375 129.464844 186.328125 127.125 197.09375 L 117.296875 197.09375 C 114.957031 197.09375 113.085938 198.964844 112.617188 201.304688 L 103.257812 276.191406 C 103.257812 277.59375 103.726562 278.996094 104.191406 279.933594 C 105.128906 280.871094 106.53125 281.335938 107.46875 281.335938 L 266.59375 281.335938 C 268 281.335938 268.933594 280.871094 269.871094 279.933594 C 270.808594 278.996094 271.273438 277.59375 271.273438 276.191406 L 266.59375 220.027344 C 267.0625 217.6875 264.722656 215.816406 262.382812 215.816406 Z M 220.261719 206.453125 C 226.34375 206.453125 231.492188 210.199219 233.367188 215.816406 L 207.15625 215.816406 C 209.027344 210.199219 214.175781 206.453125 220.261719 206.453125 Z M 150.058594 187.734375 C 156.144531 187.734375 161.289062 191.476562 163.164062 197.09375 L 136.953125 197.09375 C 138.824219 191.476562 143.972656 187.734375 150.058594 187.734375 Z M 121.507812 206.453125 L 126.65625 206.453125 L 126.65625 215.816406 C 126.65625 218.625 128.53125 220.496094 131.335938 220.496094 C 134.144531 220.496094 136.019531 218.625 136.019531 215.816406 L 136.019531 206.453125 L 164.097656 206.453125 L 164.097656 215.816406 C 164.097656 218.625 165.972656 220.496094 168.777344 220.496094 C 171.585938 220.496094 173.460938 218.625 173.460938 215.816406 L 173.460938 206.453125 L 178.609375 206.453125 L 180.011719 215.816406 L 178.140625 215.816406 C 175.800781 215.816406 173.460938 217.6875 173.460938 220.027344 L 169.246094 271.976562 L 113.085938 271.976562 Z M 192.179688 271.976562 L 178.609375 271.976562 L 182.351562 225.175781 L 196.859375 225.175781 L 196.859375 234.535156 C 196.859375 237.34375 198.734375 239.214844 201.539062 239.214844 C 204.347656 239.214844 206.222656 237.34375 206.222656 234.535156 L 206.222656 225.175781 L 234.300781 225.175781 L 234.300781 234.535156 C 234.300781 237.34375 236.175781 239.214844 238.980469 239.214844 C 241.789062 239.214844 243.664062 237.34375 243.664062 234.535156 L 243.664062 225.175781 L 258.171875 225.175781 L 261.914062 271.976562 Z M 192.179688 271.976562 " fill-opacity="1" fill-rule="nonzero"/></svg>