<svg xmlns="http://www.w3.org/2000/svg" xmlns:xlink="http://www.w3.org/1999/xlink" width="500" zoomAndPan="magnify" viewBox="0 0 375 374.999991" height="500" preserveAspectRatio="xMidYMid meet" version="1.0"><defs><clipPath id="125dc5e9b7"><path d="M 158 166 L 331.875 166 L 331.875 237 L 158 237 Z M 158 166 " clip-rule="nonzero"/></clipPath><clipPath id="5f6661e120"><path d="M 43.125 167 L 234 167 L 234 337.5 L 43.125 337.5 Z M 43.125 167 " clip-rule="nonzero"/></clipPath><clipPath id="1ad23a8683"><path d="M 113 37.5 L 294 37.5 L 294 168 L 113 168 Z M 113 37.5 " clip-rule="nonzero"/></clipPath></defs><rect x="-37.5" width="450" fill="#ffffff" y="-37.499999" height="449.999989" fill-opacity="1"/><rect x="-37.5" width="450" fill="#1a2026" y="-37.499999" height="449.999989" fill-opacity="1"/><g clip-path="url(#125dc5e9b7)"><path fill="#207cc2" d="M 320.753906 184.011719 C 320.117188 185.1875 319.0625 186.046875 317.785156 186.429688 L 304.761719 190.324219 L 304.289062 180.027344 L 314.917969 176.847656 C 316.199219 176.46875 317.550781 176.605469 318.722656 177.238281 C 319.902344 177.875 320.757812 178.925781 321.140625 180.207031 C 321.523438 181.484375 321.386719 182.835938 320.753906 184.011719 Z M 217.214844 216.519531 L 214.347656 206.9375 L 294.417969 182.980469 L 294.890625 193.277344 Z M 184.820312 226.210938 L 173.808594 224.285156 L 181.953125 216.632812 L 204.769531 209.808594 L 207.636719 219.386719 Z M 330.71875 177.339844 C 329.570312 173.5 326.996094 170.339844 323.472656 168.4375 C 319.945312 166.539062 315.886719 166.121094 312.054688 167.273438 L 177.957031 207.394531 C 177.214844 207.617188 176.53125 208.007812 175.96875 208.539062 L 159.675781 223.847656 C 158.296875 225.144531 157.769531 227.109375 158.308594 228.925781 C 158.851562 230.738281 160.375 232.089844 162.238281 232.417969 L 184.261719 236.261719 C 184.542969 236.3125 184.832031 236.335938 185.121094 236.335938 C 185.605469 236.335938 186.085938 236.265625 186.554688 236.128906 L 295.359375 203.574219 L 295.832031 213.867188 L 261.257812 224.210938 L 264.125 233.792969 L 302.4375 222.328125 C 304.632812 221.667969 306.101562 219.601562 305.996094 217.308594 L 305.234375 200.621094 L 320.648438 196.007812 C 324.488281 194.855469 327.648438 192.285156 329.550781 188.757812 C 331.453125 185.230469 331.867188 181.179688 330.71875 177.339844 " fill-opacity="1" fill-rule="nonzero"/></g><g clip-path="url(#5f6661e120)"><path fill="#207cc2" d="M 223.085938 327.46875 L 143.101562 327.46875 L 143.101562 257.484375 L 163.097656 257.484375 L 163.097656 282.480469 C 163.097656 285.238281 165.335938 287.476562 168.097656 287.476562 L 198.089844 287.476562 C 200.851562 287.476562 203.089844 285.238281 203.089844 282.480469 L 203.089844 257.484375 L 223.085938 257.484375 Z M 53.121094 257.484375 L 73.117188 257.484375 L 73.117188 282.480469 C 73.117188 285.238281 75.355469 287.476562 78.117188 287.476562 L 108.109375 287.476562 C 110.871094 287.476562 113.109375 285.238281 113.109375 282.480469 L 113.109375 257.484375 L 133.105469 257.484375 L 133.105469 327.46875 L 53.121094 327.46875 Z M 83.117188 257.484375 L 103.113281 257.484375 L 103.113281 277.480469 L 83.117188 277.480469 Z M 53.121094 177.503906 L 73.117188 177.503906 L 73.117188 202.496094 C 73.117188 205.257812 75.355469 207.496094 78.117188 207.496094 L 108.109375 207.496094 C 110.871094 207.496094 113.109375 205.257812 113.109375 202.496094 L 113.109375 177.503906 L 133.105469 177.503906 L 133.105469 247.488281 L 53.121094 247.488281 Z M 83.117188 177.503906 L 103.113281 177.503906 L 103.113281 197.496094 L 83.117188 197.496094 Z M 173.097656 257.484375 L 193.09375 257.484375 L 193.09375 277.480469 L 173.097656 277.480469 Z M 228.085938 247.488281 L 143.101562 247.488281 L 143.101562 172.503906 C 143.101562 169.742188 140.863281 167.503906 138.105469 167.503906 L 48.125 167.503906 C 45.363281 167.503906 43.125 169.742188 43.125 172.503906 L 43.125 332.46875 C 43.125 335.230469 45.363281 337.46875 48.125 337.46875 L 228.085938 337.46875 C 230.84375 337.46875 233.082031 335.230469 233.082031 332.46875 L 233.082031 252.484375 C 233.082031 249.726562 230.84375 247.488281 228.085938 247.488281 " fill-opacity="1" fill-rule="nonzero"/></g><path fill="#207cc2" d="M 203.089844 317.472656 L 213.089844 317.472656 L 213.089844 307.472656 L 203.089844 307.472656 L 203.089844 317.472656 " fill-opacity="1" fill-rule="nonzero"/><path fill="#207cc2" d="M 113.109375 317.472656 L 123.109375 317.472656 L 123.109375 307.472656 L 113.109375 307.472656 L 113.109375 317.472656 " fill-opacity="1" fill-rule="nonzero"/><path fill="#207cc2" d="M 113.109375 237.488281 L 123.109375 237.488281 L 123.109375 227.492188 L 113.109375 227.492188 L 113.109375 237.488281 " fill-opacity="1" fill-rule="nonzero"/><g clip-path="url(#1ad23a8683)"><path fill="#207cc2" d="M 173.097656 67.527344 L 188.09375 67.527344 C 189.632812 67.527344 191.085938 66.816406 192.03125 65.601562 C 192.980469 64.390625 193.316406 62.808594 192.945312 61.3125 L 189.496094 47.53125 L 216.683594 47.53125 L 213.238281 61.3125 C 212.863281 62.808594 213.199219 64.390625 214.148438 65.601562 C 215.09375 66.816406 216.546875 67.527344 218.085938 67.527344 L 233.082031 67.527344 L 233.082031 77.523438 L 173.097656 77.523438 Z M 123.109375 77.523438 C 123.109375 72.011719 127.59375 67.527344 133.105469 67.527344 L 163.097656 67.527344 L 163.097656 77.523438 L 138.105469 77.523438 C 135.34375 77.523438 133.105469 79.761719 133.105469 82.523438 L 133.105469 157.507812 L 143.101562 157.507812 L 143.101562 87.523438 L 263.078125 87.523438 L 263.078125 167.503906 L 273.074219 167.503906 L 273.074219 82.523438 C 273.074219 79.761719 270.835938 77.523438 268.078125 77.523438 L 243.082031 77.523438 L 243.082031 67.527344 L 273.074219 67.527344 C 278.585938 67.527344 283.074219 72.011719 283.074219 77.523438 L 283.074219 162.503906 L 293.070312 162.503906 L 293.070312 77.523438 C 293.070312 66.5 284.101562 57.527344 273.074219 57.527344 L 224.488281 57.527344 L 227.9375 43.746094 C 228.308594 42.25 227.972656 40.667969 227.027344 39.457031 C 226.078125 38.242188 224.625 37.53125 223.085938 37.53125 L 183.09375 37.53125 C 181.554688 37.53125 180.101562 38.242188 179.15625 39.457031 C 178.207031 40.667969 177.871094 42.25 178.246094 43.746094 L 181.691406 57.527344 L 133.105469 57.527344 C 122.078125 57.527344 113.109375 66.5 113.109375 77.523438 L 113.109375 157.507812 L 123.109375 157.507812 L 123.109375 77.523438 " fill-opacity="1" fill-rule="nonzero"/></g><path fill="#207cc2" d="M 283.074219 282.480469 C 283.074219 287.992188 278.585938 292.476562 273.074219 292.476562 L 243.082031 292.476562 L 243.082031 302.476562 L 273.074219 302.476562 C 284.101562 302.476562 293.070312 293.503906 293.070312 282.480469 L 293.070312 237.488281 L 283.074219 237.488281 L 283.074219 282.480469 " fill-opacity="1" fill-rule="nonzero"/><path fill="#207cc2" d="M 273.074219 277.480469 L 273.074219 242.488281 L 263.078125 242.488281 L 263.078125 272.480469 L 243.082031 272.480469 L 243.082031 282.480469 L 268.078125 282.480469 C 270.835938 282.480469 273.074219 280.242188 273.074219 277.480469 " fill-opacity="1" fill-rule="nonzero"/><path fill="#207cc2" d="M 173.097656 117.515625 L 163.097656 117.515625 L 163.097656 107.515625 L 173.097656 107.515625 Z M 183.09375 102.519531 C 183.09375 99.757812 180.855469 97.519531 178.097656 97.519531 L 158.101562 97.519531 C 155.339844 97.519531 153.101562 99.757812 153.101562 102.519531 L 153.101562 122.515625 C 153.101562 125.273438 155.339844 127.511719 158.101562 127.511719 L 178.097656 127.511719 C 180.855469 127.511719 183.09375 125.273438 183.09375 122.515625 L 183.09375 102.519531 " fill-opacity="1" fill-rule="nonzero"/><path fill="#207cc2" d="M 173.097656 162.503906 L 163.097656 162.503906 L 163.097656 152.507812 L 173.097656 152.507812 Z M 178.097656 142.507812 L 158.101562 142.507812 C 155.339844 142.507812 153.101562 144.746094 153.101562 147.507812 L 153.101562 167.503906 C 153.101562 170.265625 155.339844 172.503906 158.101562 172.503906 L 178.097656 172.503906 C 180.855469 172.503906 183.09375 170.265625 183.09375 167.503906 L 183.09375 147.507812 C 183.09375 144.746094 180.855469 142.507812 178.097656 142.507812 " fill-opacity="1" fill-rule="nonzero"/><path fill="#207cc2" d="M 193.09375 97.519531 L 193.09375 107.515625 L 203.089844 107.515625 L 203.089844 97.519531 L 193.09375 97.519531 " fill-opacity="1" fill-rule="nonzero"/><path fill="#207cc2" d="M 253.078125 117.515625 L 193.09375 117.515625 L 193.09375 127.511719 L 253.078125 127.511719 L 253.078125 117.515625 " fill-opacity="1" fill-rule="nonzero"/><path fill="#207cc2" d="M 253.078125 97.519531 L 213.089844 97.519531 L 213.089844 107.515625 L 253.078125 107.515625 L 253.078125 97.519531 " fill-opacity="1" fill-rule="nonzero"/><path fill="#207cc2" d="M 193.09375 142.507812 L 193.09375 152.507812 L 203.089844 152.507812 L 203.089844 142.507812 L 193.09375 142.507812 " fill-opacity="1" fill-rule="nonzero"/><path fill="#207cc2" d="M 193.09375 172.503906 L 253.078125 172.503906 L 253.078125 162.503906 L 193.09375 162.503906 L 193.09375 172.503906 " fill-opacity="1" fill-rule="nonzero"/><path fill="#207cc2" d="M 253.078125 142.507812 L 213.089844 142.507812 L 213.089844 152.507812 L 253.078125 152.507812 L 253.078125 142.507812 " fill-opacity="1" fill-rule="nonzero"/></svg>