<svg xmlns="http://www.w3.org/2000/svg" xmlns:xlink="http://www.w3.org/1999/xlink" width="500" zoomAndPan="magnify" viewBox="0 0 375 374.999991" height="500" preserveAspectRatio="xMidYMid meet" version="1.0"><defs><clipPath id="89035fd1fd"><path d="M 37.5 207 L 238 207 L 238 337.5 L 37.5 337.5 Z M 37.5 207 " clip-rule="nonzero"/></clipPath><clipPath id="f70d3cd089"><path d="M 57 37.5 L 337.5 37.5 L 337.5 298 L 57 298 Z M 57 37.5 " clip-rule="nonzero"/></clipPath></defs><rect x="-37.5" width="450" fill="#ffffff" y="-37.499999" height="449.999989" fill-opacity="1"/><rect x="-37.5" width="450" fill="#1a2026" y="-37.499999" height="449.999989" fill-opacity="1"/><g clip-path="url(#89035fd1fd)"><path fill="#207cc2" d="M 222.5 247.5 L 158.101562 247.5 L 165.851562 242 C 170.648438 238.550781 173.699219 233.148438 174.148438 227.25 C 174.601562 221.351562 172.449219 215.550781 168.199219 211.398438 L 165.699219 208.949219 C 164 207.300781 161.398438 207.101562 159.398438 208.398438 L 104.449219 245 C 102 246.648438 99.101562 247.5 96.148438 247.5 L 87.5 247.5 L 87.5 242.5 C 87.5 239.75 85.25 237.5 82.5 237.5 L 42.5 237.5 C 39.75 237.5 37.5 239.75 37.5 242.5 L 37.5 332.5 C 37.5 335.25 39.75 337.5 42.5 337.5 L 82.5 337.5 C 85.25 337.5 87.5 335.25 87.5 332.5 L 87.5 327.5 L 91.449219 327.5 C 94.449219 327.5 97.300781 328.351562 99.75 330 L 104.699219 333.351562 C 108.648438 335.949219 113.25 337.351562 118.101562 337.5 L 182.5 337.5 C 190.75 337.5 197.5 330.75 197.5 322.5 C 197.5 318.648438 196 315.148438 193.601562 312.5 C 196 309.851562 197.5 306.351562 197.5 302.5 C 197.5 298.648438 196 295.148438 193.601562 292.5 C 196 289.851562 197.5 286.351562 197.5 282.5 C 197.5 280.75 197.148438 279.050781 196.601562 277.5 L 222.5 277.5 C 230.75 277.5 237.5 270.75 237.5 262.5 C 237.5 254.25 230.75 247.5 222.5 247.5 Z M 67.5 312.5 C 67.5 315.25 65.25 317.5 62.5 317.5 C 59.75 317.5 57.5 315.25 57.5 312.5 L 57.5 307.5 C 57.5 304.75 59.75 302.5 62.5 302.5 C 65.25 302.5 67.5 304.75 67.5 307.5 Z M 222.5 267.5 L 172.5 267.5 C 169.75 267.5 167.5 269.75 167.5 272.5 C 167.5 275.25 169.75 277.5 172.5 277.5 L 182.5 277.5 C 185.25 277.5 187.5 279.75 187.5 282.5 C 187.5 285.25 185.25 287.5 182.5 287.5 L 172.5 287.5 C 169.75 287.5 167.5 289.75 167.5 292.5 C 167.5 295.25 169.75 297.5 172.5 297.5 L 182.5 297.5 C 185.25 297.5 187.5 299.75 187.5 302.5 C 187.5 305.25 185.25 307.5 182.5 307.5 L 172.5 307.5 C 169.75 307.5 167.5 309.75 167.5 312.5 C 167.5 315.25 169.75 317.5 172.5 317.5 L 182.5 317.5 C 185.25 317.5 187.5 319.75 187.5 322.5 C 187.5 325.25 185.25 327.5 182.5 327.5 L 118.25 327.5 C 115.398438 327.449219 112.601562 326.550781 110.25 325 L 105.300781 321.699219 C 101.199219 318.949219 96.398438 317.5 91.449219 317.5 L 87.5 317.5 L 87.5 257.5 L 96.148438 257.5 C 101.101562 257.5 105.851562 256.050781 110 253.300781 L 161.601562 218.949219 C 163.449219 221 164.398438 223.699219 164.148438 226.449219 C 163.949219 229.449219 162.449219 232.101562 160 233.851562 L 139.601562 248.449219 C 137.351562 250.050781 136.851562 253.148438 138.449219 255.398438 C 139.199219 256.5 140.351562 257.050781 141.550781 257.25 C 141.75 257.398438 222.5 257.5 222.5 257.5 C 225.25 257.5 227.5 259.75 227.5 262.5 C 227.5 265.25 225.25 267.5 222.5 267.5 Z M 222.5 267.5 " fill-opacity="1" fill-rule="nonzero"/></g><path fill="#207cc2" d="M 232.5 127.5 L 302.5 127.5 C 305.265625 127.5 307.5 125.261719 307.5 122.5 C 307.5 119.738281 305.265625 117.5 302.5 117.5 L 232.5 117.5 C 229.734375 117.5 227.5 119.738281 227.5 122.5 C 227.5 125.261719 229.734375 127.5 232.5 127.5 Z M 232.5 127.5 " fill-opacity="1" fill-rule="nonzero"/><path fill="#207cc2" d="M 232.5 147.5 L 302.5 147.5 C 305.265625 147.5 307.5 145.261719 307.5 142.5 C 307.5 139.738281 305.265625 137.5 302.5 137.5 L 232.5 137.5 C 229.734375 137.5 227.5 139.738281 227.5 142.5 C 227.5 145.261719 229.734375 147.5 232.5 147.5 Z M 232.5 147.5 " fill-opacity="1" fill-rule="nonzero"/><path fill="#207cc2" d="M 232.5 167.5 L 302.5 167.5 C 305.265625 167.5 307.5 165.261719 307.5 162.5 C 307.5 159.738281 305.265625 157.5 302.5 157.5 L 232.5 157.5 C 229.734375 157.5 227.5 159.738281 227.5 162.5 C 227.5 165.261719 229.734375 167.5 232.5 167.5 Z M 232.5 167.5 " fill-opacity="1" fill-rule="nonzero"/><g clip-path="url(#f70d3cd089)"><path fill="#207cc2" d="M 322.5 37.5 L 72.5 37.5 C 64.25 37.5 57.5 44.25 57.5 52.5 L 57.5 227.5 C 57.5 230.25 59.75 232.5 62.5 232.5 C 65.25 232.5 67.5 230.25 67.5 227.5 L 67.5 87.5 L 327.5 87.5 L 327.5 282.5 C 327.5 285.25 325.25 287.5 322.5 287.5 L 207.5 287.5 C 204.75 287.5 202.5 289.75 202.5 292.5 C 202.5 295.25 204.75 297.5 207.5 297.5 L 322.5 297.5 C 330.75 297.5 337.5 290.75 337.5 282.5 L 337.5 52.5 C 337.5 44.25 330.75 37.5 322.5 37.5 Z M 87.5 67.5 L 82.5 67.5 C 79.75 67.5 77.5 65.25 77.5 62.5 C 77.5 59.75 79.75 57.5 82.5 57.5 L 87.5 57.5 C 90.25 57.5 92.5 59.75 92.5 62.5 C 92.5 65.25 90.25 67.5 87.5 67.5 Z M 112.5 67.5 L 107.5 67.5 C 104.75 67.5 102.5 65.25 102.5 62.5 C 102.5 59.75 104.75 57.5 107.5 57.5 L 112.5 57.5 C 115.25 57.5 117.5 59.75 117.5 62.5 C 117.5 65.25 115.25 67.5 112.5 67.5 Z M 137.5 67.5 L 132.5 67.5 C 129.75 67.5 127.5 65.25 127.5 62.5 C 127.5 59.75 129.75 57.5 132.5 57.5 L 137.5 57.5 C 140.25 57.5 142.5 59.75 142.5 62.5 C 142.5 65.25 140.25 67.5 137.5 67.5 Z M 137.5 67.5 " fill-opacity="1" fill-rule="nonzero"/></g><path fill="#207cc2" d="M 207.5 127.5 L 212.5 127.5 C 215.265625 127.5 217.5 125.261719 217.5 122.5 C 217.5 119.738281 215.265625 117.5 212.5 117.5 L 207.5 117.5 C 204.734375 117.5 202.5 119.738281 202.5 122.5 C 202.5 125.261719 204.734375 127.5 207.5 127.5 Z M 207.5 127.5 " fill-opacity="1" fill-rule="nonzero"/><path fill="#207cc2" d="M 207.5 147.5 L 212.5 147.5 C 215.265625 147.5 217.5 145.261719 217.5 142.5 C 217.5 139.738281 215.265625 137.5 212.5 137.5 L 207.5 137.5 C 204.734375 137.5 202.5 139.738281 202.5 142.5 C 202.5 145.261719 204.734375 147.5 207.5 147.5 Z M 207.5 147.5 " fill-opacity="1" fill-rule="nonzero"/><path fill="#207cc2" d="M 207.5 167.5 L 212.5 167.5 C 215.265625 167.5 217.5 165.261719 217.5 162.5 C 217.5 159.738281 215.265625 157.5 212.5 157.5 L 207.5 157.5 C 204.734375 157.5 202.5 159.738281 202.5 162.5 C 202.5 165.261719 204.734375 167.5 207.5 167.5 Z M 207.5 167.5 " fill-opacity="1" fill-rule="nonzero"/><path fill="#207cc2" d="M 187.5 117.5 L 187.5 137.5 C 187.5 139.050781 186.800781 140.5 185.601562 141.449219 C 184.351562 142.398438 182.800781 142.699219 181.300781 142.351562 L 167.5 138.898438 L 167.5 182.5 C 167.5 185.25 165.25 187.5 162.5 187.5 L 112.5 187.5 C 109.75 187.5 107.5 185.25 107.5 182.5 L 107.5 138.898438 L 93.699219 142.351562 C 92.199219 142.699219 90.648438 142.398438 89.398438 141.449219 C 88.199219 140.5 87.5 139.050781 87.5 137.5 L 87.5 117.5 C 87.5 115.199219 89.050781 113.199219 91.300781 112.648438 L 111.148438 107.648438 C 111.550781 107.550781 111.949219 107.5 112.398438 107.5 L 122.5 107.5 C 125.25 107.5 127.5 109.75 127.5 112.5 C 127.5 118 132 122.5 137.5 122.5 C 143 122.5 147.5 118 147.5 112.5 C 147.5 109.75 149.75 107.5 152.5 107.5 L 162.601562 107.5 C 163 107.5 163.398438 107.550781 163.800781 107.648438 L 183.699219 112.648438 C 185.949219 113.199219 187.5 115.199219 187.5 117.5 Z M 187.5 117.5 " fill-opacity="1" fill-rule="nonzero"/><path fill="#207cc2" d="M 182.5 202.5 C 182.5 210.769531 189.230469 217.5 197.5 217.5 C 200.261719 217.5 202.5 219.746094 202.5 222.5 C 202.5 225.253906 200.261719 227.5 197.5 227.5 C 194.738281 227.5 192.5 225.253906 192.5 222.5 C 192.5 219.746094 190.265625 217.5 187.5 217.5 C 184.734375 217.5 182.5 219.738281 182.5 222.5 C 182.5 230.769531 189.230469 237.5 197.5 237.5 C 205.769531 237.5 212.5 230.769531 212.5 222.5 C 212.5 214.230469 205.769531 207.5 197.5 207.5 C 194.738281 207.5 192.5 205.253906 192.5 202.5 C 192.5 199.746094 194.738281 197.5 197.5 197.5 C 200.261719 197.5 202.5 199.746094 202.5 202.5 C 202.5 205.253906 204.734375 207.5 207.5 207.5 C 210.265625 207.5 212.5 205.261719 212.5 202.5 C 212.5 194.230469 205.769531 187.5 197.5 187.5 C 189.230469 187.5 182.5 194.230469 182.5 202.5 Z M 182.5 202.5 " fill-opacity="1" fill-rule="nonzero"/><path fill="#207cc2" d="M 221.289062 237.351562 C 223.949219 238.015625 226.679688 236.386719 227.355469 233.710938 L 227.65625 232.5 L 237.34375 232.5 L 237.648438 233.714844 C 238.214844 235.984375 240.253906 237.5 242.496094 237.5 C 242.898438 237.5 243.304688 237.449219 243.714844 237.351562 C 246.390625 236.679688 248.019531 233.964844 247.351562 231.285156 L 237.328125 191.285156 C 236.773438 189.058594 234.773438 187.5 232.480469 187.5 C 230.183594 187.5 228.183594 189.058594 227.625 191.289062 L 217.644531 231.289062 C 216.980469 233.96875 218.605469 236.683594 221.289062 237.351562 Z M 232.488281 213.113281 L 234.839844 222.5 L 230.148438 222.5 Z M 232.488281 213.113281 " fill-opacity="1" fill-rule="nonzero"/><path fill="#207cc2" d="M 257.5 187.5 C 254.734375 187.5 252.5 189.738281 252.5 192.5 L 252.5 232.5 C 252.5 235.261719 254.734375 237.5 257.5 237.5 L 272.5 237.5 C 275.265625 237.5 277.5 235.261719 277.5 232.5 C 277.5 229.738281 275.265625 227.5 272.5 227.5 L 262.5 227.5 L 262.5 192.5 C 262.5 189.738281 260.265625 187.5 257.5 187.5 Z M 257.5 187.5 " fill-opacity="1" fill-rule="nonzero"/><path fill="#207cc2" d="M 302.5 197.5 C 305.265625 197.5 307.5 195.261719 307.5 192.5 C 307.5 189.738281 305.265625 187.5 302.5 187.5 L 287.5 187.5 C 284.734375 187.5 282.5 189.738281 282.5 192.5 L 282.5 232.5 C 282.5 235.261719 284.734375 237.5 287.5 237.5 L 302.5 237.5 C 305.265625 237.5 307.5 235.261719 307.5 232.5 C 307.5 229.738281 305.265625 227.5 302.5 227.5 L 292.5 227.5 L 292.5 217.5 L 297.5 217.5 C 300.265625 217.5 302.5 215.261719 302.5 212.5 C 302.5 209.738281 300.265625 207.5 297.5 207.5 L 292.5 207.5 L 292.5 197.5 Z M 302.5 197.5 " fill-opacity="1" fill-rule="nonzero"/></svg>