<svg xmlns="http://www.w3.org/2000/svg" xmlns:xlink="http://www.w3.org/1999/xlink" width="500" zoomAndPan="magnify" viewBox="0 0 375 374.999991" height="500" preserveAspectRatio="xMidYMid meet" version="1.0"><defs><clipPath id="527afaedb3"><path d="M 37.5 37.5 L 337.5 37.5 L 337.5 337.5 L 37.5 337.5 Z M 37.5 37.5 " clip-rule="nonzero"/></clipPath></defs><rect x="-37.5" width="450" fill="#ffffff" y="-37.499999" height="449.999989" fill-opacity="1"/><rect x="-37.5" width="450" fill="#1a2026" y="-37.499999" height="449.999989" fill-opacity="1"/><g clip-path="url(#527afaedb3)"><path fill="#207cc2" d="M 322.5 37.5 L 52.5 37.5 C 44.316406 37.5 37.5 44.316406 37.5 52.5 L 37.5 260.226562 C 37.5 268.410156 44.316406 275.226562 52.5 275.226562 L 152.953125 275.226562 L 140.226562 301.589844 L 134.773438 301.589844 C 117.5 301.589844 103.410156 315.683594 103.410156 332.953125 C 103.410156 335.683594 105.226562 337.5 107.953125 337.5 L 267.046875 337.5 C 269.773438 337.5 271.589844 335.683594 271.589844 332.953125 C 271.589844 332.5 271.589844 332.5 271.589844 332.046875 C 271.136719 315.226562 257.046875 301.589844 240.226562 301.589844 L 234.773438 301.589844 L 222.046875 275.226562 L 322.5 275.226562 C 330.683594 275.226562 337.5 268.410156 337.5 260.226562 L 337.5 52.5 C 337.5 44.316406 330.683594 37.5 322.5 37.5 Z M 52.5 46.589844 L 322.5 46.589844 C 325.683594 46.589844 328.410156 49.316406 328.410156 52.5 L 328.410156 218.410156 L 46.589844 218.410156 L 46.589844 52.5 C 46.589844 49.316406 49.316406 46.589844 52.5 46.589844 Z M 262.046875 328.410156 L 112.953125 328.410156 C 115.226562 318.410156 123.863281 310.683594 134.773438 310.683594 C 167.953125 310.683594 199.316406 310.683594 240.683594 310.683594 C 251.136719 310.683594 260.226562 318.410156 262.046875 328.410156 Z M 224.773438 301.589844 L 150.226562 301.589844 L 162.953125 275.226562 L 211.589844 275.226562 Z M 322.5 266.136719 C 299.773438 266.136719 90.226562 266.136719 52.5 266.136719 C 49.316406 266.136719 46.589844 263.863281 46.589844 260.226562 L 46.589844 227.046875 L 328.410156 227.046875 L 328.410156 260.226562 C 328.410156 263.863281 325.683594 266.136719 322.5 266.136719 Z M 322.5 266.136719 " fill-opacity="1" fill-rule="nonzero"/></g><path fill="#207cc2" d="M 187.5 231.136719 C 179.316406 231.136719 172.5 237.953125 172.5 246.136719 C 172.5 254.316406 179.316406 261.136719 187.5 261.136719 C 195.683594 261.136719 202.5 254.316406 202.5 246.136719 C 202.5 237.953125 195.683594 231.136719 187.5 231.136719 Z M 187.5 252.046875 C 184.316406 252.046875 181.589844 249.316406 181.589844 246.136719 C 181.589844 242.953125 184.316406 240.226562 187.5 240.226562 C 190.683594 240.226562 193.410156 242.953125 193.410156 246.136719 C 193.410156 249.316406 190.683594 252.046875 187.5 252.046875 Z M 187.5 252.046875 " fill-opacity="1" fill-rule="nonzero"/><path fill="#207cc2" d="M 246.136719 141.589844 C 246.589844 143.410156 247.953125 144.773438 249.316406 145.226562 C 251.136719 145.683594 252.953125 145.226562 253.863281 143.863281 L 262.953125 132.953125 L 280.226562 152.5 C 281.136719 153.410156 282.5 153.863281 283.863281 153.863281 C 284.773438 153.863281 286.136719 153.410156 287.046875 152.953125 L 301.136719 140.683594 C 302.046875 139.773438 302.5 138.863281 302.5 137.5 C 302.5 136.136719 302.046875 135.226562 301.589844 134.316406 L 284.316406 114.773438 L 296.136719 107.046875 C 297.5 106.136719 298.410156 104.316406 298.410156 102.5 C 298.410156 100.683594 297.046875 99.316406 295.226562 98.863281 L 240.683594 81.136719 C 239.316406 80.683594 237.5 81.136719 236.136719 82.046875 C 234.773438 82.953125 234.316406 84.773438 234.773438 86.136719 Z M 283.410156 103.863281 L 275.226562 109.316406 C 274.316406 110.226562 273.410156 111.136719 272.953125 112.5 C 272.953125 113.863281 272.953125 115.226562 273.863281 116.136719 L 291.589844 136.136719 L 284.316406 142.5 L 266.589844 122.5 C 265.683594 121.589844 264.316406 121.136719 262.953125 121.136719 C 261.589844 121.136719 260.226562 121.589844 259.316406 122.953125 L 252.953125 130.683594 L 245.226562 92.046875 Z M 283.410156 103.863281 " fill-opacity="1" fill-rule="nonzero"/><path fill="#207cc2" d="M 76.589844 118.863281 L 76.589844 205.226562 C 76.589844 207.953125 78.410156 209.773438 81.136719 209.773438 C 93.410156 209.773438 190.226562 209.773438 205.226562 209.773438 C 207.953125 209.773438 209.773438 207.953125 209.773438 205.226562 L 209.773438 118.863281 C 219.773438 117.953125 224.316406 108.410156 221.136719 98.410156 L 207.953125 55.226562 C 207.5 53.410156 205.683594 52.046875 203.410156 52.046875 L 82.953125 52.046875 C 81.136719 52.046875 79.316406 53.410156 78.410156 55.226562 L 65.226562 98.410156 C 62.046875 108.410156 66.589844 117.953125 76.589844 118.863281 Z M 124.316406 200.683594 L 124.316406 148.863281 L 162.5 148.863281 L 162.5 200.683594 Z M 171.589844 200.683594 L 171.589844 144.316406 C 171.589844 141.589844 169.773438 139.773438 167.046875 139.773438 L 119.773438 139.773438 C 117.046875 139.773438 115.226562 141.589844 115.226562 144.316406 L 115.226562 200.683594 L 85.683594 200.683594 L 85.683594 117.046875 C 88.410156 115.683594 90.683594 114.316406 92.5 112.046875 C 94.773438 116.589844 98.863281 118.863281 103.863281 118.863281 C 108.863281 118.863281 113.410156 116.589844 117.046875 112.5 C 117.046875 112.953125 117.5 112.953125 117.5 112.953125 C 120.683594 116.589844 125.226562 118.410156 129.773438 118.410156 C 134.773438 118.410156 139.773438 116.136719 142.953125 112.046875 C 146.136719 116.136719 150.683594 118.410156 156.136719 118.410156 C 160.683594 118.410156 164.773438 116.589844 167.5 113.410156 C 167.953125 112.953125 168.410156 112.5 168.410156 112.046875 C 172.046875 116.136719 177.046875 118.410156 182.046875 118.410156 C 186.589844 118.410156 190.683594 116.589844 193.410156 112.953125 C 193.863281 112.5 193.863281 112.046875 194.316406 112.046875 C 196.136719 113.863281 198.410156 115.683594 200.683594 116.589844 L 200.683594 200.226562 L 171.589844 200.226562 Z M 73.863281 101.136719 L 86.136719 61.136719 L 200.226562 61.136719 L 212.5 101.136719 C 213.863281 105.226562 212.953125 110.226562 208.410156 110.226562 C 203.410156 110.226562 197.953125 105.226562 196.589844 98.863281 C 196.136719 96.589844 193.863281 94.773438 191.136719 95.226562 C 188.863281 95.683594 187.5 97.5 187.5 99.773438 C 187.5 100.226562 187.5 100.226562 187.5 100.683594 C 187.953125 103.410156 187.5 106.136719 186.136719 107.953125 C 185.226562 109.316406 183.863281 109.773438 182.046875 109.773438 C 177.5 109.773438 172.5 104.773438 172.046875 98.863281 C 171.589844 96.589844 169.773438 94.773438 167.046875 94.773438 C 164.773438 95.226562 162.953125 97.046875 162.953125 99.316406 C 162.953125 99.316406 162.953125 99.773438 162.953125 99.773438 C 163.410156 102.5 162.5 105.683594 160.683594 107.5 C 159.773438 108.410156 158.410156 109.773438 155.683594 109.773438 C 151.136719 109.773438 147.046875 105.226562 147.046875 99.316406 C 147.046875 96.589844 145.226562 94.773438 142.5 94.773438 C 139.773438 94.773438 137.953125 96.589844 137.953125 99.316406 C 137.953125 104.773438 133.863281 109.773438 129.316406 109.773438 C 127.046875 109.773438 125.226562 108.863281 123.863281 107.5 C 122.5 105.683594 121.589844 103.410156 122.046875 100.226562 C 122.5 97.953125 120.683594 95.226562 118.410156 95.226562 C 116.136719 94.773438 113.410156 96.589844 113.410156 98.863281 C 112.5 104.773438 107.953125 109.773438 103.410156 109.773438 C 101.589844 109.773438 98.863281 109.773438 97.953125 99.316406 C 97.953125 97.046875 96.136719 95.226562 93.863281 95.226562 C 91.589844 95.226562 89.773438 96.589844 89.316406 98.863281 C 87.953125 104.773438 82.5 110.226562 77.5 110.226562 C 73.410156 109.773438 72.5 105.226562 73.863281 101.136719 Z M 73.863281 101.136719 " fill-opacity="1" fill-rule="nonzero"/><path fill="#207cc2" d="M 225.683594 179.316406 L 313.410156 179.316406 C 316.136719 179.316406 317.953125 177.5 317.953125 174.773438 C 317.953125 172.046875 316.136719 170.226562 313.410156 170.226562 L 225.683594 170.226562 C 222.953125 170.226562 221.136719 172.046875 221.136719 174.773438 C 221.136719 177.5 223.410156 179.316406 225.683594 179.316406 Z M 225.683594 179.316406 " fill-opacity="1" fill-rule="nonzero"/><path fill="#207cc2" d="M 313.410156 200.683594 L 225.683594 200.683594 C 222.953125 200.683594 221.136719 202.5 221.136719 205.226562 C 221.136719 207.953125 222.953125 209.773438 225.683594 209.773438 L 313.410156 209.773438 C 316.136719 209.773438 317.953125 207.953125 317.953125 205.226562 C 317.953125 202.5 315.683594 200.683594 313.410156 200.683594 Z M 313.410156 200.683594 " fill-opacity="1" fill-rule="nonzero"/></svg>