<svg xmlns="http://www.w3.org/2000/svg" xmlns:xlink="http://www.w3.org/1999/xlink" width="500" zoomAndPan="magnify" viewBox="0 0 375 374.999991" height="500" preserveAspectRatio="xMidYMid meet" version="1.0"><defs><clipPath id="a69feea096"><path d="M 37.5 47.125 L 337.5 47.125 L 337.5 327 L 37.5 327 Z M 37.5 47.125 " clip-rule="nonzero"/></clipPath></defs><rect x="-37.5" width="450" fill="#ffffff" y="-37.499999" height="449.999989" fill-opacity="1"/><rect x="-37.5" width="450" fill="#1a2026" y="-37.499999" height="449.999989" fill-opacity="1"/><g clip-path="url(#a69feea096)"><path fill="#207cc2" d="M 306.480469 267.03125 C 227.113281 267.03125 147.75 267.03125 68.382812 267.03125 C 50.707031 267.03125 49.269531 265.375 51.308594 247.0625 C 142.09375 247.0625 232.914062 247.0625 323.699219 247.0625 C 325.546875 265.597656 324.285156 267.03125 306.480469 267.03125 Z M 204.007812 299.707031 C 192.769531 299.707031 182.03125 299.707031 170.921875 299.707031 C 170.921875 293.203125 170.921875 286.925781 170.921875 280.140625 C 181.808594 280.140625 192.710938 280.140625 204.007812 280.140625 C 204.007812 286.558594 204.007812 292.820312 204.007812 299.707031 Z M 50.699219 99.363281 C 50.703125 88.636719 52.300781 87.066406 63.054688 87.0625 C 74.363281 87.050781 85.675781 87.058594 97.414062 87.058594 C 97.414062 135.78125 97.414062 184.164062 97.414062 233.144531 C 81.769531 233.144531 66.570312 233.144531 50.695312 233.144531 C 50.695312 230.75 50.695312 228.609375 50.695312 226.46875 C 50.695312 184.101562 50.6875 141.730469 50.699219 99.363281 Z M 263.816406 114.152344 C 263.816406 153.746094 263.816406 193.101562 263.816406 232.929688 C 213.042969 232.929688 162.191406 232.929688 111.132812 232.929688 C 111.132812 193.335938 111.132812 153.984375 111.132812 114.152344 C 161.910156 114.152344 212.757812 114.152344 263.816406 114.152344 Z M 119.464844 60.410156 C 164.808594 60.476562 210.148438 60.476562 255.492188 60.410156 C 261.457031 60.398438 264.023438 63.25 264.015625 68.957031 C 264 79.050781 264.007812 89.140625 264.007812 99.789062 C 213.101562 99.789062 162.300781 99.789062 110.933594 99.789062 C 110.933594 89.125 110.949219 79.035156 110.925781 68.941406 C 110.914062 63.210938 113.523438 60.402344 119.464844 60.410156 Z M 277.535156 87.132812 C 290.894531 87.132812 304.355469 86.988281 317.8125 87.222656 C 321.847656 87.292969 323.75 90.457031 324.097656 94.207031 C 324.394531 97.386719 324.25 100.605469 324.25 103.808594 C 324.253906 146.65625 324.253906 189.503906 324.253906 233.144531 C 308.371094 233.144531 293.171875 233.144531 277.535156 233.144531 C 277.535156 184.695312 277.535156 136.3125 277.535156 87.132812 Z M 337.296875 94.679688 C 337.273438 81.71875 328.976562 73.773438 315.894531 73.742188 C 303.132812 73.710938 290.375 73.734375 277.101562 73.734375 C 277.101562 72.175781 277.117188 71.253906 277.097656 70.335938 C 276.789062 53.550781 270.128906 47.121094 253.0625 47.121094 C 209.914062 47.121094 166.765625 47.121094 123.613281 47.121094 C 103.980469 47.121094 98.476562 52.488281 97.742188 72.296875 C 97.726562 72.679688 97.234375 73.042969 96.734375 73.734375 C 84.402344 73.734375 71.855469 73.714844 59.304688 73.738281 C 45.8125 73.765625 37.625 81.769531 37.617188 95.167969 C 37.582031 149.609375 37.585938 204.054688 37.636719 258.5 C 37.652344 271.886719 45.339844 279.609375 58.582031 279.628906 C 88.910156 279.675781 119.238281 279.644531 149.5625 279.644531 C 151.964844 279.644531 154.367188 279.644531 157.480469 279.644531 C 157.480469 285.921875 157.300781 291.535156 157.546875 297.128906 C 157.703125 300.71875 156.382812 302.238281 152.894531 303.289062 C 142.816406 306.324219 132.878906 309.820312 122.910156 313.21875 C 118.9375 314.574219 116.578125 317.332031 117.855469 321.632812 C 119.222656 326.238281 122.773438 327.488281 127.199219 326.128906 C 130.46875 325.125 133.609375 323.660156 136.90625 322.777344 C 150.289062 319.1875 162.78125 313.316406 177.347656 312.851562 C 199.929688 312.136719 221.28125 315.546875 242.027344 324.007812 C 243.605469 324.652344 245.285156 325.054688 246.859375 325.710938 C 251.492188 327.636719 255.375 326.816406 256.96875 321.855469 C 258.597656 316.78125 255.480469 314.363281 250.859375 312.894531 C 241.296875 309.847656 231.847656 306.429688 222.316406 303.273438 C 219.960938 302.492188 217.410156 302.296875 217.449219 298.859375 C 217.53125 292.574219 217.472656 286.289062 217.472656 279.644531 C 251.339844 279.644531 284.097656 279.683594 316.855469 279.625 C 329.261719 279.601562 337.296875 271.792969 337.316406 259.492188 C 337.390625 204.554688 337.382812 149.617188 337.296875 94.679688 " fill-opacity="1" fill-rule="nonzero"/></g><path fill="#207cc2" d="M 140.59375 153.894531 C 156.101562 153.792969 171.609375 153.855469 187.117188 153.855469 C 202.867188 153.855469 218.621094 153.789062 234.375 153.894531 C 239.085938 153.925781 243.851562 153.867188 243.984375 147.71875 C 244.117188 141.625 239.582031 141.183594 234.71875 141.199219 C 203.214844 141.289062 171.707031 141.289062 140.203125 141.195312 C 135.328125 141.183594 130.8125 141.65625 130.960938 147.742188 C 131.113281 153.890625 135.890625 153.921875 140.59375 153.894531 " fill-opacity="1" fill-rule="nonzero"/><path fill="#207cc2" d="M 139.683594 207.085938 C 155.191406 206.984375 170.699219 207.046875 186.207031 207.046875 C 201.957031 207.046875 217.710938 206.984375 233.464844 207.085938 C 238.175781 207.117188 242.941406 207.058594 243.074219 200.910156 C 243.207031 194.816406 238.671875 194.375 233.808594 194.390625 C 202.304688 194.480469 170.800781 194.480469 139.292969 194.386719 C 134.417969 194.375 129.902344 194.847656 130.050781 200.933594 C 130.203125 207.085938 134.980469 207.117188 139.683594 207.085938 " fill-opacity="1" fill-rule="nonzero"/><path fill="#207cc2" d="M 139.683594 180.070312 C 155.191406 179.96875 170.699219 180.035156 186.207031 180.035156 C 201.957031 180.035156 217.710938 179.96875 233.464844 180.074219 C 238.175781 180.101562 242.941406 180.046875 243.074219 173.898438 C 243.207031 167.800781 238.671875 167.363281 233.808594 167.375 C 202.304688 167.464844 170.800781 167.464844 139.292969 167.375 C 134.417969 167.359375 129.902344 167.832031 130.050781 173.921875 C 130.203125 180.070312 134.980469 180.101562 139.683594 180.070312 " fill-opacity="1" fill-rule="nonzero"/><path fill="#f5f6f7" d="M 130.347656 86.980469 C 137.234375 87.214844 144.140625 87.148438 151.035156 87.019531 C 155.210938 86.941406 157.222656 84.453125 157.214844 80.378906 C 157.210938 76.304688 155.179688 73.917969 151.003906 73.761719 C 147.804688 73.640625 144.601562 73.738281 141.398438 73.742188 C 137.703125 73.75 134 73.589844 130.316406 73.792969 C 126.535156 74.003906 124.601562 76.351562 124.476562 80.042969 C 124.339844 84.046875 126.167969 86.839844 130.347656 86.980469 " fill-opacity="1" fill-rule="nonzero"/><path fill="#f5f6f7" d="M 217.96875 87.011719 C 222.183594 86.730469 223.855469 84.015625 223.867188 79.660156 C 223.441406 76.027344 221.441406 73.628906 217.230469 73.761719 C 213.042969 73.894531 210.777344 76.628906 210.835938 80.394531 C 210.902344 84.535156 213.40625 87.3125 217.96875 87.011719 " fill-opacity="1" fill-rule="nonzero"/><path fill="#f5f6f7" d="M 244.03125 87.132812 C 248.042969 86.851562 250.339844 84.816406 250.445312 80.65625 C 250.550781 76.601562 248.6875 74.007812 244.496094 73.78125 C 239.925781 73.535156 237.492188 76.355469 237.472656 80.503906 C 237.453125 84.320312 239.871094 86.785156 244.03125 87.132812 " fill-opacity="1" fill-rule="nonzero"/><path fill="#f5f6f7" d="M 63.046875 165.0625 L 81.671875 182.703125 C 82.671875 183.652344 84.265625 183.609375 85.210938 182.609375 L 86.289062 181.476562 C 87.234375 180.476562 87.195312 178.886719 86.195312 177.9375 L 69.386719 162.019531 L 85.320312 145.226562 C 86.269531 144.226562 86.226562 142.636719 85.226562 141.691406 L 84.089844 140.617188 C 83.09375 139.667969 81.5 139.710938 80.550781 140.710938 L 62.894531 159.316406 L 61.820312 160.449219 C 60.871094 161.449219 60.914062 163.042969 61.914062 163.988281 L 63.046875 165.0625 " fill-opacity="1" fill-rule="nonzero"/><path fill="#f5f6f7" d="M 312.507812 159.316406 L 294.851562 140.710938 C 293.90625 139.710938 292.3125 139.667969 291.3125 140.617188 L 290.175781 141.691406 C 289.175781 142.636719 289.136719 144.226562 290.082031 145.226562 L 306.015625 162.019531 L 289.210938 177.9375 C 288.210938 178.886719 288.167969 180.476562 289.117188 181.476562 L 290.191406 182.609375 C 291.140625 183.609375 292.734375 183.652344 293.730469 182.703125 L 312.355469 165.0625 L 313.492188 163.988281 C 314.492188 163.042969 314.535156 161.449219 313.585938 160.449219 L 312.507812 159.316406 " fill-opacity="1" fill-rule="nonzero"/></svg>