<svg xmlns="http://www.w3.org/2000/svg" xmlns:xlink="http://www.w3.org/1999/xlink" width="500" zoomAndPan="magnify" viewBox="0 0 375 374.999991" height="500" preserveAspectRatio="xMidYMid meet" version="1.0"><defs><clipPath id="b2792494f6"><path d="M 44.25 37.5 L 258 37.5 L 258 337.5 L 44.25 337.5 Z M 44.25 37.5 " clip-rule="nonzero"/></clipPath><clipPath id="933deb0875"><path d="M 277 70 L 330.75 70 L 330.75 337.5 L 277 337.5 Z M 277 70 " clip-rule="nonzero"/></clipPath></defs><g clip-path="url(#b2792494f6)"><path fill="#f4b400" d="M 237.472656 37.585938 L 64.238281 37.585938 C 53.210938 37.585938 44.25 46.546875 44.25 57.574219 L 44.25 317.425781 C 44.25 328.453125 53.210938 337.414062 64.238281 337.414062 L 237.472656 337.414062 C 248.496094 337.414062 257.460938 328.453125 257.460938 317.425781 L 257.460938 57.574219 C 257.460938 46.546875 248.496094 37.585938 237.472656 37.585938 Z M 244.132812 317.425781 C 244.132812 321.089844 241.136719 324.085938 237.472656 324.085938 L 64.238281 324.085938 C 60.574219 324.085938 57.574219 321.089844 57.574219 317.425781 L 57.574219 57.574219 C 57.574219 53.910156 60.574219 50.914062 64.238281 50.914062 L 237.472656 50.914062 C 241.136719 50.914062 244.132812 53.910156 244.132812 57.574219 Z M 244.132812 317.425781 " fill-opacity="1" fill-rule="nonzero"/></g><path fill="#f4b400" d="M 217.484375 80.894531 L 84.226562 80.894531 C 80.5625 80.894531 77.5625 83.894531 77.5625 87.558594 L 77.5625 120.871094 C 77.5625 124.535156 80.5625 127.535156 84.226562 127.535156 L 217.484375 127.535156 C 221.148438 127.535156 224.144531 124.535156 224.144531 120.871094 L 224.144531 87.558594 C 224.144531 83.894531 221.148438 80.894531 217.484375 80.894531 Z M 210.820312 114.210938 L 90.890625 114.210938 L 90.890625 94.222656 L 210.820312 94.222656 Z M 210.820312 114.210938 " fill-opacity="1" fill-rule="nonzero"/><path fill="#f4b400" d="M 84.226562 194.164062 L 117.539062 194.164062 C 121.207031 194.164062 124.203125 191.199219 124.203125 187.5 L 124.203125 154.1875 C 124.203125 150.523438 121.207031 147.523438 117.539062 147.523438 L 84.226562 147.523438 C 80.5625 147.523438 77.5625 150.523438 77.5625 154.1875 L 77.5625 187.5 C 77.5625 191.199219 80.5625 194.164062 84.226562 194.164062 Z M 90.890625 160.847656 L 110.878906 160.847656 L 110.878906 180.835938 L 90.890625 180.835938 Z M 90.890625 160.847656 " fill-opacity="1" fill-rule="nonzero"/><path fill="#f4b400" d="M 217.484375 147.523438 L 150.855469 147.523438 C 147.191406 147.523438 144.191406 150.523438 144.191406 154.1875 C 144.191406 157.851562 147.191406 160.847656 150.855469 160.847656 L 217.484375 160.847656 C 221.148438 160.847656 224.144531 157.851562 224.144531 154.1875 C 224.144531 150.523438 221.148438 147.523438 217.484375 147.523438 Z M 217.484375 147.523438 " fill-opacity="1" fill-rule="nonzero"/><path fill="#f4b400" d="M 217.484375 180.835938 L 150.855469 180.835938 C 147.191406 180.835938 144.191406 183.835938 144.191406 187.5 C 144.191406 191.164062 147.191406 194.164062 150.855469 194.164062 L 217.484375 194.164062 C 221.148438 194.164062 224.144531 191.199219 224.144531 187.5 C 224.144531 183.835938 221.148438 180.835938 217.484375 180.835938 Z M 217.484375 180.835938 " fill-opacity="1" fill-rule="nonzero"/><path fill="#f4b400" d="M 217.484375 214.152344 L 84.226562 214.152344 C 80.5625 214.152344 77.5625 217.148438 77.5625 220.8125 C 77.5625 224.476562 80.5625 227.476562 84.226562 227.476562 L 217.484375 227.476562 C 221.148438 227.476562 224.144531 224.476562 224.144531 220.8125 C 224.144531 217.148438 221.148438 214.152344 217.484375 214.152344 Z M 217.484375 214.152344 " fill-opacity="1" fill-rule="nonzero"/><path fill="#f4b400" d="M 217.484375 247.464844 L 84.226562 247.464844 C 80.5625 247.464844 77.5625 250.464844 77.5625 254.128906 C 77.5625 257.792969 80.5625 260.789062 84.226562 260.789062 L 217.484375 260.789062 C 221.148438 260.789062 224.144531 257.792969 224.144531 254.128906 C 224.144531 250.464844 221.148438 247.464844 217.484375 247.464844 Z M 217.484375 247.464844 " fill-opacity="1" fill-rule="nonzero"/><path fill="#f4b400" d="M 217.484375 280.777344 L 84.226562 280.777344 C 80.5625 280.777344 77.5625 283.777344 77.5625 287.441406 C 77.5625 291.105469 80.5625 294.105469 84.226562 294.105469 L 217.484375 294.105469 C 221.148438 294.105469 224.144531 291.105469 224.144531 287.441406 C 224.144531 283.777344 221.148438 280.777344 217.484375 280.777344 Z M 217.484375 280.777344 " fill-opacity="1" fill-rule="nonzero"/><g clip-path="url(#933deb0875)"><path fill="#f4b400" d="M 304.097656 70.902344 C 289.40625 70.902344 277.449219 82.859375 277.449219 97.550781 L 277.449219 297.4375 C 277.449219 298.636719 277.78125 299.835938 278.414062 300.867188 L 298.402344 334.179688 C 299.601562 336.179688 301.765625 337.414062 304.097656 337.414062 C 306.429688 337.414062 308.597656 336.179688 309.796875 334.179688 L 329.785156 300.867188 C 330.417969 299.835938 330.75 298.636719 330.75 297.4375 L 330.75 97.550781 C 330.75 82.859375 318.789062 70.902344 304.097656 70.902344 Z M 290.773438 127.535156 L 317.425781 127.535156 L 317.425781 280.777344 L 290.773438 280.777344 Z M 304.097656 84.226562 C 311.460938 84.226562 317.425781 90.191406 317.425781 97.550781 L 317.425781 114.210938 L 290.773438 114.210938 L 290.773438 97.550781 C 290.773438 90.191406 296.738281 84.226562 304.097656 84.226562 Z M 304.097656 317.789062 L 290.773438 295.570312 L 290.773438 294.105469 L 317.425781 294.105469 L 317.425781 295.605469 Z M 304.097656 317.789062 " fill-opacity="1" fill-rule="nonzero"/></g></svg>