<svg xmlns="http://www.w3.org/2000/svg" xmlns:xlink="http://www.w3.org/1999/xlink" width="500" zoomAndPan="magnify" viewBox="0 0 375 374.999991" height="500" preserveAspectRatio="xMidYMid meet" version="1.0"><defs><clipPath id="3f67c56333"><path d="M 245 37.5 L 336 37.5 L 336 167 L 245 167 Z M 245 37.5 " clip-rule="nonzero"/></clipPath></defs><rect x="-37.5" width="450" fill="#ffffff" y="-37.499999" height="449.999989" fill-opacity="1"/><rect x="-37.5" width="450" fill="#1a2026" y="-37.499999" height="449.999989" fill-opacity="1"/><path fill="#207cc2" d="M 311.105469 261.597656 C 311.945312 260.898438 312.75 260.15625 313.515625 259.371094 C 314.28125 258.589844 315.007812 257.769531 315.6875 256.914062 C 316.371094 256.058594 317.007812 255.167969 317.597656 254.246094 C 318.191406 253.324219 318.734375 252.375 319.226562 251.398438 C 319.722656 250.421875 320.164062 249.421875 320.558594 248.398438 C 320.949219 247.378906 321.289062 246.335938 321.578125 245.28125 C 321.863281 244.222656 322.09375 243.15625 322.273438 242.074219 C 322.449219 240.992188 322.570312 239.90625 322.636719 238.8125 C 322.703125 237.722656 322.714844 236.628906 322.667969 235.535156 C 322.625 234.4375 322.523438 233.351562 322.367188 232.265625 C 322.210938 231.183594 322 230.109375 321.734375 229.046875 C 321.46875 227.984375 321.148438 226.9375 320.777344 225.910156 C 320.402344 224.878906 319.980469 223.871094 319.503906 222.886719 C 319.027344 221.898438 318.503906 220.9375 317.929688 220.007812 C 317.359375 219.074219 316.738281 218.171875 316.074219 217.300781 C 315.40625 216.433594 314.699219 215.597656 313.949219 214.800781 C 313.199219 214.003906 312.410156 213.246094 311.582031 212.53125 C 310.753906 211.8125 309.890625 211.140625 308.996094 210.511719 C 308.097656 209.882812 307.171875 209.300781 306.21875 208.765625 C 305.261719 208.230469 304.28125 207.746094 303.277344 207.3125 C 302.269531 206.878906 301.246094 206.496094 300.203125 206.167969 C 299.15625 205.835938 298.097656 205.5625 297.027344 205.339844 C 295.953125 205.117188 294.875 204.949219 293.785156 204.839844 C 292.695312 204.726562 291.601562 204.671875 290.507812 204.671875 C 289.414062 204.671875 288.320312 204.726562 287.230469 204.839844 C 286.140625 204.949219 285.0625 205.117188 283.988281 205.339844 C 282.917969 205.5625 281.859375 205.835938 280.8125 206.167969 C 279.769531 206.496094 278.746094 206.878906 277.738281 207.3125 C 276.734375 207.746094 275.753906 208.230469 274.796875 208.765625 C 273.84375 209.300781 272.917969 209.882812 272.019531 210.511719 C 271.125 211.140625 270.261719 211.8125 269.433594 212.53125 C 268.605469 213.246094 267.816406 214.003906 267.066406 214.800781 C 266.316406 215.597656 265.609375 216.433594 264.941406 217.300781 C 264.277344 218.171875 263.660156 219.074219 263.085938 220.007812 C 262.511719 220.9375 261.988281 221.898438 261.511719 222.886719 C 261.035156 223.871094 260.613281 224.878906 260.238281 225.910156 C 259.867188 226.9375 259.546875 227.984375 259.28125 229.046875 C 259.015625 230.109375 258.804688 231.183594 258.648438 232.265625 C 258.492188 233.351562 258.390625 234.4375 258.347656 235.535156 C 258.300781 236.628906 258.3125 237.722656 258.378906 238.8125 C 258.445312 239.90625 258.566406 240.992188 258.746094 242.074219 C 258.921875 243.15625 259.152344 244.222656 259.441406 245.28125 C 259.726562 246.335938 260.066406 247.378906 260.457031 248.398438 C 260.851562 249.421875 261.292969 250.421875 261.789062 251.398438 C 262.285156 252.375 262.828125 253.324219 263.417969 254.246094 C 264.007812 255.167969 264.644531 256.058594 265.328125 256.914062 C 266.011719 257.769531 266.734375 258.589844 267.5 259.371094 C 268.265625 260.15625 269.070312 260.898438 269.910156 261.597656 C 268.082031 262.53125 266.328125 263.585938 264.644531 264.761719 C 262.964844 265.9375 261.367188 267.222656 259.863281 268.617188 C 258.355469 270.007812 256.949219 271.5 255.648438 273.085938 C 254.34375 274.671875 253.15625 276.339844 252.082031 278.089844 C 251.007812 279.835938 250.058594 281.652344 249.234375 283.53125 C 248.410156 285.410156 247.714844 287.335938 247.152344 289.3125 C 246.59375 291.285156 246.167969 293.289062 245.882812 295.320312 C 245.59375 297.355469 245.445312 299.394531 245.441406 301.449219 L 245.441406 316.769531 C 245.441406 317.332031 245.511719 317.878906 245.65625 318.421875 C 245.796875 318.960938 246.007812 319.476562 246.285156 319.960938 C 246.5625 320.449219 246.898438 320.890625 247.289062 321.289062 C 247.683594 321.6875 248.121094 322.03125 248.601562 322.316406 C 251.769531 324.160156 255.042969 325.789062 258.421875 327.203125 C 261.804688 328.613281 265.265625 329.796875 268.800781 330.753906 C 272.339844 331.707031 275.925781 332.425781 279.558594 332.910156 C 283.191406 333.390625 286.839844 333.632812 290.503906 333.632812 C 294.167969 333.632812 297.816406 333.390625 301.449219 332.910156 C 305.082031 332.425781 308.667969 331.707031 312.207031 330.753906 C 315.742188 329.796875 319.203125 328.613281 322.585938 327.203125 C 325.964844 325.789062 329.238281 324.160156 332.40625 322.316406 C 332.886719 322.03125 333.324219 321.6875 333.71875 321.289062 C 334.109375 320.890625 334.445312 320.449219 334.722656 319.960938 C 335 319.476562 335.210938 318.960938 335.355469 318.421875 C 335.496094 317.878906 335.570312 317.332031 335.570312 316.769531 L 335.570312 301.449219 C 335.585938 299.390625 335.460938 297.34375 335.191406 295.304688 C 334.921875 293.265625 334.511719 291.253906 333.960938 289.273438 C 333.410156 287.289062 332.726562 285.355469 331.902344 283.46875 C 331.082031 281.582031 330.132812 279.765625 329.058594 278.011719 C 327.980469 276.257812 326.789062 274.589844 325.476562 273.003906 C 324.167969 271.417969 322.753906 269.929688 321.234375 268.542969 C 319.71875 267.152344 318.109375 265.878906 316.414062 264.714844 C 314.71875 263.550781 312.949219 262.511719 311.105469 261.597656 Z M 290.503906 217.757812 C 291.136719 217.757812 291.769531 217.789062 292.398438 217.851562 C 293.027344 217.914062 293.652344 218.003906 294.273438 218.128906 C 294.890625 218.253906 295.503906 218.40625 296.109375 218.589844 C 296.714844 218.773438 297.3125 218.984375 297.894531 219.226562 C 298.480469 219.46875 299.050781 219.738281 299.609375 220.039062 C 300.167969 220.335938 300.707031 220.660156 301.234375 221.011719 C 301.761719 221.363281 302.265625 221.738281 302.757812 222.140625 C 303.246094 222.542969 303.714844 222.96875 304.160156 223.414062 C 304.609375 223.863281 305.03125 224.328125 305.433594 224.820312 C 305.835938 225.308594 306.210938 225.816406 306.5625 226.339844 C 306.914062 226.867188 307.238281 227.410156 307.535156 227.964844 C 307.835938 228.523438 308.105469 229.09375 308.347656 229.679688 C 308.589844 230.265625 308.800781 230.859375 308.984375 231.464844 C 309.167969 232.070312 309.324219 232.683594 309.445312 233.304688 C 309.570312 233.921875 309.664062 234.546875 309.726562 235.179688 C 309.785156 235.808594 309.816406 236.4375 309.816406 237.070312 C 309.816406 237.703125 309.785156 238.335938 309.722656 238.964844 C 309.664062 239.59375 309.570312 240.21875 309.445312 240.839844 C 309.324219 241.460938 309.167969 242.070312 308.984375 242.675781 C 308.800781 243.28125 308.589844 243.878906 308.347656 244.460938 C 308.105469 245.046875 307.835938 245.617188 307.535156 246.175781 C 307.238281 246.734375 306.914062 247.273438 306.5625 247.800781 C 306.210938 248.328125 305.835938 248.835938 305.433594 249.324219 C 305.03125 249.8125 304.609375 250.28125 304.160156 250.726562 C 303.714844 251.175781 303.246094 251.597656 302.757812 252 C 302.265625 252.402344 301.761719 252.777344 301.234375 253.128906 C 300.707031 253.480469 300.167969 253.804688 299.609375 254.105469 C 299.050781 254.402344 298.480469 254.671875 297.894531 254.914062 C 297.3125 255.15625 296.714844 255.367188 296.109375 255.550781 C 295.503906 255.734375 294.890625 255.890625 294.273438 256.011719 C 293.652344 256.136719 293.027344 256.230469 292.398438 256.292969 C 291.769531 256.351562 291.136719 256.382812 290.503906 256.382812 C 289.871094 256.382812 289.242188 256.351562 288.609375 256.292969 C 287.980469 256.230469 287.355469 256.136719 286.738281 256.011719 C 286.117188 255.890625 285.503906 255.734375 284.898438 255.550781 C 284.292969 255.367188 283.699219 255.15625 283.113281 254.914062 C 282.527344 254.671875 281.957031 254.402344 281.398438 254.105469 C 280.84375 253.804688 280.300781 253.480469 279.773438 253.128906 C 279.25 252.777344 278.742188 252.402344 278.253906 252 C 277.761719 251.597656 277.296875 251.175781 276.847656 250.726562 C 276.402344 250.28125 275.976562 249.8125 275.574219 249.324219 C 275.171875 248.835938 274.796875 248.328125 274.445312 247.800781 C 274.09375 247.273438 273.769531 246.734375 273.472656 246.175781 C 273.171875 245.617188 272.902344 245.046875 272.660156 244.460938 C 272.417969 243.878906 272.207031 243.28125 272.023438 242.675781 C 271.839844 242.070312 271.683594 241.460938 271.5625 240.839844 C 271.4375 240.21875 271.347656 239.59375 271.285156 238.964844 C 271.222656 238.335938 271.191406 237.703125 271.191406 237.070312 C 271.191406 236.4375 271.222656 235.808594 271.285156 235.179688 C 271.347656 234.550781 271.441406 233.925781 271.566406 233.304688 C 271.691406 232.683594 271.84375 232.070312 272.027344 231.46875 C 272.210938 230.863281 272.425781 230.265625 272.667969 229.683594 C 272.910156 229.097656 273.179688 228.527344 273.476562 227.972656 C 273.777344 227.414062 274.101562 226.871094 274.453125 226.347656 C 274.804688 225.820312 275.179688 225.3125 275.582031 224.824219 C 275.984375 224.335938 276.40625 223.867188 276.855469 223.421875 C 277.300781 222.972656 277.769531 222.550781 278.257812 222.148438 C 278.746094 221.746094 279.253906 221.371094 279.78125 221.019531 C 280.304688 220.667969 280.847656 220.34375 281.40625 220.042969 C 281.960938 219.746094 282.53125 219.476562 283.117188 219.234375 C 283.699219 218.992188 284.296875 218.777344 284.898438 218.59375 C 285.503906 218.410156 286.117188 218.257812 286.738281 218.132812 C 287.359375 218.007812 287.984375 217.914062 288.613281 217.851562 C 289.242188 217.789062 289.871094 217.757812 290.503906 217.757812 Z M 322.691406 312.992188 C 320.210938 314.257812 317.660156 315.375 315.046875 316.339844 C 312.429688 317.304688 309.765625 318.113281 307.058594 318.765625 C 304.347656 319.414062 301.605469 319.90625 298.839844 320.234375 C 296.070312 320.558594 293.292969 320.722656 290.503906 320.722656 C 287.714844 320.722656 284.9375 320.5625 282.171875 320.234375 C 279.402344 319.90625 276.664062 319.414062 273.953125 318.765625 C 271.242188 318.113281 268.578125 317.304688 265.964844 316.339844 C 263.347656 315.375 260.800781 314.257812 258.316406 312.992188 L 258.316406 301.449219 C 258.316406 300.394531 258.367188 299.34375 258.46875 298.292969 C 258.574219 297.246094 258.726562 296.203125 258.933594 295.167969 C 259.140625 294.136719 259.394531 293.113281 259.703125 292.105469 C 260.007812 291.097656 260.363281 290.105469 260.765625 289.128906 C 261.167969 288.15625 261.621094 287.203125 262.117188 286.273438 C 262.613281 285.34375 263.15625 284.441406 263.738281 283.566406 C 264.324219 282.6875 264.953125 281.84375 265.621094 281.027344 C 266.289062 280.214844 266.996094 279.433594 267.742188 278.6875 C 268.488281 277.941406 269.269531 277.234375 270.082031 276.566406 C 270.898438 275.898438 271.746094 275.269531 272.621094 274.683594 C 273.496094 274.097656 274.402344 273.558594 275.332031 273.058594 C 276.261719 272.5625 277.210938 272.113281 278.1875 271.710938 C 279.160156 271.304688 280.152344 270.953125 281.160156 270.644531 C 282.167969 270.339844 283.191406 270.082031 284.222656 269.878906 C 285.257812 269.671875 286.300781 269.519531 287.347656 269.414062 C 288.398438 269.3125 289.449219 269.257812 290.503906 269.257812 C 291.558594 269.257812 292.609375 269.3125 293.660156 269.414062 C 294.707031 269.519531 295.75 269.671875 296.785156 269.878906 C 297.816406 270.082031 298.839844 270.339844 299.847656 270.644531 C 300.855469 270.953125 301.847656 271.304688 302.824219 271.710938 C 303.796875 272.113281 304.75 272.5625 305.679688 273.058594 C 306.609375 273.558594 307.511719 274.097656 308.386719 274.683594 C 309.265625 275.269531 310.109375 275.898438 310.925781 276.566406 C 311.738281 277.234375 312.519531 277.941406 313.265625 278.6875 C 314.011719 279.433594 314.71875 280.214844 315.386719 281.027344 C 316.054688 281.84375 316.683594 282.6875 317.269531 283.566406 C 317.855469 284.441406 318.394531 285.34375 318.890625 286.273438 C 319.390625 287.203125 319.839844 288.15625 320.242188 289.128906 C 320.644531 290.105469 321 291.097656 321.308594 292.105469 C 321.613281 293.113281 321.867188 294.136719 322.074219 295.167969 C 322.28125 296.203125 322.433594 297.246094 322.539062 298.292969 C 322.640625 299.34375 322.691406 300.394531 322.691406 301.449219 Z M 322.691406 312.992188 " fill-opacity="1" fill-rule="nonzero"/><g clip-path="url(#3f67c56333)"><path fill="#207cc2" d="M 311.105469 94.214844 C 311.945312 93.515625 312.75 92.773438 313.515625 91.992188 C 314.28125 91.207031 315.007812 90.386719 315.6875 89.53125 C 316.371094 88.675781 317.007812 87.785156 317.597656 86.863281 C 318.191406 85.941406 318.734375 84.992188 319.226562 84.015625 C 319.722656 83.039062 320.164062 82.039062 320.558594 81.015625 C 320.949219 79.996094 321.289062 78.957031 321.578125 77.898438 C 321.863281 76.839844 322.09375 75.773438 322.273438 74.691406 C 322.449219 73.613281 322.570312 72.523438 322.636719 71.433594 C 322.703125 70.339844 322.714844 69.246094 322.667969 68.152344 C 322.625 67.058594 322.523438 65.96875 322.367188 64.882812 C 322.210938 63.800781 322 62.726562 321.734375 61.664062 C 321.46875 60.601562 321.148438 59.558594 320.777344 58.527344 C 320.402344 57.496094 319.980469 56.488281 319.503906 55.503906 C 319.027344 54.515625 318.503906 53.558594 317.929688 52.625 C 317.359375 51.691406 316.738281 50.789062 316.074219 49.921875 C 315.40625 49.050781 314.699219 48.21875 313.949219 47.417969 C 313.199219 46.621094 312.410156 45.863281 311.582031 45.148438 C 310.753906 44.429688 309.890625 43.757812 308.996094 43.128906 C 308.097656 42.5 307.171875 41.917969 306.21875 41.382812 C 305.261719 40.851562 304.28125 40.363281 303.277344 39.929688 C 302.269531 39.496094 301.246094 39.113281 300.203125 38.785156 C 299.15625 38.453125 298.097656 38.179688 297.027344 37.957031 C 295.953125 37.734375 294.875 37.570312 293.785156 37.457031 C 292.695312 37.347656 291.601562 37.289062 290.507812 37.289062 C 289.414062 37.289062 288.320312 37.347656 287.230469 37.457031 C 286.140625 37.570312 285.0625 37.734375 283.988281 37.957031 C 282.917969 38.179688 281.859375 38.453125 280.8125 38.785156 C 279.769531 39.113281 278.746094 39.496094 277.738281 39.929688 C 276.734375 40.367188 275.753906 40.851562 274.796875 41.382812 C 273.84375 41.917969 272.917969 42.5 272.019531 43.128906 C 271.125 43.757812 270.261719 44.429688 269.433594 45.148438 C 268.605469 45.863281 267.816406 46.621094 267.066406 47.417969 C 266.316406 48.21875 265.609375 49.050781 264.941406 49.921875 C 264.277344 50.789062 263.660156 51.691406 263.085938 52.625 C 262.511719 53.558594 261.988281 54.515625 261.511719 55.503906 C 261.035156 56.488281 260.613281 57.496094 260.238281 58.527344 C 259.867188 59.558594 259.546875 60.601562 259.28125 61.664062 C 259.015625 62.726562 258.804688 63.800781 258.648438 64.882812 C 258.492188 65.96875 258.390625 67.058594 258.347656 68.152344 C 258.300781 69.246094 258.3125 70.339844 258.378906 71.433594 C 258.445312 72.523438 258.566406 73.613281 258.746094 74.691406 C 258.921875 75.773438 259.152344 76.839844 259.441406 77.898438 C 259.726562 78.957031 260.066406 79.996094 260.457031 81.015625 C 260.851562 82.039062 261.292969 83.039062 261.789062 84.015625 C 262.285156 84.992188 262.828125 85.941406 263.417969 86.863281 C 264.007812 87.785156 264.644531 88.675781 265.328125 89.53125 C 266.011719 90.386719 266.734375 91.207031 267.5 91.992188 C 268.265625 92.773438 269.070312 93.515625 269.910156 94.214844 C 268.082031 95.148438 266.328125 96.207031 264.644531 97.378906 C 262.964844 98.554688 261.367188 99.839844 259.863281 101.234375 C 258.355469 102.628906 256.949219 104.117188 255.648438 105.703125 C 254.34375 107.289062 253.15625 108.957031 252.082031 110.707031 C 251.007812 112.457031 250.058594 114.269531 249.234375 116.148438 C 248.410156 118.027344 247.714844 119.957031 247.152344 121.929688 C 246.59375 123.902344 246.167969 125.90625 245.882812 127.9375 C 245.59375 129.972656 245.445312 132.015625 245.441406 134.066406 L 245.441406 149.386719 C 245.441406 149.949219 245.511719 150.5 245.65625 151.039062 C 245.796875 151.582031 246.007812 152.09375 246.285156 152.582031 C 246.5625 153.066406 246.898438 153.507812 247.289062 153.910156 C 247.683594 154.308594 248.121094 154.648438 248.601562 154.933594 C 251.769531 156.777344 255.042969 158.40625 258.421875 159.820312 C 261.804688 161.230469 265.265625 162.414062 268.800781 163.371094 C 272.339844 164.328125 275.925781 165.046875 279.558594 165.527344 C 283.191406 166.007812 286.839844 166.25 290.503906 166.25 C 294.167969 166.25 297.816406 166.007812 301.449219 165.527344 C 305.082031 165.046875 308.667969 164.328125 312.207031 163.371094 C 315.742188 162.414062 319.203125 161.230469 322.585938 159.820312 C 325.964844 158.40625 329.238281 156.777344 332.40625 154.933594 C 332.886719 154.648438 333.324219 154.308594 333.71875 153.910156 C 334.109375 153.507812 334.445312 153.066406 334.722656 152.582031 C 335 152.09375 335.210938 151.582031 335.355469 151.039062 C 335.496094 150.5 335.570312 149.949219 335.570312 149.386719 L 335.570312 134.066406 C 335.585938 132.007812 335.460938 129.960938 335.191406 127.921875 C 334.921875 125.882812 334.511719 123.871094 333.960938 121.890625 C 333.410156 119.90625 332.726562 117.972656 331.902344 116.085938 C 331.082031 114.203125 330.132812 112.382812 329.058594 110.628906 C 327.980469 108.875 326.789062 107.207031 325.476562 105.621094 C 324.167969 104.035156 322.753906 102.546875 321.234375 101.160156 C 319.71875 99.769531 318.109375 98.496094 316.414062 97.332031 C 314.71875 96.167969 312.949219 95.128906 311.105469 94.214844 Z M 290.503906 50.375 C 291.136719 50.375 291.769531 50.40625 292.398438 50.46875 C 293.027344 50.53125 293.652344 50.625 294.273438 50.746094 C 294.890625 50.871094 295.503906 51.023438 296.109375 51.207031 C 296.714844 51.390625 297.3125 51.605469 297.894531 51.84375 C 298.480469 52.085938 299.050781 52.359375 299.609375 52.65625 C 300.167969 52.953125 300.707031 53.277344 301.234375 53.628906 C 301.761719 53.980469 302.265625 54.359375 302.757812 54.757812 C 303.246094 55.160156 303.714844 55.585938 304.160156 56.03125 C 304.609375 56.480469 305.03125 56.949219 305.433594 57.4375 C 305.835938 57.925781 306.210938 58.433594 306.5625 58.957031 C 306.914062 59.484375 307.238281 60.027344 307.535156 60.585938 C 307.835938 61.140625 308.105469 61.714844 308.347656 62.296875 C 308.589844 62.882812 308.800781 63.476562 308.984375 64.082031 C 309.167969 64.6875 309.324219 65.300781 309.445312 65.921875 C 309.570312 66.542969 309.664062 67.167969 309.726562 67.796875 C 309.785156 68.425781 309.816406 69.054688 309.816406 69.6875 C 309.816406 70.320312 309.785156 70.953125 309.722656 71.582031 C 309.664062 72.210938 309.570312 72.835938 309.445312 73.457031 C 309.324219 74.078125 309.167969 74.691406 308.984375 75.296875 C 308.800781 75.902344 308.589844 76.496094 308.347656 77.078125 C 308.105469 77.664062 307.835938 78.234375 307.535156 78.792969 C 307.238281 79.351562 306.914062 79.894531 306.5625 80.417969 C 306.210938 80.945312 305.835938 81.453125 305.433594 81.941406 C 305.03125 82.429688 304.609375 82.898438 304.160156 83.34375 C 303.714844 83.792969 303.246094 84.21875 302.757812 84.617188 C 302.265625 85.019531 301.761719 85.394531 301.234375 85.746094 C 300.707031 86.097656 300.167969 86.421875 299.609375 86.722656 C 299.050781 87.019531 298.480469 87.289062 297.894531 87.53125 C 297.3125 87.773438 296.714844 87.988281 296.109375 88.171875 C 295.503906 88.355469 294.890625 88.507812 294.273438 88.632812 C 293.652344 88.753906 293.027344 88.847656 292.398438 88.910156 C 291.769531 88.972656 291.136719 89.003906 290.503906 89.003906 C 289.871094 89.003906 289.242188 88.972656 288.609375 88.910156 C 287.980469 88.847656 287.355469 88.753906 286.738281 88.632812 C 286.117188 88.507812 285.503906 88.355469 284.898438 88.171875 C 284.292969 87.988281 283.699219 87.773438 283.113281 87.53125 C 282.527344 87.289062 281.957031 87.019531 281.398438 86.722656 C 280.84375 86.421875 280.300781 86.097656 279.773438 85.746094 C 279.25 85.394531 278.742188 85.019531 278.253906 84.617188 C 277.761719 84.21875 277.296875 83.792969 276.847656 83.34375 C 276.402344 82.898438 275.976562 82.429688 275.574219 81.941406 C 275.171875 81.453125 274.796875 80.945312 274.445312 80.417969 C 274.09375 79.894531 273.769531 79.351562 273.472656 78.792969 C 273.171875 78.234375 272.902344 77.664062 272.660156 77.078125 C 272.417969 76.496094 272.207031 75.902344 272.023438 75.296875 C 271.839844 74.691406 271.683594 74.078125 271.5625 73.457031 C 271.4375 72.835938 271.347656 72.210938 271.285156 71.582031 C 271.222656 70.953125 271.191406 70.320312 271.191406 69.6875 C 271.191406 69.054688 271.222656 68.425781 271.285156 67.796875 C 271.347656 67.167969 271.441406 66.542969 271.566406 65.921875 C 271.691406 65.300781 271.84375 64.691406 272.027344 64.085938 C 272.210938 63.480469 272.425781 62.886719 272.667969 62.300781 C 272.910156 61.71875 273.179688 61.144531 273.476562 60.589844 C 273.777344 60.03125 274.101562 59.488281 274.453125 58.964844 C 274.804688 58.4375 275.179688 57.929688 275.582031 57.441406 C 275.984375 56.953125 276.40625 56.484375 276.855469 56.039062 C 277.300781 55.589844 277.769531 55.167969 278.257812 54.765625 C 278.746094 54.363281 279.253906 53.988281 279.78125 53.636719 C 280.304688 53.285156 280.847656 52.960938 281.40625 52.664062 C 281.960938 52.363281 282.53125 52.09375 283.117188 51.851562 C 283.699219 51.609375 284.296875 51.394531 284.898438 51.210938 C 285.503906 51.027344 286.117188 50.875 286.738281 50.75 C 287.359375 50.625 287.984375 50.53125 288.613281 50.46875 C 289.242188 50.40625 289.871094 50.375 290.503906 50.375 Z M 322.691406 145.609375 C 320.210938 146.875 317.660156 147.992188 315.046875 148.957031 C 312.429688 149.921875 309.765625 150.730469 307.058594 151.382812 C 304.347656 152.035156 301.605469 152.523438 298.839844 152.851562 C 296.070312 153.179688 293.292969 153.34375 290.503906 153.34375 C 287.714844 153.34375 284.9375 153.179688 282.171875 152.851562 C 279.402344 152.523438 276.664062 152.035156 273.953125 151.382812 C 271.242188 150.730469 268.578125 149.921875 265.964844 148.957031 C 263.347656 147.992188 260.800781 146.875 258.316406 145.609375 L 258.316406 134.066406 C 258.316406 133.011719 258.367188 131.960938 258.46875 130.910156 C 258.574219 129.863281 258.726562 128.820312 258.933594 127.785156 C 259.140625 126.753906 259.394531 125.730469 259.703125 124.722656 C 260.007812 123.714844 260.363281 122.722656 260.765625 121.75 C 261.167969 120.773438 261.621094 119.824219 262.117188 118.894531 C 262.613281 117.964844 263.15625 117.058594 263.738281 116.183594 C 264.324219 115.308594 264.953125 114.460938 265.621094 113.644531 C 266.289062 112.832031 266.996094 112.050781 267.742188 111.304688 C 268.488281 110.558594 269.269531 109.851562 270.082031 109.183594 C 270.898438 108.515625 271.746094 107.886719 272.621094 107.300781 C 273.496094 106.714844 274.402344 106.175781 275.332031 105.679688 C 276.261719 105.179688 277.210938 104.730469 278.1875 104.328125 C 279.160156 103.925781 280.152344 103.570312 281.160156 103.265625 C 282.167969 102.957031 283.191406 102.703125 284.222656 102.496094 C 285.257812 102.289062 286.300781 102.136719 287.347656 102.03125 C 288.398438 101.929688 289.449219 101.878906 290.503906 101.878906 C 291.558594 101.878906 292.609375 101.929688 293.660156 102.03125 C 294.707031 102.136719 295.75 102.289062 296.785156 102.496094 C 297.816406 102.703125 298.839844 102.957031 299.847656 103.265625 C 300.855469 103.570312 301.847656 103.925781 302.824219 104.328125 C 303.796875 104.730469 304.75 105.179688 305.679688 105.679688 C 306.609375 106.175781 307.511719 106.714844 308.386719 107.300781 C 309.265625 107.886719 310.109375 108.515625 310.925781 109.183594 C 311.738281 109.851562 312.519531 110.558594 313.265625 111.304688 C 314.011719 112.050781 314.71875 112.832031 315.386719 113.644531 C 316.054688 114.460938 316.683594 115.308594 317.269531 116.183594 C 317.855469 117.058594 318.394531 117.964844 318.890625 118.894531 C 319.390625 119.824219 319.839844 120.773438 320.242188 121.75 C 320.644531 122.722656 321 123.714844 321.308594 124.722656 C 321.613281 125.730469 321.867188 126.753906 322.074219 127.785156 C 322.28125 128.820312 322.433594 129.863281 322.539062 130.910156 C 322.640625 131.960938 322.691406 133.011719 322.691406 134.066406 Z M 322.691406 145.609375 " fill-opacity="1" fill-rule="nonzero"/></g><path fill="#207cc2" d="M 97.371094 269.257812 C 102.164062 269.273438 106.933594 268.96875 111.6875 268.34375 C 116.4375 267.71875 121.125 266.78125 125.753906 265.53125 C 130.378906 264.28125 134.902344 262.730469 139.320312 260.878906 C 143.738281 259.023438 148.015625 256.886719 152.148438 254.460938 C 152.628906 254.175781 153.066406 253.835938 153.460938 253.433594 C 153.851562 253.035156 154.1875 252.59375 154.464844 252.109375 C 154.742188 251.621094 154.953125 251.109375 155.097656 250.566406 C 155.238281 250.027344 155.3125 249.476562 155.3125 248.917969 L 155.3125 228.484375 C 155.316406 225.703125 155.121094 222.941406 154.726562 220.191406 C 154.332031 217.4375 153.742188 214.730469 152.953125 212.066406 C 152.167969 209.402344 151.191406 206.808594 150.027344 204.285156 C 148.867188 201.761719 147.527344 199.335938 146.011719 197.003906 C 144.496094 194.675781 142.824219 192.46875 140.988281 190.382812 C 139.15625 188.292969 137.179688 186.351562 135.0625 184.550781 C 132.945312 182.75 130.710938 181.109375 128.359375 179.632812 C 126.003906 178.15625 123.558594 176.855469 121.015625 175.734375 C 122.179688 174.90625 123.300781 174.015625 124.371094 173.070312 C 125.441406 172.125 126.460938 171.125 127.425781 170.070312 C 128.394531 169.015625 129.300781 167.914062 130.152344 166.765625 C 131 165.613281 131.789062 164.421875 132.515625 163.191406 C 133.238281 161.957031 133.898438 160.691406 134.488281 159.390625 C 135.082031 158.089844 135.601562 156.757812 136.054688 155.402344 C 136.507812 154.046875 136.886719 152.667969 137.191406 151.273438 C 137.5 149.875 137.734375 148.46875 137.890625 147.046875 C 138.050781 145.625 138.132812 144.199219 138.144531 142.769531 C 138.152344 141.339844 138.085938 139.914062 137.945312 138.492188 C 137.804688 137.070312 137.589844 135.65625 137.296875 134.257812 C 137.007812 132.855469 136.644531 131.476562 136.210938 130.113281 C 135.777344 128.75 135.269531 127.417969 134.695312 126.105469 C 134.121094 124.796875 133.476562 123.523438 132.769531 122.28125 C 132.058594 121.039062 131.285156 119.839844 130.449219 118.679688 C 129.613281 117.519531 128.71875 116.40625 127.765625 115.339844 C 126.8125 114.277344 125.804688 113.261719 124.746094 112.300781 C 123.6875 111.34375 122.578125 110.441406 121.425781 109.597656 C 120.269531 108.753906 119.074219 107.972656 117.839844 107.253906 C 116.601562 106.539062 115.332031 105.886719 114.027344 105.304688 C 112.722656 104.71875 111.390625 104.203125 110.03125 103.761719 C 108.671875 103.316406 107.292969 102.945312 105.894531 102.648438 C 104.496094 102.347656 103.085938 102.125 101.664062 101.972656 C 100.242188 101.824219 98.816406 101.746094 97.386719 101.746094 C 95.957031 101.746094 94.53125 101.820312 93.109375 101.96875 C 91.6875 102.121094 90.277344 102.34375 88.878906 102.640625 C 87.480469 102.9375 86.101562 103.308594 84.742188 103.753906 C 83.382812 104.195312 82.046875 104.707031 80.742188 105.292969 C 79.4375 105.875 78.167969 106.523438 76.929688 107.242188 C 75.691406 107.960938 74.496094 108.738281 73.339844 109.582031 C 72.1875 110.425781 71.078125 111.324219 70.019531 112.285156 C 68.957031 113.242188 67.949219 114.257812 66.996094 115.320312 C 66.042969 116.386719 65.148438 117.5 64.3125 118.660156 C 63.472656 119.816406 62.699219 121.019531 61.992188 122.257812 C 61.28125 123.5 60.636719 124.773438 60.058594 126.082031 C 59.484375 127.390625 58.976562 128.726562 58.542969 130.089844 C 58.105469 131.449219 57.742188 132.832031 57.453125 134.230469 C 57.160156 135.632812 56.945312 137.042969 56.800781 138.464844 C 56.660156 139.886719 56.59375 141.3125 56.601562 142.742188 C 56.609375 144.175781 56.691406 145.597656 56.851562 147.019531 C 57.007812 148.441406 57.238281 149.851562 57.546875 151.246094 C 57.851562 152.644531 58.230469 154.019531 58.683594 155.378906 C 59.132812 156.734375 59.652344 158.0625 60.246094 159.367188 C 60.835938 160.667969 61.492188 161.933594 62.21875 163.167969 C 62.941406 164.402344 63.726562 165.59375 64.578125 166.742188 C 65.425781 167.894531 66.335938 168.996094 67.300781 170.050781 C 68.265625 171.105469 69.285156 172.105469 70.355469 173.054688 C 71.425781 174 72.542969 174.890625 73.707031 175.71875 C 71.171875 176.851562 68.734375 178.160156 66.386719 179.644531 C 64.042969 181.128906 61.8125 182.773438 59.703125 184.578125 C 57.59375 186.382812 55.625 188.332031 53.796875 190.417969 C 51.964844 192.507812 50.292969 194.714844 48.78125 197.042969 C 47.269531 199.371094 45.929688 201.792969 44.769531 204.316406 C 43.605469 206.835938 42.625 209.425781 41.835938 212.085938 C 41.042969 214.746094 40.445312 217.453125 40.042969 220.199219 C 39.640625 222.945312 39.4375 225.707031 39.429688 228.484375 L 39.429688 248.917969 C 39.429688 249.476562 39.503906 250.027344 39.644531 250.566406 C 39.789062 251.109375 40 251.621094 40.277344 252.109375 C 40.554688 252.59375 40.890625 253.039062 41.28125 253.4375 C 41.675781 253.835938 42.113281 254.175781 42.59375 254.460938 C 46.726562 256.886719 51.003906 259.023438 55.421875 260.878906 C 59.839844 262.730469 64.363281 264.285156 68.992188 265.535156 C 73.617188 266.78125 78.304688 267.71875 83.054688 268.34375 C 87.808594 268.96875 92.578125 269.273438 97.371094 269.257812 Z M 69.476562 142.65625 C 69.476562 141.742188 69.519531 140.828125 69.609375 139.921875 C 69.699219 139.011719 69.832031 138.109375 70.011719 137.210938 C 70.1875 136.316406 70.410156 135.429688 70.675781 134.554688 C 70.941406 133.683594 71.25 132.824219 71.597656 131.980469 C 71.945312 131.132812 72.335938 130.308594 72.765625 129.503906 C 73.199219 128.699219 73.667969 127.914062 74.175781 127.15625 C 74.683594 126.394531 75.226562 125.664062 75.804688 124.957031 C 76.382812 124.25 76.996094 123.574219 77.644531 122.925781 C 78.289062 122.28125 78.964844 121.667969 79.671875 121.089844 C 80.378906 120.507812 81.109375 119.964844 81.871094 119.457031 C 82.628906 118.949219 83.410156 118.480469 84.21875 118.050781 C 85.023438 117.617188 85.847656 117.226562 86.691406 116.878906 C 87.535156 116.527344 88.394531 116.222656 89.269531 115.957031 C 90.144531 115.691406 91.027344 115.46875 91.925781 115.289062 C 92.820312 115.113281 93.722656 114.976562 94.632812 114.886719 C 95.542969 114.796875 96.453125 114.753906 97.367188 114.753906 C 98.28125 114.753906 99.191406 114.796875 100.101562 114.886719 C 101.011719 114.976562 101.914062 115.109375 102.808594 115.289062 C 103.707031 115.464844 104.589844 115.6875 105.464844 115.953125 C 106.339844 116.21875 107.199219 116.527344 108.042969 116.875 C 108.886719 117.226562 109.710938 117.613281 110.519531 118.046875 C 111.324219 118.476562 112.105469 118.945312 112.867188 119.453125 C 113.625 119.960938 114.359375 120.503906 115.066406 121.082031 C 115.769531 121.664062 116.449219 122.273438 117.09375 122.921875 C 117.738281 123.566406 118.351562 124.242188 118.933594 124.949219 C 119.511719 125.65625 120.054688 126.386719 120.5625 127.148438 C 121.070312 127.90625 121.539062 128.691406 121.972656 129.496094 C 122.402344 130.300781 122.792969 131.125 123.140625 131.972656 C 123.492188 132.816406 123.800781 133.675781 124.0625 134.546875 C 124.328125 135.421875 124.550781 136.308594 124.730469 137.203125 C 124.90625 138.101562 125.042969 139.003906 125.132812 139.910156 C 125.222656 140.820312 125.265625 141.730469 125.265625 142.644531 C 125.265625 143.558594 125.222656 144.472656 125.132812 145.378906 C 125.042969 146.289062 124.910156 147.191406 124.730469 148.089844 C 124.550781 148.984375 124.332031 149.871094 124.066406 150.742188 C 123.800781 151.617188 123.492188 152.476562 123.144531 153.320312 C 122.792969 154.164062 122.402344 154.992188 121.972656 155.796875 C 121.542969 156.601562 121.074219 157.386719 120.566406 158.144531 C 120.058594 158.902344 119.515625 159.636719 118.933594 160.34375 C 118.355469 161.050781 117.742188 161.726562 117.097656 162.371094 C 116.449219 163.019531 115.773438 163.628906 115.066406 164.210938 C 114.363281 164.789062 113.628906 165.332031 112.871094 165.839844 C 112.109375 166.347656 111.328125 166.816406 110.519531 167.25 C 109.714844 167.679688 108.890625 168.070312 108.046875 168.417969 C 107.203125 168.769531 106.34375 169.078125 105.46875 169.339844 C 104.59375 169.605469 103.710938 169.828125 102.8125 170.007812 C 101.917969 170.183594 101.015625 170.320312 100.105469 170.410156 C 99.195312 170.5 98.285156 170.542969 97.371094 170.542969 C 96.457031 170.542969 95.546875 170.496094 94.636719 170.40625 C 93.730469 170.316406 92.828125 170.179688 91.933594 170.003906 C 91.035156 169.824219 90.152344 169.601562 89.277344 169.335938 C 88.40625 169.070312 87.546875 168.761719 86.703125 168.414062 C 85.859375 168.0625 85.035156 167.671875 84.230469 167.242188 C 83.425781 166.8125 82.640625 166.339844 81.882812 165.835938 C 81.125 165.328125 80.390625 164.78125 79.683594 164.203125 C 78.980469 163.625 78.304688 163.011719 77.65625 162.367188 C 77.011719 161.71875 76.398438 161.046875 75.820312 160.339844 C 75.238281 159.632812 74.695312 158.902344 74.1875 158.140625 C 73.679688 157.382812 73.210938 156.601562 72.78125 155.796875 C 72.351562 154.992188 71.960938 154.167969 71.609375 153.324219 C 71.257812 152.480469 70.953125 151.621094 70.6875 150.746094 C 70.417969 149.875 70.199219 148.988281 70.019531 148.09375 C 69.839844 147.199219 69.703125 146.296875 69.613281 145.386719 C 69.523438 144.480469 69.476562 143.566406 69.476562 142.65625 Z M 52.308594 228.484375 C 52.308594 227.007812 52.378906 225.535156 52.523438 224.066406 C 52.667969 222.597656 52.886719 221.140625 53.171875 219.691406 C 53.460938 218.242188 53.820312 216.8125 54.246094 215.402344 C 54.675781 213.988281 55.171875 212.601562 55.738281 211.238281 C 56.300781 209.875 56.933594 208.542969 57.628906 207.238281 C 58.324219 205.9375 59.082031 204.671875 59.902344 203.445312 C 60.722656 202.21875 61.601562 201.035156 62.535156 199.894531 C 63.472656 198.753906 64.460938 197.660156 65.507812 196.617188 C 66.550781 195.574219 67.640625 194.582031 68.78125 193.648438 C 69.921875 192.710938 71.109375 191.832031 72.335938 191.011719 C 73.5625 190.191406 74.828125 189.433594 76.128906 188.738281 C 77.429688 188.042969 78.761719 187.414062 80.125 186.847656 C 81.488281 186.285156 82.878906 185.789062 84.289062 185.359375 C 85.703125 184.929688 87.132812 184.574219 88.578125 184.285156 C 90.027344 183.996094 91.484375 183.78125 92.953125 183.636719 C 94.421875 183.492188 95.894531 183.417969 97.371094 183.417969 C 98.847656 183.417969 100.320312 183.492188 101.789062 183.636719 C 103.257812 183.78125 104.714844 183.996094 106.164062 184.285156 C 107.609375 184.574219 109.039062 184.929688 110.453125 185.359375 C 111.863281 185.789062 113.253906 186.285156 114.617188 186.847656 C 115.980469 187.414062 117.3125 188.042969 118.613281 188.738281 C 119.917969 189.433594 121.179688 190.191406 122.40625 191.011719 C 123.636719 191.832031 124.820312 192.710938 125.960938 193.648438 C 127.101562 194.582031 128.191406 195.574219 129.238281 196.617188 C 130.28125 197.660156 131.269531 198.753906 132.207031 199.894531 C 133.144531 201.035156 134.019531 202.21875 134.839844 203.445312 C 135.660156 204.671875 136.417969 205.9375 137.113281 207.238281 C 137.808594 208.542969 138.441406 209.875 139.003906 211.238281 C 139.570312 212.601562 140.066406 213.988281 140.496094 215.402344 C 140.921875 216.8125 141.28125 218.242188 141.570312 219.691406 C 141.859375 221.140625 142.074219 222.597656 142.21875 224.066406 C 142.363281 225.535156 142.4375 227.007812 142.4375 228.484375 L 142.4375 245.15625 C 138.976562 246.984375 135.421875 248.597656 131.765625 249.992188 C 128.109375 251.390625 124.382812 252.558594 120.585938 253.5 C 116.789062 254.445312 112.949219 255.152344 109.066406 255.628906 C 105.183594 256.101562 101.285156 256.339844 97.371094 256.339844 C 93.457031 256.339844 89.5625 256.101562 85.675781 255.628906 C 81.792969 255.152344 77.953125 254.445312 74.15625 253.5 C 70.359375 252.558594 66.632812 251.390625 62.976562 249.992188 C 59.320312 248.597656 55.765625 246.984375 52.308594 245.15625 Z M 52.308594 228.484375 " fill-opacity="1" fill-rule="nonzero"/><path fill="#207cc2" d="M 163.050781 136.632812 C 162.777344 136.964844 162.539062 137.328125 162.335938 137.710938 C 162.132812 138.09375 161.972656 138.492188 161.851562 138.910156 C 161.730469 139.324219 161.652344 139.75 161.617188 140.183594 C 161.582031 140.613281 161.589844 141.046875 161.640625 141.476562 C 161.691406 141.90625 161.785156 142.328125 161.921875 142.738281 C 162.058594 143.148438 162.234375 143.542969 162.453125 143.917969 C 162.667969 144.296875 162.917969 144.644531 163.207031 144.96875 C 163.492188 145.296875 163.808594 145.589844 164.15625 145.847656 C 164.503906 146.109375 164.871094 146.335938 165.261719 146.519531 C 165.652344 146.707031 166.058594 146.851562 166.480469 146.957031 C 166.902344 147.0625 167.328125 147.125 167.761719 147.140625 C 168.195312 147.160156 168.625 147.132812 169.054688 147.066406 C 169.480469 146.996094 169.898438 146.886719 170.304688 146.734375 C 170.710938 146.582031 171.09375 146.386719 171.460938 146.15625 C 171.828125 145.925781 172.167969 145.660156 172.480469 145.359375 C 172.796875 145.0625 173.074219 144.734375 173.324219 144.378906 C 176.640625 139.96875 180.503906 136.105469 184.910156 132.789062 C 189.632812 129.351562 194.734375 126.632812 200.222656 124.632812 C 205.707031 122.636719 211.363281 121.433594 217.191406 121.023438 L 215.128906 123.085938 C 214.820312 123.382812 214.546875 123.707031 214.304688 124.058594 C 214.0625 124.410156 213.855469 124.78125 213.6875 125.175781 C 213.519531 125.566406 213.390625 125.972656 213.300781 126.390625 C 213.214844 126.808594 213.167969 127.230469 213.164062 127.660156 C 213.160156 128.085938 213.199219 128.511719 213.28125 128.929688 C 213.359375 129.351562 213.480469 129.757812 213.644531 130.152344 C 213.804688 130.550781 214.003906 130.925781 214.242188 131.28125 C 214.476562 131.636719 214.746094 131.964844 215.050781 132.269531 C 215.351562 132.570312 215.679688 132.839844 216.035156 133.074219 C 216.394531 133.3125 216.769531 133.511719 217.164062 133.675781 C 217.558594 133.835938 217.96875 133.957031 218.386719 134.039062 C 218.808594 134.117188 219.230469 134.15625 219.65625 134.152344 C 220.085938 134.148438 220.507812 134.105469 220.925781 134.015625 C 221.34375 133.925781 221.75 133.800781 222.144531 133.628906 C 222.535156 133.460938 222.90625 133.257812 223.257812 133.011719 C 223.613281 132.769531 223.9375 132.496094 224.234375 132.1875 L 237.109375 119.3125 C 237.265625 119.105469 237.410156 118.894531 237.539062 118.667969 C 238.164062 117.972656 238.550781 117.164062 238.707031 116.242188 C 238.808594 115.980469 238.890625 115.714844 238.957031 115.445312 C 238.96875 115.332031 238.917969 115.230469 238.925781 115.117188 C 238.929688 114.664062 238.886719 114.214844 238.796875 113.769531 C 238.757812 113.382812 238.683594 113.003906 238.574219 112.628906 C 238.429688 112.28125 238.25 111.945312 238.042969 111.628906 C 237.832031 111.21875 237.578125 110.835938 237.28125 110.480469 C 237.207031 110.398438 237.183594 110.292969 237.105469 110.214844 L 224.230469 97.339844 C 223.929688 97.046875 223.601562 96.789062 223.253906 96.5625 C 222.902344 96.335938 222.53125 96.144531 222.144531 95.992188 C 221.753906 95.835938 221.355469 95.71875 220.945312 95.640625 C 220.535156 95.566406 220.121094 95.527344 219.703125 95.53125 C 219.285156 95.535156 218.871094 95.578125 218.460938 95.664062 C 218.050781 95.75 217.652344 95.871094 217.269531 96.03125 C 216.882812 96.195312 216.515625 96.390625 216.167969 96.625 C 215.824219 96.859375 215.5 97.121094 215.207031 97.417969 C 214.910156 97.714844 214.644531 98.035156 214.414062 98.382812 C 214.179688 98.726562 213.980469 99.09375 213.820312 99.480469 C 213.660156 99.867188 213.535156 100.261719 213.453125 100.671875 C 213.367188 101.082031 213.324219 101.496094 213.320312 101.914062 C 213.316406 102.332031 213.351562 102.746094 213.429688 103.15625 C 213.507812 103.566406 213.625 103.96875 213.777344 104.355469 C 213.933594 104.742188 214.125 105.113281 214.351562 105.464844 C 214.578125 105.816406 214.835938 106.140625 215.128906 106.441406 L 216.851562 108.167969 C 213.292969 108.386719 209.765625 108.855469 206.273438 109.578125 C 202.78125 110.304688 199.359375 111.269531 196.003906 112.480469 C 192.648438 113.691406 189.398438 115.132812 186.25 116.808594 C 183.101562 118.484375 180.085938 120.375 177.207031 122.480469 C 171.816406 126.523438 167.097656 131.242188 163.050781 136.632812 Z M 163.050781 136.632812 " fill-opacity="1" fill-rule="nonzero"/><path fill="#207cc2" d="M 163.050781 234.507812 C 167.097656 239.902344 171.820312 244.621094 177.214844 248.667969 C 180.09375 250.773438 183.109375 252.664062 186.257812 254.339844 C 189.40625 256.015625 192.660156 257.457031 196.015625 258.667969 C 199.371094 259.878906 202.796875 260.847656 206.289062 261.570312 C 209.78125 262.289062 213.308594 262.761719 216.871094 262.980469 L 215.136719 264.714844 C 214.828125 265.011719 214.554688 265.335938 214.3125 265.6875 C 214.070312 266.039062 213.863281 266.410156 213.695312 266.804688 C 213.527344 267.195312 213.398438 267.601562 213.308594 268.019531 C 213.222656 268.4375 213.175781 268.859375 213.171875 269.289062 C 213.167969 269.714844 213.207031 270.140625 213.289062 270.558594 C 213.367188 270.976562 213.488281 271.386719 213.652344 271.78125 C 213.8125 272.175781 214.011719 272.554688 214.25 272.910156 C 214.484375 273.265625 214.753906 273.59375 215.058594 273.894531 C 215.359375 274.199219 215.6875 274.46875 216.042969 274.703125 C 216.402344 274.941406 216.777344 275.140625 217.171875 275.300781 C 217.566406 275.464844 217.976562 275.585938 218.394531 275.664062 C 218.816406 275.746094 219.238281 275.785156 219.664062 275.78125 C 220.09375 275.777344 220.515625 275.730469 220.933594 275.644531 C 221.351562 275.554688 221.757812 275.425781 222.152344 275.257812 C 222.542969 275.089844 222.914062 274.882812 223.265625 274.640625 C 223.617188 274.398438 223.945312 274.125 224.242188 273.816406 L 237.117188 260.941406 C 237.195312 260.863281 237.21875 260.757812 237.292969 260.675781 C 237.589844 260.320312 237.84375 259.9375 238.054688 259.527344 C 238.261719 259.210938 238.4375 258.875 238.585938 258.523438 C 238.695312 258.152344 238.769531 257.773438 238.808594 257.386719 C 238.898438 256.941406 238.941406 256.492188 238.9375 256.039062 C 238.929688 255.925781 238.980469 255.824219 238.96875 255.710938 C 238.75 255.019531 238.535156 254.332031 238.316406 253.640625 C 238.105469 253.234375 237.855469 252.855469 237.5625 252.507812 C 237.429688 252.273438 237.28125 252.050781 237.117188 251.835938 L 224.242188 238.960938 C 223.941406 238.671875 223.617188 238.414062 223.265625 238.1875 C 222.914062 237.960938 222.542969 237.769531 222.15625 237.613281 C 221.769531 237.457031 221.367188 237.34375 220.957031 237.265625 C 220.546875 237.1875 220.132812 237.152344 219.714844 237.15625 C 219.296875 237.160156 218.882812 237.203125 218.472656 237.285156 C 218.0625 237.371094 217.667969 237.492188 217.28125 237.65625 C 216.894531 237.816406 216.527344 238.015625 216.183594 238.246094 C 215.835938 238.480469 215.515625 238.746094 215.21875 239.039062 C 214.921875 239.335938 214.660156 239.65625 214.425781 240.003906 C 214.191406 240.351562 213.996094 240.71875 213.832031 241.101562 C 213.671875 241.488281 213.550781 241.886719 213.464844 242.296875 C 213.378906 242.707031 213.335938 243.117188 213.332031 243.535156 C 213.328125 243.953125 213.367188 244.371094 213.441406 244.78125 C 213.519531 245.191406 213.636719 245.589844 213.792969 245.980469 C 213.945312 246.367188 214.136719 246.738281 214.363281 247.085938 C 214.589844 247.4375 214.847656 247.765625 215.140625 248.066406 L 217.199219 250.125 C 211.375 249.71875 205.71875 248.515625 200.230469 246.515625 C 194.746094 244.515625 189.640625 241.796875 184.921875 238.359375 C 180.511719 235.042969 176.648438 231.179688 173.332031 226.773438 C 173.085938 226.417969 172.804688 226.089844 172.492188 225.789062 C 172.179688 225.488281 171.839844 225.222656 171.472656 224.992188 C 171.105469 224.761719 170.71875 224.570312 170.3125 224.417969 C 169.90625 224.265625 169.492188 224.152344 169.0625 224.085938 C 168.636719 224.015625 168.203125 223.992188 167.769531 224.007812 C 167.339844 224.027344 166.910156 224.089844 166.492188 224.191406 C 166.070312 224.296875 165.664062 224.441406 165.273438 224.628906 C 164.882812 224.816406 164.511719 225.039062 164.167969 225.300781 C 163.820312 225.5625 163.503906 225.855469 163.214844 226.179688 C 162.929688 226.503906 162.679688 226.855469 162.460938 227.230469 C 162.246094 227.605469 162.070312 228 161.933594 228.410156 C 161.796875 228.824219 161.703125 229.242188 161.648438 229.675781 C 161.597656 230.105469 161.589844 230.535156 161.625 230.96875 C 161.660156 231.398438 161.738281 231.824219 161.859375 232.242188 C 161.984375 232.65625 162.144531 233.058594 162.347656 233.441406 C 162.546875 233.824219 162.785156 234.183594 163.0625 234.519531 Z M 163.050781 234.507812 " fill-opacity="1" fill-rule="nonzero"/></svg>