<svg xmlns="http://www.w3.org/2000/svg" xmlns:xlink="http://www.w3.org/1999/xlink" width="500" zoomAndPan="magnify" viewBox="0 0 375 374.999991" height="500" preserveAspectRatio="xMidYMid meet" version="1.0"><defs><clipPath id="f44d66657d"><path d="M 74 37.5 L 261 37.5 L 261 337.5 L 74 337.5 Z M 74 37.5 " clip-rule="nonzero"/></clipPath></defs><path fill="#207cc2" d="M 292.355469 265.328125 C 292.355469 267.234375 291.761719 268.875 290.527344 270.265625 C 290.074219 270.796875 289.574219 271.203125 289.058594 271.546875 C 288.183594 272.09375 287.230469 272.359375 286.167969 272.359375 L 195.527344 272.359375 C 194.199219 272.359375 193.011719 271.921875 191.980469 271.046875 C 191.699219 270.828125 191.433594 270.5625 191.167969 270.265625 C 189.949219 268.875 189.339844 267.234375 189.339844 265.328125 L 189.339844 115.90625 C 189.339844 114 189.949219 112.359375 191.167969 110.96875 C 192.402344 109.578125 193.855469 108.875 195.527344 108.875 L 286.167969 108.875 C 287.855469 108.875 289.308594 109.578125 290.527344 110.96875 C 291.761719 112.359375 292.355469 114 292.355469 115.90625 Z M 240.855469 292.359375 C 236.558594 292.359375 233.089844 288.890625 233.089844 284.59375 C 233.089844 280.3125 236.558594 276.84375 240.855469 276.84375 C 245.136719 276.84375 248.605469 280.3125 248.605469 284.59375 C 248.605469 288.890625 245.136719 292.359375 240.855469 292.359375 Z M 228.339844 98.21875 C 228.339844 97.125 229.246094 96.21875 230.339844 96.21875 L 251.355469 96.21875 C 252.464844 96.21875 253.355469 97.125 253.355469 98.21875 L 253.355469 99.21875 C 253.355469 100.328125 252.464844 101.21875 251.355469 101.21875 L 230.339844 101.21875 C 229.246094 101.21875 228.339844 100.328125 228.339844 99.21875 Z M 294.402344 94.875 C 290.167969 90.640625 285.167969 88.53125 279.386719 88.53125 L 202.324219 88.53125 C 196.542969 88.53125 191.527344 90.640625 187.308594 94.875 C 183.074219 99.09375 180.964844 104.09375 180.964844 109.875 L 180.964844 275.359375 C 180.964844 281.140625 183.074219 286.15625 187.308594 290.375 C 191.527344 294.609375 196.542969 296.71875 202.324219 296.71875 L 279.386719 296.71875 C 285.167969 296.71875 290.167969 294.609375 294.402344 290.375 C 298.621094 286.15625 300.746094 281.140625 300.746094 275.359375 L 300.746094 109.875 C 300.746094 104.09375 298.621094 99.09375 294.402344 94.875 " fill-opacity="1" fill-rule="nonzero"/><g clip-path="url(#f44d66657d)"><path fill="#207cc2" d="M 234.855469 328.421875 L 215.652344 328.421875 C 213.011719 328.421875 210.839844 326.265625 210.839844 323.625 C 210.839844 320.984375 213.011719 318.8125 215.652344 318.8125 L 234.855469 318.8125 C 237.511719 318.8125 239.667969 320.984375 239.667969 323.625 C 239.667969 326.265625 237.511719 328.421875 234.855469 328.421875 Z M 168.667969 330.828125 C 166.636719 330.828125 164.808594 329.984375 163.496094 328.640625 C 162.121094 327.515625 161.246094 325.8125 161.199219 323.796875 C 161.136719 321.6875 162.011719 319.859375 163.449219 318.671875 C 164.761719 317.28125 166.605469 316.40625 168.667969 316.40625 C 172.652344 316.40625 175.871094 319.640625 175.871094 323.625 C 175.871094 327.609375 172.652344 330.828125 168.667969 330.828125 Z M 120.621094 328.421875 L 101.417969 328.421875 C 98.777344 328.421875 96.605469 326.265625 96.605469 323.625 C 96.605469 320.984375 98.777344 318.8125 101.417969 318.8125 L 120.621094 318.8125 C 123.277344 318.8125 125.433594 320.984375 125.433594 323.625 C 125.433594 326.265625 123.277344 328.421875 120.621094 328.421875 Z M 135.761719 49.59375 L 199.449219 49.59375 C 200.621094 49.59375 201.589844 50.5625 201.589844 51.734375 C 201.589844 52.90625 200.621094 53.875 199.449219 53.875 L 135.761719 53.875 C 134.574219 53.875 133.621094 52.90625 133.621094 51.734375 C 133.621094 50.5625 134.574219 49.59375 135.761719 49.59375 Z M 260.449219 309.71875 C 259.230469 309.71875 258.339844 309.71875 257.464844 309.71875 C 202.839844 309.734375 153.558594 309.734375 98.933594 309.734375 C 94.199219 309.734375 92.808594 308.34375 92.808594 303.53125 C 92.808594 253.890625 92.808594 177.5625 92.808594 127.921875 C 92.808594 108.625 92.808594 89.3125 92.824219 70.015625 C 92.824219 66.6875 94.136719 65.375 97.464844 65.265625 C 98.277344 65.234375 99.074219 65.265625 99.871094 65.265625 C 139.199219 65.265625 168.902344 65.265625 208.230469 65.265625 C 218.183594 65.265625 228.152344 65.25 238.121094 65.265625 C 242.121094 65.265625 243.308594 66.46875 243.339844 70.5 C 243.355469 72.25 243.339844 74 243.339844 75.796875 C 247.746094 75.796875 256.152344 75.796875 260.433594 75.796875 C 260.433594 69.421875 260.402344 63.21875 260.433594 57 C 260.496094 45.421875 252.667969 37.5 241.136719 37.5 C 192.214844 37.5 143.277344 37.5 94.339844 37.5 C 82.339844 37.5 74.667969 45.140625 74.667969 57.140625 C 74.652344 135.875 74.667969 240.75 74.652344 319.484375 C 74.652344 327.1875 79.074219 333.609375 86.277344 336.375 C 87.058594 336.671875 88.058594 336.578125 88.542969 337.5 C 140.855469 337.5 193.167969 337.5 245.480469 337.5 C 245.699219 336.984375 246.199219 337.09375 246.605469 336.984375 C 253.839844 335.015625 258.589844 330.5 260.089844 323.078125 C 260.964844 318.734375 260.277344 314.28125 260.449219 309.71875 " fill-opacity="1" fill-rule="nonzero"/></g></svg>