<svg xmlns="http://www.w3.org/2000/svg" xmlns:xlink="http://www.w3.org/1999/xlink" width="500" zoomAndPan="magnify" viewBox="0 0 375 374.999991" height="500" preserveAspectRatio="xMidYMid meet" version="1.0"><defs><clipPath id="69285ac5c6"><path d="M 37.5 53.941406 L 337.5 53.941406 L 337.5 103.730469 L 37.5 103.730469 Z M 37.5 53.941406 " clip-rule="nonzero"/></clipPath><clipPath id="ebd5f01f22"><path d="M 37.5 153 L 337.5 153 L 337.5 203 L 37.5 203 Z M 37.5 153 " clip-rule="nonzero"/></clipPath><clipPath id="01e1d4f974"><path d="M 38 245 L 111 245 L 111 321.070312 L 38 321.070312 Z M 38 245 " clip-rule="nonzero"/></clipPath><clipPath id="523d97c97a"><path d="M 195 243.828125 L 258.648438 243.828125 L 258.648438 321.070312 L 195 321.070312 Z M 195 243.828125 " clip-rule="nonzero"/></clipPath><clipPath id="e02f314731"><path d="M 274 243.828125 L 337.5 243.828125 L 337.5 321.070312 L 274 321.070312 Z M 274 243.828125 " clip-rule="nonzero"/></clipPath></defs><g clip-path="url(#69285ac5c6)"><path fill="#f4b400" d="M 312.710938 103.53125 L 62.292969 103.53125 C 48.597656 103.53125 37.5 92.429688 37.5 78.734375 C 37.5 65.046875 48.597656 53.945312 62.292969 53.945312 L 312.710938 53.945312 C 326.40625 53.945312 337.507812 65.046875 337.507812 78.734375 C 337.507812 92.429688 326.40625 103.53125 312.710938 103.53125 " fill-opacity="1" fill-rule="nonzero"/></g><g clip-path="url(#ebd5f01f22)"><path fill="#f4b400" d="M 312.710938 202.707031 L 62.292969 202.707031 C 48.597656 202.707031 37.5 191.609375 37.5 177.914062 C 37.5 164.21875 48.597656 153.117188 62.292969 153.117188 L 312.710938 153.117188 C 326.40625 153.117188 337.507812 164.21875 337.507812 177.914062 C 337.507812 191.609375 326.40625 202.707031 312.710938 202.707031 " fill-opacity="1" fill-rule="nonzero"/></g><g clip-path="url(#01e1d4f974)"><path fill="#f4b400" d="M 64.347656 308.550781 L 52.390625 261.027344 L 52.390625 312.523438 C 52.390625 315.371094 51.75 317.507812 50.480469 318.933594 C 49.210938 320.355469 47.523438 321.070312 45.414062 321.070312 C 43.382812 321.070312 41.71875 320.367188 40.429688 318.957031 C 39.140625 317.550781 38.496094 315.402344 38.496094 312.523438 L 38.496094 253.492188 C 38.496094 250.234375 39.34375 248.039062 41.042969 246.902344 C 42.738281 245.765625 45.027344 245.199219 47.910156 245.199219 L 52.59375 245.199219 C 55.40625 245.199219 57.449219 245.453125 58.726562 245.964844 C 59.996094 246.472656 60.9375 247.382812 61.546875 248.710938 C 62.160156 250.03125 62.855469 252.1875 63.632812 255.171875 L 74.472656 296.035156 L 85.3125 255.171875 C 86.09375 252.1875 86.789062 250.03125 87.402344 248.710938 C 88.011719 247.382812 88.953125 246.472656 90.222656 245.964844 C 91.492188 245.453125 93.539062 245.199219 96.355469 245.199219 L 101.039062 245.199219 C 103.917969 245.199219 106.210938 245.765625 107.90625 246.902344 C 109.605469 248.039062 110.449219 250.234375 110.449219 253.492188 L 110.449219 312.523438 C 110.449219 315.371094 109.816406 317.507812 108.539062 318.933594 C 107.269531 320.355469 105.566406 321.070312 103.429688 321.070312 C 101.425781 321.070312 99.78125 320.355469 98.492188 318.933594 C 97.203125 317.507812 96.558594 315.371094 96.558594 312.523438 L 96.558594 261.027344 L 84.601562 308.550781 C 83.820312 311.640625 83.183594 313.902344 82.691406 315.34375 C 82.199219 316.789062 81.296875 318.097656 79.96875 319.289062 C 78.644531 320.480469 76.8125 321.070312 74.472656 321.070312 C 72.710938 321.070312 71.21875 320.691406 69.996094 319.925781 C 68.777344 319.164062 67.824219 318.183594 67.148438 317 C 66.46875 315.8125 65.929688 314.5 65.542969 313.054688 C 65.152344 311.613281 64.753906 310.113281 64.347656 308.550781 " fill-opacity="1" fill-rule="nonzero"/></g><path fill="#f4b400" d="M 175.125 256.851562 L 141.085938 256.851562 L 141.085938 275.167969 L 172.429688 275.167969 C 174.738281 275.167969 176.460938 275.6875 177.597656 276.722656 C 178.730469 277.753906 179.300781 279.121094 179.300781 280.816406 C 179.300781 282.515625 178.738281 283.898438 177.621094 284.964844 C 176.5 286.03125 174.773438 286.570312 172.429688 286.570312 L 141.085938 286.570312 L 141.085938 307.789062 L 176.296875 307.789062 C 178.671875 307.789062 180.464844 308.34375 181.667969 309.441406 C 182.871094 310.546875 183.476562 312.011719 183.476562 313.84375 C 183.476562 315.609375 182.871094 317.042969 181.667969 318.144531 C 180.464844 319.25 178.671875 319.800781 176.296875 319.800781 L 135.234375 319.800781 C 131.941406 319.800781 129.578125 319.066406 128.132812 317.609375 C 126.691406 316.15625 125.972656 313.792969 125.972656 310.539062 L 125.972656 254.457031 C 125.972656 252.289062 126.292969 250.515625 126.941406 249.144531 C 127.582031 247.769531 128.589844 246.769531 129.964844 246.140625 C 131.339844 245.511719 133.09375 245.199219 135.234375 245.199219 L 175.125 245.199219 C 177.535156 245.199219 179.328125 245.734375 180.5 246.800781 C 181.667969 247.867188 182.253906 249.269531 182.253906 251 C 182.253906 252.765625 181.667969 254.179688 180.5 255.25 C 179.328125 256.316406 177.535156 256.851562 175.125 256.851562 " fill-opacity="1" fill-rule="nonzero"/><g clip-path="url(#523d97c97a)"><path fill="#f4b400" d="M 215.175781 252.984375 L 244.230469 296.949219 L 244.230469 252.578125 C 244.230469 249.691406 244.851562 247.53125 246.089844 246.085938 C 247.328125 244.648438 249 243.925781 251.101562 243.925781 C 253.273438 243.925781 254.988281 244.648438 256.242188 246.085938 C 257.496094 247.53125 258.125 249.691406 258.125 252.578125 L 258.125 311.246094 C 258.125 317.796875 255.410156 321.070312 249.984375 321.070312 C 248.628906 321.070312 247.402344 320.875 246.320312 320.484375 C 245.230469 320.09375 244.214844 319.472656 243.269531 318.628906 C 242.3125 317.777344 241.4375 316.789062 240.621094 315.652344 C 239.808594 314.515625 238.988281 313.355469 238.175781 312.164062 L 209.835938 268.707031 L 209.835938 312.417969 C 209.835938 315.269531 209.171875 317.425781 207.847656 318.882812 C 206.523438 320.339844 204.828125 321.070312 202.761719 321.070312 C 200.621094 321.070312 198.90625 320.332031 197.617188 318.859375 C 196.328125 317.378906 195.6875 315.238281 195.6875 312.417969 L 195.6875 254.867188 C 195.6875 252.421875 195.957031 250.503906 196.5 249.117188 C 197.144531 247.589844 198.214844 246.34375 199.707031 245.375 C 201.199219 244.410156 202.8125 243.925781 204.539062 243.925781 C 205.894531 243.925781 207.058594 244.144531 208.027344 244.585938 C 208.992188 245.027344 209.839844 245.625 210.570312 246.367188 C 211.300781 247.117188 212.046875 248.082031 212.8125 249.269531 C 213.570312 250.457031 214.363281 251.695312 215.175781 252.984375 " fill-opacity="1" fill-rule="nonzero"/></g><g clip-path="url(#e02f314731)"><path fill="#f4b400" d="M 274.765625 288.957031 L 274.765625 253.082031 C 274.765625 250.03125 275.453125 247.742188 276.828125 246.21875 C 278.203125 244.6875 280.007812 243.925781 282.246094 243.925781 C 284.585938 243.925781 286.441406 244.6875 287.816406 246.21875 C 289.191406 247.742188 289.878906 250.03125 289.878906 253.082031 L 289.878906 289.773438 C 289.878906 293.949219 290.34375 297.433594 291.277344 300.234375 C 292.210938 303.035156 293.863281 305.203125 296.238281 306.746094 C 298.613281 308.289062 301.9375 309.0625 306.210938 309.0625 C 312.113281 309.0625 316.289062 307.492188 318.730469 304.355469 C 321.175781 301.214844 322.394531 296.457031 322.394531 290.082031 L 322.394531 253.082031 C 322.394531 250 323.074219 247.703125 324.429688 246.191406 C 325.789062 244.679688 327.601562 243.925781 329.875 243.925781 C 332.148438 243.925781 333.988281 244.679688 335.394531 246.191406 C 336.804688 247.703125 337.507812 250 337.507812 253.082031 L 337.507812 288.957031 C 337.507812 294.796875 336.941406 299.664062 335.804688 303.566406 C 334.664062 307.464844 332.523438 310.894531 329.363281 313.84375 C 326.652344 316.355469 323.5 318.183594 319.902344 319.34375 C 316.308594 320.492188 312.097656 321.070312 307.28125 321.070312 C 301.550781 321.070312 296.609375 320.453125 292.472656 319.210938 C 288.332031 317.972656 284.960938 316.058594 282.34375 313.464844 C 279.734375 310.867188 277.816406 307.542969 276.597656 303.492188 C 275.375 299.433594 274.765625 294.59375 274.765625 288.957031 " fill-opacity="1" fill-rule="nonzero"/></g></svg>