<svg xmlns="http://www.w3.org/2000/svg" xmlns:xlink="http://www.w3.org/1999/xlink" width="500" zoomAndPan="magnify" viewBox="0 0 375 374.999991" height="500" preserveAspectRatio="xMidYMid meet" version="1.0"><defs><clipPath id="60c08ac51d"><path d="M 128 246.292969 L 313.289062 246.292969 L 313.289062 308.714844 L 128 308.714844 Z M 128 246.292969 " clip-rule="nonzero"/></clipPath><clipPath id="6d0d3af5a6"><path d="M 37.5 118 L 175 118 L 175 166 L 37.5 166 Z M 37.5 118 " clip-rule="nonzero"/></clipPath><clipPath id="ae327de8de"><path d="M 159 66.5625 L 296 66.5625 L 296 114 L 159 114 Z M 159 66.5625 " clip-rule="nonzero"/></clipPath><clipPath id="8ed25ab8b4"><path d="M 210 143.75 L 337.5 143.75 L 337.5 188 L 210 188 Z M 210 143.75 " clip-rule="nonzero"/></clipPath></defs><rect x="-37.5" width="450" fill="#ffffff" y="-37.499999" height="449.999989" fill-opacity="1"/><rect x="-37.5" width="450" fill="#1a2026" y="-37.499999" height="449.999989" fill-opacity="1"/><g clip-path="url(#60c08ac51d)"><path fill="#207cc2" d="M 281.96875 303.003906 L 159.226562 303.003906 C 145.214844 303.003906 133.820312 291.585938 133.820312 277.550781 C 133.820312 263.519531 145.214844 252.105469 159.226562 252.105469 L 281.96875 252.105469 C 295.980469 252.105469 307.378906 263.519531 307.378906 277.554688 C 307.378906 291.585938 295.980469 303.003906 281.96875 303.003906 Z M 281.96875 246.394531 L 159.226562 246.394531 C 142.074219 246.394531 128.117188 260.371094 128.117188 277.554688 C 128.117188 294.738281 142.074219 308.714844 159.226562 308.714844 L 281.96875 308.714844 C 299.125 308.714844 313.082031 294.738281 313.082031 277.550781 C 313.082031 260.371094 299.125 246.394531 281.96875 246.394531 " fill-opacity="1" fill-rule="nonzero"/></g><path fill="#207cc2" d="M 165.894531 284.59375 L 160.257812 284.59375 C 159.882812 284.59375 159.566406 284.722656 159.308594 284.984375 C 159.046875 285.246094 158.917969 285.5625 158.917969 285.933594 L 158.917969 291.582031 C 158.917969 291.953125 159.046875 292.269531 159.308594 292.53125 C 159.566406 292.792969 159.882812 292.921875 160.257812 292.921875 L 165.894531 292.921875 C 166.304688 292.921875 166.628906 292.792969 166.871094 292.53125 C 167.113281 292.269531 167.234375 291.953125 167.234375 291.582031 L 167.234375 285.933594 C 167.234375 285.5625 167.101562 285.246094 166.84375 284.984375 C 166.582031 284.722656 166.265625 284.59375 165.894531 284.59375 " fill-opacity="1" fill-rule="nonzero"/><path fill="#207cc2" d="M 182.109375 270.953125 C 183.171875 269.757812 184.652344 269.164062 186.546875 269.164062 C 187.960938 269.164062 189.125 269.480469 190.039062 270.113281 C 190.949219 270.746094 191.683594 271.773438 192.242188 273.1875 C 192.429688 273.636719 192.613281 273.941406 192.800781 274.109375 C 192.988281 274.277344 193.285156 274.363281 193.691406 274.363281 L 198.660156 274.363281 C 199.035156 274.363281 199.359375 274.230469 199.640625 273.972656 C 199.917969 273.710938 200.039062 273.394531 200 273.019531 C 199.925781 271.640625 199.394531 270.195312 198.410156 268.6875 C 197.425781 267.179688 195.917969 265.902344 193.890625 264.859375 C 191.859375 263.816406 189.375 263.292969 186.4375 263.292969 C 182.34375 263.292969 179.078125 264.429688 176.640625 266.703125 C 174.203125 268.976562 172.910156 272.125 172.761719 276.152344 L 172.703125 278.386719 L 172.761719 280.625 C 172.910156 284.648438 174.203125 287.800781 176.640625 290.074219 C 179.078125 292.347656 182.34375 293.480469 186.4375 293.480469 C 189.449219 293.480469 191.964844 292.941406 193.972656 291.863281 C 195.984375 290.78125 197.46875 289.484375 198.4375 287.976562 C 199.40625 286.464844 199.925781 285.058594 200 283.753906 C 200.039062 283.382812 199.917969 283.066406 199.640625 282.804688 C 199.359375 282.542969 199.035156 282.414062 198.660156 282.414062 L 193.691406 282.414062 C 193.285156 282.414062 192.976562 282.507812 192.773438 282.691406 C 192.566406 282.878906 192.390625 283.175781 192.242188 283.585938 C 191.683594 285.039062 190.957031 286.074219 190.066406 286.691406 C 189.171875 287.304688 188 287.613281 186.546875 287.613281 C 182.679688 287.613281 180.632812 285.191406 180.40625 280.34375 L 180.351562 278.5 L 180.40625 276.429688 C 180.480469 273.972656 181.050781 272.144531 182.109375 270.953125 " fill-opacity="1" fill-rule="nonzero"/><path fill="#207cc2" d="M 224.953125 280.566406 C 224.878906 282.953125 224.3125 284.761719 223.25 285.992188 C 222.191406 287.222656 220.671875 287.835938 218.703125 287.835938 C 216.726562 287.835938 215.203125 287.222656 214.125 285.992188 C 213.042969 284.761719 212.46875 282.953125 212.394531 280.566406 L 212.335938 278.386719 L 212.394531 276.207031 C 212.46875 273.820312 213.042969 272.007812 214.125 270.753906 C 215.203125 269.507812 216.726562 268.882812 218.703125 268.882812 C 220.636719 268.882812 222.144531 269.507812 223.222656 270.753906 C 224.300781 272.007812 224.878906 273.820312 224.953125 276.207031 C 224.988281 276.582031 225.007812 277.308594 225.007812 278.386719 C 225.007812 279.46875 224.988281 280.195312 224.953125 280.566406 Z M 228.75 266.675781 C 226.328125 264.421875 222.980469 263.292969 218.703125 263.292969 C 214.382812 263.292969 211.015625 264.421875 208.597656 266.675781 C 206.179688 268.929688 204.875 272.015625 204.691406 275.925781 L 204.632812 278.386719 L 204.691406 280.847656 C 204.875 284.796875 206.160156 287.890625 208.542969 290.128906 C 210.921875 292.363281 214.308594 293.480469 218.703125 293.480469 C 223.054688 293.480469 226.421875 292.363281 228.804688 290.128906 C 231.183594 287.890625 232.46875 284.796875 232.65625 280.847656 C 232.691406 280.402344 232.710938 279.582031 232.710938 278.386719 C 232.710938 277.195312 232.691406 276.375 232.65625 275.925781 C 232.46875 272.015625 231.167969 268.929688 228.75 266.675781 " fill-opacity="1" fill-rule="nonzero"/><path fill="#207cc2" d="M 271.839844 263.292969 C 269.945312 263.292969 268.175781 263.75 266.539062 264.660156 C 264.902344 265.574219 263.636719 266.777344 262.742188 268.269531 C 261.105469 264.949219 258.222656 263.292969 254.089844 263.292969 C 250.703125 263.292969 248.007812 264.558594 245.996094 267.09375 L 245.996094 265.191406 C 245.996094 264.785156 245.875 264.457031 245.632812 264.214844 C 245.390625 263.972656 245.066406 263.851562 244.65625 263.851562 L 240.246094 263.851562 C 239.875 263.851562 239.558594 263.972656 239.296875 264.214844 C 239.039062 264.457031 238.90625 264.785156 238.90625 265.191406 L 238.90625 291.582031 C 238.90625 291.953125 239.039062 292.269531 239.296875 292.53125 C 239.558594 292.792969 239.875 292.921875 240.246094 292.921875 L 244.992188 292.921875 C 245.402344 292.921875 245.726562 292.792969 245.96875 292.53125 C 246.210938 292.269531 246.332031 291.953125 246.332031 291.582031 L 246.332031 275.984375 C 246.332031 273.671875 246.84375 271.988281 247.867188 270.925781 C 248.890625 269.859375 250.128906 269.332031 251.578125 269.332031 C 253.140625 269.332031 254.425781 269.859375 255.429688 270.925781 C 256.433594 271.988281 256.9375 273.671875 256.9375 275.984375 L 256.9375 291.582031 C 256.9375 291.953125 257.066406 292.269531 257.328125 292.53125 C 257.589844 292.792969 257.90625 292.921875 258.277344 292.921875 L 262.964844 292.921875 C 263.375 292.921875 263.699219 292.792969 263.941406 292.53125 C 264.183594 292.269531 264.304688 291.953125 264.304688 291.582031 L 264.304688 275.984375 C 264.304688 273.671875 264.816406 271.988281 265.839844 270.925781 C 266.863281 269.859375 268.101562 269.332031 269.554688 269.332031 C 271.152344 269.332031 272.445312 269.851562 273.433594 270.894531 C 274.417969 271.941406 274.914062 273.636719 274.914062 275.984375 L 274.914062 291.582031 C 274.914062 291.953125 275.042969 292.269531 275.304688 292.53125 C 275.5625 292.792969 275.878906 292.921875 276.253906 292.921875 L 280.886719 292.921875 C 281.292969 292.921875 281.621094 292.792969 281.863281 292.53125 C 282.101562 292.269531 282.226562 291.953125 282.226562 291.582031 L 282.226562 275.535156 C 282.226562 271.546875 281.257812 268.511719 279.320312 266.421875 C 277.386719 264.335938 274.894531 263.292969 271.839844 263.292969 " fill-opacity="1" fill-rule="nonzero"/><g clip-path="url(#6d0d3af5a6)"><path fill="#207cc2" d="M 43.203125 142.402344 C 43.203125 132.574219 51.183594 124.578125 61 124.578125 L 150.675781 124.578125 C 160.488281 124.578125 168.472656 132.574219 168.472656 142.402344 C 168.472656 152.230469 160.488281 160.226562 150.675781 160.226562 L 61 160.226562 C 51.183594 160.226562 43.203125 152.230469 43.203125 142.402344 Z M 174.175781 142.402344 C 174.175781 129.421875 163.632812 118.863281 150.675781 118.863281 L 61 118.863281 C 48.042969 118.863281 37.5 129.421875 37.5 142.402344 C 37.5 155.378906 48.042969 165.9375 61 165.9375 L 150.675781 165.9375 C 163.632812 165.9375 174.175781 155.378906 174.175781 142.402344 " fill-opacity="1" fill-rule="nonzero"/></g><path fill="#207cc2" d="M 65.871094 147.546875 L 61.75 147.546875 C 61.476562 147.546875 61.246094 147.640625 61.058594 147.832031 C 60.867188 148.023438 60.769531 148.253906 60.769531 148.527344 L 60.769531 152.652344 C 60.769531 152.925781 60.867188 153.15625 61.058594 153.347656 C 61.246094 153.535156 61.476562 153.632812 61.75 153.632812 L 65.871094 153.632812 C 66.167969 153.632812 66.40625 153.535156 66.582031 153.347656 C 66.757812 153.15625 66.847656 152.925781 66.847656 152.652344 L 66.847656 148.527344 C 66.847656 148.253906 66.753906 148.023438 66.5625 147.832031 C 66.371094 147.640625 66.140625 147.546875 65.871094 147.546875 " fill-opacity="1" fill-rule="nonzero"/><path fill="#207cc2" d="M 77.71875 137.578125 C 78.492188 136.707031 79.574219 136.273438 80.960938 136.273438 C 81.992188 136.273438 82.84375 136.503906 83.507812 136.964844 C 84.175781 137.429688 84.710938 138.175781 85.121094 139.210938 C 85.257812 139.539062 85.390625 139.761719 85.527344 139.886719 C 85.664062 140.007812 85.878906 140.070312 86.179688 140.070312 L 89.808594 140.070312 C 90.082031 140.070312 90.320312 139.976562 90.523438 139.785156 C 90.726562 139.59375 90.816406 139.363281 90.789062 139.089844 C 90.734375 138.082031 90.347656 137.027344 89.625 135.925781 C 88.90625 134.820312 87.804688 133.890625 86.324219 133.125 C 84.839844 132.363281 83.023438 131.980469 80.878906 131.980469 C 77.886719 131.980469 75.5 132.8125 73.71875 134.472656 C 71.9375 136.136719 70.996094 138.4375 70.886719 141.378906 L 70.84375 143.011719 L 70.886719 144.644531 C 70.996094 147.585938 71.9375 149.886719 73.71875 151.546875 C 75.5 153.210938 77.886719 154.039062 80.878906 154.039062 C 83.082031 154.039062 84.914062 153.644531 86.382812 152.855469 C 87.851562 152.066406 88.9375 151.121094 89.648438 150.015625 C 90.355469 148.914062 90.734375 147.886719 90.789062 146.933594 C 90.816406 146.660156 90.726562 146.429688 90.523438 146.238281 C 90.320312 146.046875 90.082031 145.953125 89.808594 145.953125 L 86.179688 145.953125 C 85.878906 145.953125 85.65625 146.019531 85.507812 146.15625 C 85.355469 146.292969 85.230469 146.511719 85.121094 146.808594 C 84.710938 147.871094 84.179688 148.628906 83.53125 149.078125 C 82.875 149.527344 82.019531 149.75 80.960938 149.75 C 78.132812 149.75 76.636719 147.980469 76.472656 144.441406 L 76.433594 143.09375 L 76.472656 141.582031 C 76.527344 139.785156 76.941406 138.449219 77.71875 137.578125 " fill-opacity="1" fill-rule="nonzero"/><path fill="#207cc2" d="M 109.019531 144.605469 C 108.964844 146.347656 108.550781 147.667969 107.773438 148.566406 C 107 149.464844 105.890625 149.914062 104.449219 149.914062 C 103.007812 149.914062 101.894531 149.464844 101.105469 148.566406 C 100.316406 147.667969 99.898438 146.347656 99.84375 144.605469 L 99.800781 143.011719 L 99.84375 141.417969 C 99.898438 139.675781 100.316406 138.347656 101.105469 137.4375 C 101.894531 136.523438 103.007812 136.066406 104.449219 136.066406 C 105.863281 136.066406 106.964844 136.523438 107.753906 137.4375 C 108.542969 138.347656 108.964844 139.675781 109.019531 141.417969 C 109.046875 141.691406 109.058594 142.222656 109.058594 143.011719 C 109.058594 143.800781 109.046875 144.332031 109.019531 144.605469 Z M 111.792969 134.453125 C 110.023438 132.808594 107.578125 131.980469 104.449219 131.980469 C 101.296875 131.980469 98.835938 132.808594 97.070312 134.453125 C 95.300781 136.101562 94.351562 138.355469 94.214844 141.214844 L 94.171875 143.011719 L 94.214844 144.808594 C 94.351562 147.695312 95.289062 149.953125 97.027344 151.589844 C 98.769531 153.222656 101.242188 154.039062 104.449219 154.039062 C 107.632812 154.039062 110.09375 153.222656 111.832031 151.589844 C 113.574219 149.953125 114.511719 147.695312 114.648438 144.808594 C 114.671875 144.480469 114.6875 143.882812 114.6875 143.011719 C 114.6875 142.140625 114.671875 141.539062 114.648438 141.214844 C 114.511719 138.355469 113.558594 136.101562 111.792969 134.453125 " fill-opacity="1" fill-rule="nonzero"/><path fill="#207cc2" d="M 150.863281 140.929688 C 150.863281 138.015625 150.15625 135.796875 148.742188 134.269531 C 147.328125 132.746094 145.507812 131.980469 143.277344 131.980469 C 141.890625 131.980469 140.597656 132.316406 139.402344 132.984375 C 138.207031 133.652344 137.28125 134.527344 136.628906 135.617188 C 135.433594 133.195312 133.324219 131.980469 130.308594 131.980469 C 127.832031 131.980469 125.863281 132.90625 124.394531 134.761719 L 124.394531 133.371094 C 124.394531 133.070312 124.304688 132.835938 124.128906 132.65625 C 123.953125 132.480469 123.714844 132.390625 123.414062 132.390625 L 120.195312 132.390625 C 119.921875 132.390625 119.6875 132.480469 119.5 132.65625 C 119.308594 132.835938 119.214844 133.070312 119.214844 133.371094 L 119.214844 152.652344 C 119.214844 152.925781 119.308594 153.15625 119.5 153.347656 C 119.6875 153.535156 119.921875 153.632812 120.195312 153.632812 L 123.660156 153.632812 C 123.957031 153.632812 124.195312 153.535156 124.375 153.347656 C 124.550781 153.15625 124.636719 152.925781 124.636719 152.652344 L 124.636719 141.253906 C 124.636719 139.566406 125.011719 138.335938 125.761719 137.558594 C 126.507812 136.78125 127.410156 136.394531 128.472656 136.394531 C 129.613281 136.394531 130.550781 136.78125 131.285156 137.558594 C 132.019531 138.335938 132.386719 139.566406 132.386719 141.253906 L 132.386719 152.652344 C 132.386719 152.925781 132.480469 153.15625 132.671875 153.347656 C 132.863281 153.535156 133.09375 153.632812 133.367188 153.632812 L 136.792969 153.632812 C 137.089844 153.632812 137.328125 153.535156 137.503906 153.347656 C 137.683594 153.15625 137.769531 152.925781 137.769531 152.652344 L 137.769531 141.253906 C 137.769531 139.566406 138.144531 138.335938 138.890625 137.558594 C 139.640625 136.78125 140.542969 136.394531 141.605469 136.394531 C 142.773438 136.394531 143.71875 136.777344 144.4375 137.539062 C 145.160156 138.300781 145.519531 139.539062 145.519531 141.253906 L 145.519531 152.652344 C 145.519531 152.925781 145.613281 153.15625 145.804688 153.347656 C 145.996094 153.535156 146.226562 153.632812 146.5 153.632812 L 149.882812 153.632812 C 150.183594 153.632812 150.417969 153.535156 150.597656 153.347656 C 150.773438 153.15625 150.863281 152.925781 150.863281 152.652344 L 150.863281 140.929688 " fill-opacity="1" fill-rule="nonzero"/><g clip-path="url(#ae327de8de)"><path fill="#207cc2" d="M 182.785156 72.359375 L 272.460938 72.359375 C 282.273438 72.359375 290.257812 80.355469 290.257812 90.183594 C 290.257812 100.011719 282.273438 108.007812 272.460938 108.007812 L 182.785156 108.007812 C 172.96875 108.007812 164.988281 100.011719 164.988281 90.179688 C 164.988281 80.355469 172.96875 72.359375 182.785156 72.359375 Z M 182.785156 113.71875 L 272.460938 113.71875 C 285.417969 113.71875 295.960938 103.160156 295.960938 90.179688 C 295.960938 77.203125 285.417969 66.644531 272.460938 66.644531 L 182.785156 66.644531 C 169.828125 66.644531 159.285156 77.203125 159.285156 90.183594 C 159.285156 103.160156 169.828125 113.71875 182.785156 113.71875 " fill-opacity="1" fill-rule="nonzero"/></g><path fill="#207cc2" d="M 183.535156 101.414062 L 187.65625 101.414062 C 187.953125 101.414062 188.191406 101.316406 188.367188 101.128906 C 188.542969 100.9375 188.632812 100.707031 188.632812 100.433594 L 188.632812 96.308594 C 188.632812 96.035156 188.539062 95.804688 188.347656 95.613281 C 188.15625 95.421875 187.925781 95.328125 187.65625 95.328125 L 183.535156 95.328125 C 183.261719 95.328125 183.03125 95.421875 182.839844 95.613281 C 182.652344 95.804688 182.558594 96.035156 182.558594 96.308594 L 182.558594 100.433594 C 182.558594 100.707031 182.652344 100.9375 182.839844 101.128906 C 183.03125 101.316406 183.261719 101.414062 183.535156 101.414062 " fill-opacity="1" fill-rule="nonzero"/><path fill="#207cc2" d="M 195.503906 99.328125 C 197.285156 100.992188 199.671875 101.820312 202.664062 101.820312 C 204.867188 101.820312 206.699219 101.425781 208.167969 100.636719 C 209.636719 99.847656 210.726562 98.898438 211.429688 97.796875 C 212.136719 96.695312 212.519531 95.667969 212.574219 94.714844 C 212.601562 94.441406 212.511719 94.210938 212.308594 94.019531 C 212.105469 93.828125 211.867188 93.734375 211.59375 93.734375 L 207.964844 93.734375 C 207.664062 93.734375 207.441406 93.800781 207.292969 93.9375 C 207.140625 94.074219 207.011719 94.292969 206.90625 94.589844 C 206.496094 95.652344 205.96875 96.410156 205.3125 96.859375 C 204.660156 97.308594 203.804688 97.53125 202.746094 97.53125 C 199.917969 97.53125 198.421875 95.761719 198.257812 92.222656 L 198.21875 90.875 L 198.257812 89.363281 C 198.3125 87.566406 198.726562 86.230469 199.503906 85.359375 C 200.277344 84.488281 201.359375 84.054688 202.746094 84.054688 C 203.777344 84.054688 204.628906 84.285156 205.292969 84.746094 C 205.960938 85.210938 206.496094 85.960938 206.90625 86.992188 C 207.039062 87.320312 207.175781 87.542969 207.3125 87.667969 C 207.449219 87.789062 207.664062 87.851562 207.964844 87.851562 L 211.59375 87.851562 C 211.867188 87.851562 212.105469 87.757812 212.308594 87.566406 C 212.511719 87.375 212.601562 87.144531 212.574219 86.871094 C 212.519531 85.863281 212.132812 84.808594 211.410156 83.707031 C 210.691406 82.601562 209.589844 81.667969 208.105469 80.90625 C 206.625 80.144531 204.8125 79.761719 202.664062 79.761719 C 199.671875 79.761719 197.285156 80.59375 195.503906 82.253906 C 193.726562 83.917969 192.777344 86.21875 192.671875 89.160156 L 192.628906 90.792969 L 192.671875 92.425781 C 192.777344 95.367188 193.726562 97.667969 195.503906 99.328125 " fill-opacity="1" fill-rule="nonzero"/><path fill="#207cc2" d="M 221.628906 89.199219 C 221.679688 87.457031 222.101562 86.128906 222.890625 85.21875 C 223.679688 84.304688 224.792969 83.847656 226.234375 83.847656 C 227.648438 83.847656 228.75 84.304688 229.539062 85.21875 C 230.328125 86.128906 230.75 87.457031 230.804688 89.199219 C 230.828125 89.472656 230.84375 90.003906 230.84375 90.792969 C 230.84375 91.582031 230.828125 92.113281 230.804688 92.386719 C 230.75 94.128906 230.335938 95.449219 229.558594 96.347656 C 228.785156 97.246094 227.675781 97.695312 226.234375 97.695312 C 224.792969 97.695312 223.679688 97.246094 222.890625 96.347656 C 222.101562 95.449219 221.679688 94.128906 221.628906 92.386719 L 221.585938 90.792969 Z M 218.8125 99.371094 C 220.554688 101.003906 223.027344 101.820312 226.234375 101.820312 C 229.417969 101.820312 231.875 101.003906 233.617188 99.371094 C 235.359375 97.738281 236.296875 95.476562 236.433594 92.589844 C 236.457031 92.261719 236.472656 91.664062 236.472656 90.792969 C 236.472656 89.921875 236.457031 89.320312 236.433594 88.996094 C 236.296875 86.136719 235.34375 83.882812 233.578125 82.234375 C 231.808594 80.585938 229.363281 79.761719 226.234375 79.761719 C 223.082031 79.761719 220.621094 80.585938 218.855469 82.234375 C 217.085938 83.882812 216.132812 86.136719 216 88.996094 L 215.957031 90.792969 L 216 92.589844 C 216.132812 95.476562 217.074219 97.738281 218.8125 99.371094 " fill-opacity="1" fill-rule="nonzero"/><path fill="#207cc2" d="M 241.976562 101.414062 L 245.445312 101.414062 C 245.742188 101.414062 245.980469 101.316406 246.160156 101.128906 C 246.335938 100.9375 246.421875 100.707031 246.421875 100.433594 L 246.421875 89.035156 C 246.421875 87.347656 246.796875 86.117188 247.546875 85.339844 C 248.292969 84.5625 249.195312 84.175781 250.257812 84.175781 C 251.398438 84.175781 252.335938 84.5625 253.070312 85.339844 C 253.804688 86.117188 254.171875 87.347656 254.171875 89.035156 L 254.171875 100.433594 C 254.171875 100.707031 254.265625 100.9375 254.457031 101.128906 C 254.648438 101.316406 254.878906 101.414062 255.152344 101.414062 L 258.578125 101.414062 C 258.875 101.414062 259.113281 101.316406 259.289062 101.128906 C 259.46875 100.9375 259.554688 100.707031 259.554688 100.433594 L 259.554688 89.035156 C 259.554688 87.347656 259.929688 86.117188 260.675781 85.339844 C 261.425781 84.5625 262.328125 84.175781 263.390625 84.175781 C 264.558594 84.175781 265.503906 84.558594 266.222656 85.320312 C 266.945312 86.082031 267.304688 87.320312 267.304688 89.035156 L 267.304688 100.433594 C 267.304688 100.707031 267.398438 100.9375 267.589844 101.128906 C 267.78125 101.316406 268.011719 101.414062 268.285156 101.414062 L 271.667969 101.414062 C 271.96875 101.414062 272.203125 101.316406 272.382812 101.128906 C 272.558594 100.9375 272.648438 100.707031 272.648438 100.433594 L 272.648438 88.707031 C 272.648438 85.796875 271.941406 83.578125 270.527344 82.050781 C 269.113281 80.527344 267.292969 79.761719 265.0625 79.761719 C 263.675781 79.761719 262.382812 80.097656 261.1875 80.765625 C 259.988281 81.429688 259.066406 82.3125 258.414062 83.398438 C 257.21875 80.976562 255.109375 79.761719 252.09375 79.761719 C 249.617188 79.761719 247.648438 80.691406 246.179688 82.539062 L 246.179688 81.152344 C 246.179688 80.855469 246.089844 80.617188 245.914062 80.4375 C 245.734375 80.261719 245.5 80.171875 245.199219 80.171875 L 241.976562 80.171875 C 241.707031 80.171875 241.472656 80.261719 241.285156 80.4375 C 241.09375 80.617188 241 80.855469 241 81.152344 L 241 100.433594 C 241 100.707031 241.09375 100.9375 241.285156 101.128906 C 241.472656 101.316406 241.707031 101.414062 241.976562 101.414062 " fill-opacity="1" fill-rule="nonzero"/><path fill="#207cc2" d="M 73.761719 210.078125 C 73.761719 198.804688 82.917969 189.632812 94.175781 189.632812 L 195.234375 189.632812 C 206.492188 189.632812 215.652344 198.804688 215.652344 210.082031 C 215.652344 221.355469 206.492188 230.53125 195.234375 230.53125 L 94.175781 230.53125 C 82.917969 230.53125 73.761719 221.355469 73.761719 210.078125 Z M 221.355469 210.078125 C 221.355469 195.65625 209.636719 183.921875 195.234375 183.921875 L 94.175781 183.921875 C 79.773438 183.921875 68.058594 195.65625 68.058594 210.082031 C 68.058594 224.507812 79.773438 236.242188 94.175781 236.242188 L 195.234375 236.242188 C 209.636719 236.242188 221.355469 224.507812 221.355469 210.078125 " fill-opacity="1" fill-rule="nonzero"/><path fill="#207cc2" d="M 113.800781 216.496094 L 109.722656 216.496094 C 109.453125 216.496094 109.222656 216.59375 109.035156 216.78125 C 108.847656 216.96875 108.753906 217.199219 108.753906 217.46875 L 108.753906 221.550781 C 108.753906 221.824219 108.847656 222.050781 109.035156 222.238281 C 109.222656 222.429688 109.453125 222.523438 109.722656 222.523438 L 113.800781 222.523438 C 114.09375 222.523438 114.328125 222.429688 114.507812 222.238281 C 114.679688 222.050781 114.769531 221.824219 114.769531 221.550781 L 114.769531 217.46875 C 114.769531 217.199219 114.671875 216.96875 114.484375 216.78125 C 114.296875 216.59375 114.066406 216.496094 113.800781 216.496094 " fill-opacity="1" fill-rule="nonzero"/><path fill="#207cc2" d="M 131.886719 201.089844 C 129.035156 201.089844 126.785156 202.101562 125.144531 204.125 L 125.144531 202.464844 C 125.144531 202.167969 125.054688 201.933594 124.882812 201.757812 C 124.707031 201.582031 124.472656 201.496094 124.175781 201.496094 L 120.824219 201.496094 C 120.554688 201.496094 120.324219 201.582031 120.136719 201.757812 C 119.949219 201.933594 119.855469 202.167969 119.855469 202.464844 L 119.855469 221.550781 C 119.855469 221.824219 119.949219 222.050781 120.136719 222.238281 C 120.324219 222.429688 120.554688 222.523438 120.824219 222.523438 L 124.417969 222.523438 C 124.714844 222.523438 124.949219 222.429688 125.125 222.238281 C 125.296875 222.050781 125.386719 221.824219 125.386719 221.550781 L 125.386719 210.433594 C 125.386719 208.894531 125.804688 207.683594 126.636719 206.792969 C 127.472656 205.902344 128.574219 205.457031 129.949219 205.457031 C 131.375 205.457031 132.472656 205.898438 133.238281 206.773438 C 134.007812 207.648438 134.390625 208.871094 134.390625 210.433594 L 134.390625 221.550781 C 134.390625 221.824219 134.484375 222.050781 134.671875 222.238281 C 134.859375 222.429688 135.089844 222.523438 135.359375 222.523438 L 138.992188 222.523438 C 139.289062 222.523438 139.523438 222.429688 139.699219 222.238281 C 139.875 222.050781 139.960938 221.824219 139.960938 221.550781 L 139.960938 210.191406 C 139.960938 207.359375 139.234375 205.132812 137.78125 203.515625 C 136.328125 201.898438 134.363281 201.089844 131.886719 201.089844 " fill-opacity="1" fill-rule="nonzero"/><path fill="#207cc2" d="M 158.574219 210.148438 L 149.730469 210.148438 L 149.730469 210.066406 C 149.730469 208.476562 150.121094 207.203125 150.902344 206.246094 C 151.683594 205.289062 152.757812 204.8125 154.132812 204.8125 C 155.503906 204.8125 156.589844 205.289062 157.382812 206.246094 C 158.175781 207.203125 158.574219 208.476562 158.574219 210.066406 Z M 154.132812 201.089844 C 151.011719 201.089844 148.566406 202.0625 146.804688 204.003906 C 145.042969 205.945312 144.160156 208.601562 144.160156 211.96875 L 144.199219 212.980469 C 144.308594 216.160156 145.242188 218.613281 147.007812 220.339844 C 148.769531 222.066406 151.15625 222.925781 154.171875 222.925781 C 156.054688 222.925781 157.710938 222.601562 159.140625 221.957031 C 160.566406 221.308594 161.664062 220.546875 162.429688 219.671875 C 163.195312 218.796875 163.582031 218.035156 163.582031 217.386719 C 163.582031 217.144531 163.492188 216.957031 163.316406 216.820312 C 163.144531 216.6875 162.933594 216.617188 162.691406 216.617188 L 159.140625 216.617188 C 158.816406 216.617188 158.585938 216.652344 158.453125 216.71875 C 158.316406 216.789062 158.128906 216.96875 157.886719 217.265625 C 156.917969 218.507812 155.667969 219.125 154.132812 219.125 C 152.785156 219.125 151.730469 218.636719 150.964844 217.652344 C 150.195312 216.667969 149.785156 215.417969 149.730469 213.910156 L 149.730469 213.585938 L 163.136719 213.585938 C 163.433594 213.585938 163.675781 213.492188 163.863281 213.304688 C 164.050781 213.113281 164.144531 212.886719 164.144531 212.617188 L 164.144531 211.765625 C 164.144531 208.53125 163.277344 205.945312 161.542969 204.003906 C 159.804688 202.0625 157.335938 201.089844 154.132812 201.089844 " fill-opacity="1" fill-rule="nonzero"/><path fill="#207cc2" d="M 181.183594 218.035156 L 178.355469 218.035156 C 177.441406 218.035156 176.78125 217.738281 176.378906 217.144531 C 175.972656 216.550781 175.773438 215.675781 175.773438 214.515625 L 175.773438 205.820312 L 180.820312 205.820312 C 181.089844 205.820312 181.316406 205.726562 181.503906 205.539062 C 181.695312 205.351562 181.789062 205.121094 181.789062 204.851562 L 181.789062 202.464844 C 181.789062 202.195312 181.695312 201.96875 181.503906 201.777344 C 181.316406 201.589844 181.089844 201.496094 180.820312 201.496094 L 175.773438 201.496094 L 175.773438 194.78125 C 175.773438 194.488281 175.683594 194.25 175.511719 194.074219 C 175.335938 193.902344 175.101562 193.8125 174.804688 193.8125 L 171.453125 193.8125 C 171.183594 193.8125 170.953125 193.902344 170.765625 194.074219 C 170.578125 194.25 170.484375 194.488281 170.484375 194.78125 L 170.484375 201.496094 L 167.292969 201.496094 C 167.023438 201.496094 166.796875 201.589844 166.609375 201.777344 C 166.417969 201.96875 166.324219 202.195312 166.324219 202.464844 L 166.324219 204.851562 C 166.324219 205.121094 166.417969 205.351562 166.609375 205.539062 C 166.796875 205.726562 167.023438 205.820312 167.292969 205.820312 L 170.484375 205.820312 L 170.484375 214.960938 C 170.484375 217.441406 171.101562 219.320312 172.339844 220.601562 C 173.578125 221.882812 175.421875 222.523438 177.871094 222.523438 L 181.183594 222.523438 C 181.476562 222.523438 181.714844 222.429688 181.890625 222.238281 C 182.066406 222.050781 182.152344 221.824219 182.152344 221.550781 L 182.152344 219.003906 C 182.152344 218.707031 182.066406 218.472656 181.890625 218.296875 C 181.714844 218.121094 181.476562 218.035156 181.183594 218.035156 " fill-opacity="1" fill-rule="nonzero"/><g clip-path="url(#8ed25ab8b4)"><path fill="#207cc2" d="M 315.464844 182.25 L 232.109375 182.25 C 223.101562 182.25 215.769531 174.90625 215.769531 165.882812 C 215.769531 156.859375 223.101562 149.519531 232.109375 149.519531 L 315.464844 149.519531 C 324.476562 149.519531 331.804688 156.859375 331.804688 165.886719 C 331.804688 174.90625 324.476562 182.25 315.464844 182.25 Z M 315.464844 143.804688 L 232.109375 143.804688 C 219.957031 143.804688 210.070312 153.707031 210.070312 165.886719 C 210.070312 178.058594 219.957031 187.960938 232.109375 187.960938 L 315.464844 187.960938 C 327.621094 187.960938 337.507812 178.058594 337.507812 165.882812 C 337.507812 153.707031 327.621094 143.804688 315.464844 143.804688 " fill-opacity="1" fill-rule="nonzero"/></g><path fill="#207cc2" d="M 241.765625 168.382812 L 238.296875 168.382812 C 238.070312 168.382812 237.871094 168.464844 237.714844 168.625 C 237.554688 168.785156 237.472656 168.980469 237.472656 169.210938 L 237.472656 172.683594 C 237.472656 172.914062 237.554688 173.109375 237.714844 173.269531 C 237.871094 173.429688 238.070312 173.507812 238.296875 173.507812 L 241.765625 173.507812 C 242.019531 173.507812 242.21875 173.429688 242.367188 173.269531 C 242.515625 173.109375 242.589844 172.914062 242.589844 172.683594 L 242.589844 169.210938 C 242.589844 168.980469 242.511719 168.785156 242.351562 168.625 C 242.1875 168.464844 241.996094 168.382812 241.765625 168.382812 " fill-opacity="1" fill-rule="nonzero"/><path fill="#207cc2" d="M 258.457031 165.90625 C 258.414062 167.375 258.0625 168.488281 257.410156 169.242188 C 256.757812 170 255.824219 170.378906 254.613281 170.378906 C 253.398438 170.378906 252.460938 170 251.796875 169.242188 C 251.128906 168.488281 250.777344 167.375 250.730469 165.90625 L 250.695312 164.566406 L 250.730469 163.222656 C 250.777344 161.757812 251.128906 160.640625 251.796875 159.871094 C 252.460938 159.101562 253.398438 158.71875 254.613281 158.71875 C 255.800781 158.71875 256.730469 159.101562 257.394531 159.871094 C 258.058594 160.640625 258.414062 161.757812 258.457031 163.222656 C 258.480469 163.453125 258.492188 163.898438 258.492188 164.566406 C 258.492188 165.230469 258.480469 165.679688 258.457031 165.90625 Z M 260.792969 157.359375 C 259.304688 155.972656 257.246094 155.277344 254.613281 155.277344 C 251.953125 155.277344 249.882812 155.972656 248.394531 157.359375 C 246.90625 158.746094 246.105469 160.644531 245.992188 163.050781 L 245.957031 164.566406 L 245.992188 166.078125 C 246.105469 168.511719 246.894531 170.414062 248.359375 171.789062 C 249.824219 173.164062 251.910156 173.851562 254.613281 173.851562 C 257.289062 173.851562 259.363281 173.164062 260.828125 171.789062 C 262.292969 170.414062 263.082031 168.511719 263.199219 166.078125 C 263.222656 165.804688 263.230469 165.300781 263.230469 164.566406 C 263.230469 163.832031 263.222656 163.328125 263.199219 163.050781 C 263.082031 160.644531 262.28125 158.746094 260.792969 157.359375 " fill-opacity="1" fill-rule="nonzero"/><path fill="#207cc2" d="M 277.933594 155.621094 L 276.488281 155.621094 C 274.335938 155.621094 272.6875 156.378906 271.542969 157.890625 L 271.542969 156.480469 C 271.542969 156.230469 271.464844 156.023438 271.304688 155.863281 C 271.144531 155.703125 270.9375 155.621094 270.683594 155.621094 L 267.867188 155.621094 C 267.640625 155.621094 267.445312 155.703125 267.285156 155.863281 C 267.125 156.023438 267.042969 156.230469 267.042969 156.480469 L 267.042969 172.683594 C 267.042969 172.914062 267.125 173.109375 267.285156 173.269531 C 267.445312 173.429688 267.640625 173.507812 267.867188 173.507812 L 270.925781 173.507812 C 271.152344 173.507812 271.347656 173.429688 271.507812 173.269531 C 271.667969 173.109375 271.75 172.914062 271.75 172.683594 L 271.75 163.257812 C 271.75 162.179688 272.058594 161.332031 272.675781 160.714844 C 273.296875 160.09375 274.140625 159.785156 275.21875 159.785156 L 277.933594 159.785156 C 278.183594 159.785156 278.382812 159.703125 278.535156 159.542969 C 278.683594 159.382812 278.757812 159.1875 278.757812 158.957031 L 278.757812 156.449219 C 278.757812 156.195312 278.683594 155.996094 278.535156 155.84375 C 278.382812 155.695312 278.183594 155.621094 277.933594 155.621094 " fill-opacity="1" fill-rule="nonzero"/><path fill="#207cc2" d="M 293.042969 165.460938 C 292.976562 166.652344 292.621094 167.660156 291.980469 168.488281 C 291.339844 169.3125 290.375 169.726562 289.09375 169.726562 C 286.460938 169.726562 285.144531 167.9375 285.144531 164.359375 L 285.179688 163.535156 C 285.316406 160.507812 286.621094 158.992188 289.09375 158.992188 C 290.375 158.992188 291.339844 159.40625 291.980469 160.230469 C 292.621094 161.058594 292.976562 162.066406 293.042969 163.257812 C 293.066406 163.441406 293.078125 163.808594 293.078125 164.359375 C 293.078125 164.910156 293.066406 165.277344 293.042969 165.460938 Z M 297.507812 155.863281 C 297.351562 155.703125 297.152344 155.621094 296.925781 155.621094 L 294.109375 155.621094 C 293.878906 155.621094 293.679688 155.703125 293.507812 155.863281 C 293.335938 156.023438 293.25 156.230469 293.25 156.480469 L 293.25 157.824219 C 292.65625 157.042969 291.898438 156.425781 290.984375 155.964844 C 290.066406 155.507812 289.003906 155.277344 287.789062 155.277344 C 285.429688 155.277344 283.644531 156.023438 282.429688 157.511719 C 281.21875 159.003906 280.5625 160.976562 280.472656 163.429688 L 280.4375 164.359375 L 280.472656 165.289062 C 280.5625 167.789062 281.210938 169.757812 282.414062 171.203125 C 283.617188 172.648438 285.40625 173.371094 287.789062 173.371094 C 290.054688 173.371094 291.808594 172.636719 293.042969 171.171875 L 293.042969 173.507812 C 293.042969 175.023438 292.722656 176.082031 292.082031 176.691406 C 291.441406 177.296875 290.433594 177.601562 289.058594 177.601562 C 288.007812 177.601562 287.226562 177.390625 286.722656 176.964844 C 286.21875 176.542969 285.84375 176.03125 285.589844 175.433594 C 285.5 175.160156 285.378906 174.972656 285.230469 174.867188 C 285.082031 174.765625 284.902344 174.714844 284.699219 174.714844 L 281.640625 174.714844 C 281.410156 174.714844 281.21875 174.789062 281.058594 174.9375 C 280.894531 175.085938 280.816406 175.273438 280.816406 175.503906 C 280.816406 176.125 281.078125 176.867188 281.605469 177.742188 C 282.132812 178.613281 283.027344 179.386719 284.285156 180.0625 C 285.542969 180.738281 287.191406 181.078125 289.230469 181.078125 C 292.09375 181.078125 294.234375 180.378906 295.65625 178.980469 C 297.074219 177.578125 297.78125 175.609375 297.78125 173.0625 L 297.75 156.480469 C 297.75 156.230469 297.667969 156.023438 297.507812 155.863281 " fill-opacity="1" fill-rule="nonzero"/></svg>