<svg xmlns="http://www.w3.org/2000/svg" xmlns:xlink="http://www.w3.org/1999/xlink" width="500" zoomAndPan="magnify" viewBox="0 0 375 374.999991" height="500" preserveAspectRatio="xMidYMid meet" version="1.0"><defs><clipPath id="c074d76dec"><path d="M 37.5 37.5 L 281 37.5 L 281 337.5 L 37.5 337.5 Z M 37.5 37.5 " clip-rule="nonzero"/></clipPath><clipPath id="d276a0946c"><path d="M 159 75 L 337.5 75 L 337.5 254 L 159 254 Z M 159 75 " clip-rule="nonzero"/></clipPath></defs><rect x="-37.5" width="450" fill="#ffffff" y="-37.499999" height="449.999989" fill-opacity="1"/><rect x="-37.5" width="450" fill="#ffffff" y="-37.499999" height="449.999989" fill-opacity="1"/><rect x="-37.5" width="450" fill="#1a2026" y="-37.499999" height="449.999989" fill-opacity="1"/><path fill="#207cc2" d="M 168.546875 114.957031 L 70.261719 114.957031 C 67.6875 114.957031 65.582031 117.0625 65.582031 119.636719 C 65.582031 122.210938 67.6875 124.316406 70.261719 124.316406 L 168.546875 124.316406 C 171.121094 124.316406 173.226562 122.210938 173.226562 119.636719 C 173.226562 117.0625 171.121094 114.957031 168.546875 114.957031 Z M 168.546875 114.957031 " fill-opacity="1" fill-rule="nonzero"/><path fill="#207cc2" d="M 168.546875 133.679688 L 70.261719 133.679688 C 67.6875 133.679688 65.582031 135.785156 65.582031 138.359375 C 65.582031 140.933594 67.6875 143.039062 70.261719 143.039062 L 168.546875 143.039062 C 171.121094 143.039062 173.226562 140.933594 173.226562 138.359375 C 173.226562 135.785156 171.121094 133.679688 168.546875 133.679688 Z M 168.546875 133.679688 " fill-opacity="1" fill-rule="nonzero"/><path fill="#207cc2" d="M 168.546875 152.398438 L 70.261719 152.398438 C 67.6875 152.398438 65.582031 154.503906 65.582031 157.078125 C 65.582031 159.652344 67.6875 161.757812 70.261719 161.757812 L 168.546875 161.757812 C 171.121094 161.757812 173.226562 159.652344 173.226562 157.078125 C 173.226562 154.503906 171.121094 152.398438 168.546875 152.398438 Z M 168.546875 152.398438 " fill-opacity="1" fill-rule="nonzero"/><path fill="#207cc2" d="M 173.226562 290.464844 C 173.226562 287.890625 171.121094 285.785156 168.546875 285.785156 L 70.261719 285.785156 C 67.6875 285.785156 65.582031 287.890625 65.582031 290.464844 C 65.582031 293.039062 67.6875 295.144531 70.261719 295.144531 L 168.546875 295.144531 C 171.121094 295.144531 173.226562 293.039062 173.226562 290.464844 Z M 173.226562 290.464844 " fill-opacity="1" fill-rule="nonzero"/><path fill="#207cc2" d="M 70.261719 304.503906 C 67.6875 304.503906 65.582031 306.609375 65.582031 309.183594 C 65.582031 311.757812 67.6875 313.863281 70.261719 313.863281 L 138.125 313.863281 C 140.699219 313.863281 142.804688 311.757812 142.804688 309.183594 C 142.804688 306.609375 140.699219 304.503906 138.125 304.503906 Z M 70.261719 304.503906 " fill-opacity="1" fill-rule="nonzero"/><path fill="#207cc2" d="M 138.125 220.261719 C 140.699219 220.261719 142.804688 218.15625 142.804688 215.582031 C 142.804688 213.007812 140.699219 210.902344 138.125 210.902344 L 70.261719 210.902344 C 67.6875 210.902344 65.582031 213.007812 65.582031 215.582031 C 65.582031 218.15625 67.6875 220.261719 70.261719 220.261719 Z M 138.125 220.261719 " fill-opacity="1" fill-rule="nonzero"/><path fill="#207cc2" d="M 65.582031 257.703125 C 65.582031 262.851562 69.792969 267.0625 74.941406 267.0625 L 93.664062 267.0625 C 98.808594 267.0625 103.023438 262.851562 103.023438 257.703125 L 103.023438 238.980469 C 103.023438 233.832031 98.808594 229.621094 93.664062 229.621094 L 74.941406 229.621094 C 69.792969 229.621094 65.582031 233.832031 65.582031 238.980469 Z M 74.941406 238.980469 L 93.664062 238.980469 L 93.664062 257.703125 L 74.941406 257.703125 Z M 74.941406 238.980469 " fill-opacity="1" fill-rule="nonzero"/><path fill="#207cc2" d="M 165.738281 198.734375 L 172.289062 192.179688 L 70.261719 192.179688 C 67.6875 192.179688 65.582031 194.285156 65.582031 196.859375 C 65.582031 199.433594 67.6875 201.539062 70.261719 201.539062 L 163.398438 201.539062 C 164.097656 200.371094 164.800781 199.433594 165.738281 198.734375 Z M 165.738281 198.734375 " fill-opacity="1" fill-rule="nonzero"/><path fill="#207cc2" d="M 252.320312 111.914062 C 251.152344 108.171875 247.640625 105.597656 243.429688 105.597656 L 196.625 105.597656 C 191.476562 105.597656 187.265625 109.808594 187.265625 114.957031 L 187.265625 161.757812 C 187.265625 165.972656 190.074219 169.246094 193.585938 170.652344 L 202.476562 161.757812 L 196.625 161.757812 L 196.625 114.957031 L 243.429688 114.957031 L 243.429688 120.808594 Z M 252.320312 111.914062 " fill-opacity="1" fill-rule="nonzero"/><path fill="#207cc2" d="M 210.433594 247.640625 L 205.988281 249.042969 L 205.988281 257.703125 C 205.988281 262.851562 210.199219 267.0625 215.347656 267.0625 L 234.066406 267.0625 C 239.214844 267.0625 243.429688 262.851562 243.429688 257.703125 L 243.429688 238.980469 C 243.429688 233.832031 239.214844 229.621094 234.066406 229.621094 L 230.558594 229.621094 L 221.199219 238.980469 L 234.066406 238.980469 L 234.066406 257.703125 L 215.347656 257.703125 L 215.347656 244.832031 C 213.941406 246.003906 212.304688 246.9375 210.433594 247.640625 Z M 210.433594 247.640625 " fill-opacity="1" fill-rule="nonzero"/><path fill="#207cc2" d="M 151.929688 238.980469 L 154.738281 229.621094 L 145.144531 229.621094 C 139.996094 229.621094 135.785156 233.832031 135.785156 238.980469 L 135.785156 257.703125 C 135.785156 262.851562 139.996094 267.0625 145.144531 267.0625 L 163.863281 267.0625 C 168.078125 267.0625 171.820312 264.019531 172.757812 260.042969 L 168.3125 261.445312 C 166.90625 262.148438 165.269531 262.382812 163.863281 262.382812 C 160.121094 262.382812 156.84375 260.980469 154.035156 258.40625 C 153.800781 258.171875 153.570312 257.9375 153.335938 257.703125 L 145.144531 257.703125 L 145.144531 238.980469 Z M 151.929688 238.980469 " fill-opacity="1" fill-rule="nonzero"/><g clip-path="url(#c074d76dec)"><path fill="#207cc2" d="M 280.871094 83.367188 L 280.871094 56.453125 C 280.871094 46.160156 272.445312 37.734375 262.148438 37.734375 L 56.222656 37.734375 C 45.925781 37.734375 37.5 46.160156 37.5 56.453125 L 37.5 318.546875 C 37.5 328.839844 45.925781 337.265625 56.222656 337.265625 L 262.148438 337.265625 C 272.445312 337.265625 280.871094 328.839844 280.871094 318.546875 L 280.871094 179.308594 L 271.507812 188.671875 L 271.507812 318.546875 C 271.507812 323.695312 267.296875 327.90625 262.148438 327.90625 L 56.222656 327.90625 C 51.074219 327.90625 46.859375 323.695312 46.859375 318.546875 L 46.859375 79.855469 L 271.507812 79.855469 L 271.507812 92.726562 Z M 46.859375 70.496094 L 46.859375 56.453125 C 46.859375 51.304688 51.074219 47.09375 56.222656 47.09375 L 262.148438 47.09375 C 267.296875 47.09375 271.507812 51.304688 271.507812 56.453125 L 271.507812 70.496094 Z M 46.859375 70.496094 " fill-opacity="1" fill-rule="nonzero"/></g><g clip-path="url(#d276a0946c)"><path fill="#207cc2" d="M 307.546875 76.578125 C 305.675781 74.707031 302.867188 74.707031 300.996094 76.578125 L 172.289062 205.285156 C 171.820312 205.753906 171.351562 206.453125 171.121094 207.15625 L 159.417969 246.9375 C 158.949219 248.578125 159.417969 250.449219 160.589844 251.617188 C 161.523438 252.554688 162.695312 253.023438 163.863281 253.023438 C 164.332031 253.023438 164.800781 253.023438 165.269531 252.789062 L 207.390625 238.746094 C 208.09375 238.515625 208.792969 238.046875 209.261719 237.578125 L 335.628906 111.214844 C 337.5 109.339844 337.5 106.53125 335.628906 104.660156 Z M 170.886719 241.089844 L 179.777344 211.136719 L 180.246094 210.667969 L 200.839844 231.257812 Z M 208.328125 225.410156 L 186.796875 203.878906 L 287.890625 102.789062 L 309.417969 124.316406 Z M 315.972656 117.765625 L 294.441406 96.238281 L 304.269531 86.40625 L 325.800781 107.9375 Z M 315.972656 117.765625 " fill-opacity="1" fill-rule="nonzero"/></g></svg>