<svg xmlns="http://www.w3.org/2000/svg" xmlns:xlink="http://www.w3.org/1999/xlink" width="500" zoomAndPan="magnify" viewBox="0 0 375 374.999991" height="500" preserveAspectRatio="xMidYMid meet" version="1.0"><defs><clipPath id="fbfd3ed677"><path d="M 37.5 55.5 L 337.5 55.5 L 337.5 319.5 L 37.5 319.5 Z M 37.5 55.5 " clip-rule="nonzero"/></clipPath></defs><rect x="-37.5" width="450" fill="#ffffff" y="-37.499999" height="449.999989" fill-opacity="1"/><rect x="-37.5" width="450" fill="#1a2026" y="-37.499999" height="449.999989" fill-opacity="1"/><g clip-path="url(#fbfd3ed677)"><path fill="#207cc2" d="M 59.066406 55.5 C 47.332031 55.5 37.664062 65.167969 37.664062 76.90625 L 37.664062 298.09375 C 37.664062 309.832031 47.332031 319.5 59.066406 319.5 L 315.933594 319.5 C 327.667969 319.5 337.335938 309.832031 337.335938 298.09375 L 337.335938 76.90625 C 337.335938 65.167969 327.667969 55.5 315.933594 55.5 Z M 59.066406 69.769531 L 315.933594 69.769531 C 319.964844 69.769531 323.066406 72.875 323.066406 76.90625 L 323.066406 98.3125 L 51.933594 98.3125 L 51.933594 76.90625 C 51.933594 72.875 55.035156 69.769531 59.066406 69.769531 Z M 66.203125 76.90625 C 65.734375 76.90625 65.269531 76.949219 64.8125 77.042969 C 64.351562 77.132812 63.90625 77.269531 63.472656 77.449219 C 63.039062 77.628906 62.628906 77.847656 62.238281 78.109375 C 61.847656 78.367188 61.488281 78.664062 61.15625 78.996094 C 60.824219 79.328125 60.53125 79.6875 60.269531 80.078125 C 60.011719 80.464844 59.789062 80.878906 59.609375 81.308594 C 59.429688 81.742188 59.296875 82.1875 59.203125 82.648438 C 59.113281 83.109375 59.066406 83.570312 59.066406 84.039062 C 59.066406 84.507812 59.113281 84.972656 59.203125 85.433594 C 59.296875 85.890625 59.429688 86.339844 59.609375 86.769531 C 59.789062 87.203125 60.011719 87.613281 60.269531 88.003906 C 60.53125 88.394531 60.824219 88.753906 61.15625 89.085938 C 61.488281 89.417969 61.847656 89.714844 62.238281 89.972656 C 62.628906 90.234375 63.039062 90.453125 63.472656 90.632812 C 63.90625 90.8125 64.351562 90.945312 64.8125 91.039062 C 65.269531 91.128906 65.734375 91.175781 66.203125 91.175781 C 66.671875 91.175781 67.136719 91.128906 67.59375 91.039062 C 68.054688 90.945312 68.5 90.8125 68.933594 90.632812 C 69.367188 90.453125 69.777344 90.234375 70.167969 89.972656 C 70.554688 89.714844 70.917969 89.417969 71.246094 89.085938 C 71.578125 88.753906 71.875 88.394531 72.136719 88.003906 C 72.394531 87.613281 72.617188 87.203125 72.792969 86.769531 C 72.972656 86.339844 73.109375 85.890625 73.199219 85.433594 C 73.292969 84.972656 73.335938 84.507812 73.335938 84.039062 C 73.335938 83.570312 73.292969 83.109375 73.199219 82.648438 C 73.109375 82.1875 72.972656 81.742188 72.792969 81.308594 C 72.617188 80.878906 72.394531 80.464844 72.136719 80.078125 C 71.875 79.6875 71.578125 79.328125 71.246094 78.996094 C 70.917969 78.664062 70.554688 78.367188 70.167969 78.109375 C 69.777344 77.847656 69.367188 77.628906 68.933594 77.449219 C 68.5 77.269531 68.054688 77.132812 67.59375 77.042969 C 67.136719 76.949219 66.671875 76.90625 66.203125 76.90625 Z M 87.609375 76.90625 C 87.140625 76.90625 86.675781 76.949219 86.214844 77.042969 C 85.757812 77.132812 85.308594 77.269531 84.878906 77.449219 C 84.445312 77.628906 84.035156 77.847656 83.644531 78.109375 C 83.253906 78.367188 82.894531 78.664062 82.5625 78.996094 C 82.230469 79.328125 81.9375 79.6875 81.675781 80.078125 C 81.414062 80.464844 81.195312 80.878906 81.015625 81.308594 C 80.835938 81.742188 80.703125 82.1875 80.609375 82.648438 C 80.519531 83.109375 80.472656 83.570312 80.472656 84.039062 C 80.472656 84.507812 80.519531 84.972656 80.609375 85.433594 C 80.703125 85.890625 80.835938 86.339844 81.015625 86.769531 C 81.195312 87.203125 81.414062 87.613281 81.675781 88.003906 C 81.9375 88.394531 82.230469 88.753906 82.5625 89.085938 C 82.894531 89.417969 83.253906 89.714844 83.644531 89.972656 C 84.035156 90.234375 84.445312 90.453125 84.878906 90.632812 C 85.308594 90.8125 85.757812 90.945312 86.214844 91.039062 C 86.675781 91.128906 87.140625 91.175781 87.609375 91.175781 C 88.078125 91.175781 88.539062 91.128906 89 91.039062 C 89.460938 90.945312 89.90625 90.8125 90.339844 90.632812 C 90.769531 90.453125 91.183594 90.234375 91.570312 89.972656 C 91.960938 89.714844 92.320312 89.417969 92.652344 89.085938 C 92.984375 88.753906 93.28125 88.394531 93.539062 88.003906 C 93.800781 87.613281 94.019531 87.203125 94.199219 86.769531 C 94.378906 86.339844 94.515625 85.890625 94.605469 85.433594 C 94.699219 84.972656 94.742188 84.507812 94.742188 84.039062 C 94.742188 83.570312 94.699219 83.109375 94.605469 82.648438 C 94.515625 82.1875 94.378906 81.742188 94.199219 81.308594 C 94.019531 80.878906 93.800781 80.464844 93.539062 80.078125 C 93.28125 79.6875 92.984375 79.328125 92.652344 78.996094 C 92.320312 78.664062 91.960938 78.367188 91.570312 78.109375 C 91.183594 77.847656 90.769531 77.628906 90.339844 77.449219 C 89.90625 77.269531 89.460938 77.132812 89 77.042969 C 88.539062 76.949219 88.078125 76.90625 87.609375 76.90625 Z M 109.011719 76.90625 C 108.546875 76.90625 108.082031 76.949219 107.621094 77.042969 C 107.160156 77.132812 106.714844 77.269531 106.28125 77.449219 C 105.851562 77.628906 105.4375 77.847656 105.050781 78.109375 C 104.660156 78.367188 104.300781 78.664062 103.96875 78.996094 C 103.636719 79.328125 103.339844 79.6875 103.082031 80.078125 C 102.820312 80.464844 102.601562 80.878906 102.421875 81.308594 C 102.242188 81.742188 102.105469 82.1875 102.015625 82.648438 C 101.925781 83.109375 101.878906 83.570312 101.878906 84.039062 C 101.878906 84.507812 101.925781 84.972656 102.015625 85.433594 C 102.105469 85.890625 102.242188 86.339844 102.421875 86.769531 C 102.601562 87.203125 102.820312 87.613281 103.082031 88.003906 C 103.339844 88.394531 103.636719 88.753906 103.96875 89.085938 C 104.300781 89.417969 104.660156 89.714844 105.050781 89.972656 C 105.4375 90.234375 105.851562 90.453125 106.28125 90.632812 C 106.714844 90.8125 107.160156 90.945312 107.621094 91.039062 C 108.082031 91.128906 108.546875 91.175781 109.011719 91.175781 C 109.480469 91.175781 109.945312 91.128906 110.40625 91.039062 C 110.863281 90.945312 111.3125 90.8125 111.742188 90.632812 C 112.175781 90.453125 112.589844 90.234375 112.976562 89.972656 C 113.367188 89.714844 113.726562 89.417969 114.058594 89.085938 C 114.390625 88.753906 114.6875 88.394531 114.945312 88.003906 C 115.207031 87.613281 115.425781 87.203125 115.605469 86.769531 C 115.785156 86.339844 115.921875 85.890625 116.011719 85.433594 C 116.101562 84.972656 116.148438 84.507812 116.148438 84.039062 C 116.148438 83.570312 116.101562 83.109375 116.011719 82.648438 C 115.921875 82.1875 115.785156 81.742188 115.605469 81.308594 C 115.425781 80.878906 115.207031 80.464844 114.945312 80.078125 C 114.6875 79.6875 114.390625 79.328125 114.058594 78.996094 C 113.726562 78.664062 113.367188 78.367188 112.976562 78.109375 C 112.589844 77.847656 112.175781 77.628906 111.742188 77.449219 C 111.3125 77.269531 110.863281 77.132812 110.40625 77.042969 C 109.945312 76.949219 109.480469 76.90625 109.011719 76.90625 Z M 51.933594 112.582031 L 323.066406 112.582031 L 323.066406 298.09375 C 323.066406 302.125 319.964844 305.230469 315.933594 305.230469 L 59.066406 305.230469 C 55.035156 305.230469 51.933594 302.125 51.933594 298.09375 Z M 116.148438 133.988281 C 104.410156 133.988281 94.742188 143.65625 94.742188 155.390625 L 94.742188 262.417969 C 94.742188 274.15625 104.410156 283.824219 116.148438 283.824219 L 258.851562 283.824219 C 270.589844 283.824219 280.257812 274.15625 280.257812 262.417969 L 280.257812 155.390625 C 280.257812 143.65625 270.589844 133.988281 258.851562 133.988281 Z M 116.148438 148.257812 L 258.851562 148.257812 C 262.882812 148.257812 265.988281 151.359375 265.988281 155.390625 L 265.988281 176.796875 L 109.011719 176.796875 L 109.011719 155.390625 C 109.011719 151.359375 112.117188 148.257812 116.148438 148.257812 Z M 109.011719 191.066406 L 265.988281 191.066406 L 265.988281 262.417969 C 265.988281 266.449219 262.882812 269.554688 258.851562 269.554688 L 116.148438 269.554688 C 112.117188 269.554688 109.011719 266.449219 109.011719 262.417969 Z M 109.011719 191.066406 " fill-opacity="1" fill-rule="nonzero"/></g></svg>