<svg xmlns="http://www.w3.org/2000/svg" xmlns:xlink="http://www.w3.org/1999/xlink" width="256" zoomAndPan="magnify" viewBox="0 0 192 72" height="96" preserveAspectRatio="xMidYMid meet" version="1.0"><defs><g/><clipPath id="08ea19143f"><path d="M 179.398438 9.964844 L 190.199219 9.964844 L 190.199219 28.863281 L 179.398438 28.863281 Z M 179.398438 9.964844 " clip-rule="nonzero"/></clipPath><clipPath id="582371a1cd"><path d="M 184.800781 9.964844 L 190.199219 9.964844 L 184.800781 28.835938 L 179.398438 28.835938 L 184.800781 9.964844 " clip-rule="nonzero"/></clipPath></defs><rect x="-19.2" width="230.4" fill="#ffffff" y="-7.2" height="86.4" fill-opacity="1"/><rect x="-19.2" width="230.4" fill="#ffffff" y="-7.2" height="86.4" fill-opacity="1"/><rect x="-19.2" width="230.4" fill="#1a2026" y="-7.2" height="86.4" fill-opacity="1"/><g fill="#8784a1" fill-opacity="1"><g transform="translate(145.671543, 28.849981)"><g><path d="M 6.5 0.265625 C 5.007812 0.265625 3.90625 0.15625 3.1875 -0.0625 C 2.476562 -0.28125 1.984375 -0.691406 1.703125 -1.296875 C 1.429688 -1.898438 1.296875 -2.847656 1.296875 -4.140625 L 1.296875 -9.046875 C 1.296875 -10.429688 1.691406 -11.410156 2.484375 -11.984375 C 3.273438 -12.554688 4.550781 -12.84375 6.3125 -12.84375 C 7.144531 -12.84375 7.800781 -12.796875 8.28125 -12.703125 C 8.757812 -12.609375 9.144531 -12.441406 9.4375 -12.203125 C 9.726562 -11.972656 10.03125 -11.632812 10.34375 -11.1875 L 10.34375 -18.203125 L 14.140625 -18.203125 L 14.140625 0 L 10.484375 0 L 10.484375 -1.4375 C 10.171875 -0.925781 9.882812 -0.570312 9.625 -0.375 C 9.375 -0.175781 9.023438 -0.0234375 8.578125 0.078125 C 8.109375 0.203125 7.414062 0.265625 6.5 0.265625 Z M 7.46875 -2.109375 C 8.3125 -2.109375 8.929688 -2.148438 9.328125 -2.234375 C 9.734375 -2.316406 10.003906 -2.472656 10.140625 -2.703125 C 10.273438 -2.941406 10.34375 -3.296875 10.34375 -3.765625 L 10.34375 -8.84375 C 10.34375 -9.269531 10.269531 -9.597656 10.125 -9.828125 C 9.976562 -10.066406 9.71875 -10.238281 9.34375 -10.34375 C 8.96875 -10.445312 8.410156 -10.5 7.671875 -10.5 C 6.867188 -10.5 6.296875 -10.453125 5.953125 -10.359375 C 5.609375 -10.265625 5.378906 -10.097656 5.265625 -9.859375 C 5.148438 -9.628906 5.09375 -9.242188 5.09375 -8.703125 L 5.09375 -3.90625 C 5.09375 -3.414062 5.148438 -3.046875 5.265625 -2.796875 C 5.378906 -2.546875 5.597656 -2.367188 5.921875 -2.265625 C 6.253906 -2.160156 6.769531 -2.109375 7.46875 -2.109375 Z M 7.46875 -2.109375 "/></g></g></g><g fill="#8784a1" fill-opacity="1"><g transform="translate(160.382822, 28.849981)"><g><path d="M 7.984375 0.265625 C 3.523438 0.265625 1.296875 -1.097656 1.296875 -3.828125 L 1.296875 -8.34375 C 1.296875 -9.925781 1.800781 -11.070312 2.8125 -11.78125 C 3.832031 -12.488281 5.398438 -12.84375 7.515625 -12.84375 C 9.503906 -12.84375 10.960938 -12.5 11.890625 -11.8125 C 12.816406 -11.132812 13.28125 -9.976562 13.28125 -8.34375 L 13.28125 -5.28125 L 5.125 -5.28125 L 5.125 -4.140625 C 5.125 -3.410156 5.382812 -2.890625 5.90625 -2.578125 C 6.425781 -2.265625 7.359375 -2.109375 8.703125 -2.109375 C 9.953125 -2.109375 11.359375 -2.289062 12.921875 -2.65625 L 12.921875 -0.234375 C 11.378906 0.0976562 9.734375 0.265625 7.984375 0.265625 Z M 9.671875 -7.4375 L 9.671875 -9.25 C 9.671875 -9.664062 9.5 -9.976562 9.15625 -10.1875 C 8.820312 -10.394531 8.257812 -10.5 7.46875 -10.5 C 6.539062 -10.5 5.921875 -10.394531 5.609375 -10.1875 C 5.285156 -9.96875 5.125 -9.65625 5.125 -9.25 L 5.125 -7.4375 Z M 9.671875 -7.4375 "/></g></g></g><g fill="#8784a1" fill-opacity="1"><g transform="translate(173.820477, 28.849981)"><g><path d="M 0 -12.578125 L 4.03125 -12.578125 L 6.78125 -3.875 L 9.4375 -12.578125 L 13.265625 -12.578125 L 8.625 0 L 4.78125 0 Z M 0 -12.578125 "/></g></g></g><g fill="#f5f6f7" fill-opacity="1"><g transform="translate(2.367187, 51.289334)"><g><path d="M 8.234375 -0.15625 L 0.328125 -19.84375 L 6.84375 -19.84375 L 11.3125 -5.828125 L 15.375 -19.84375 L 21.5625 -19.84375 L 10.703125 8.53125 L 4.640625 8.53125 Z M 8.234375 -0.15625 "/></g></g></g><g fill="#f5f6f7" fill-opacity="1"><g transform="translate(24.257022, 51.289334)"><g><path d="M 8.234375 0.40625 C 6.378906 0.40625 4.992188 0.238281 4.078125 -0.09375 C 3.160156 -0.4375 2.515625 -1.050781 2.140625 -1.9375 C 1.773438 -2.832031 1.59375 -4.164062 1.59375 -5.9375 C 1.59375 -7.53125 1.789062 -8.773438 2.1875 -9.671875 C 2.582031 -10.578125 3.222656 -11.226562 4.109375 -11.625 C 5.003906 -12.019531 6.234375 -12.21875 7.796875 -12.21875 L 14.515625 -12.21875 L 14.515625 -13.578125 C 14.515625 -14.421875 14.394531 -15.046875 14.15625 -15.453125 C 13.925781 -15.867188 13.503906 -16.15625 12.890625 -16.3125 C 12.273438 -16.476562 11.351562 -16.5625 10.125 -16.5625 C 8.425781 -16.5625 6.101562 -16.398438 3.15625 -16.078125 L 3.15625 -19.84375 C 5.3125 -20.113281 7.835938 -20.25 10.734375 -20.25 C 13.285156 -20.25 15.25 -20.054688 16.625 -19.671875 C 18.007812 -19.296875 19 -18.640625 19.59375 -17.703125 C 20.195312 -16.773438 20.5 -15.425781 20.5 -13.65625 L 20.5 0 L 14.640625 0 L 14.640625 -1.796875 C 14.171875 -1.003906 13.539062 -0.445312 12.75 -0.125 C 11.957031 0.226562 10.453125 0.40625 8.234375 0.40625 Z M 10.578125 -3.328125 C 11.773438 -3.328125 12.632812 -3.363281 13.15625 -3.4375 C 13.539062 -3.5 13.804688 -3.582031 13.953125 -3.6875 C 14.109375 -3.800781 14.238281 -3.976562 14.34375 -4.21875 C 14.457031 -4.414062 14.515625 -4.703125 14.515625 -5.078125 L 14.515625 -8.9375 L 10.40625 -8.9375 C 9.476562 -8.9375 8.820312 -8.875 8.4375 -8.75 C 8.0625 -8.625 7.804688 -8.378906 7.671875 -8.015625 C 7.535156 -7.648438 7.46875 -7 7.46875 -6.0625 C 7.46875 -5.164062 7.535156 -4.539062 7.671875 -4.1875 C 7.804688 -3.832031 8.070312 -3.597656 8.46875 -3.484375 C 8.863281 -3.378906 9.566406 -3.328125 10.578125 -3.328125 Z M 10.578125 -3.328125 "/></g></g></g><g fill="#f5f6f7" fill-opacity="1"><g transform="translate(47.376627, 51.289334)"><g><path d="M 2.625 -19.84375 L 8.328125 -19.84375 L 8.328125 -16.359375 C 8.328125 -16.984375 8.582031 -17.597656 9.09375 -18.203125 C 9.613281 -18.804688 10.273438 -19.296875 11.078125 -19.671875 C 11.890625 -20.054688 12.691406 -20.25 13.484375 -20.25 L 15.625 -20.25 L 15.625 -15.296875 L 13.578125 -15.296875 C 11.878906 -15.296875 10.625 -15.035156 9.8125 -14.515625 C 9.007812 -13.992188 8.609375 -13.132812 8.609375 -11.9375 L 8.609375 0 L 2.625 0 Z M 2.625 -19.84375 "/></g></g></g><g fill="#f5f6f7" fill-opacity="1"><g transform="translate(63.650525, 51.289334)"><g><path d="M 8.234375 0.40625 C 6.378906 0.40625 4.992188 0.238281 4.078125 -0.09375 C 3.160156 -0.4375 2.515625 -1.050781 2.140625 -1.9375 C 1.773438 -2.832031 1.59375 -4.164062 1.59375 -5.9375 C 1.59375 -7.53125 1.789062 -8.773438 2.1875 -9.671875 C 2.582031 -10.578125 3.222656 -11.226562 4.109375 -11.625 C 5.003906 -12.019531 6.234375 -12.21875 7.796875 -12.21875 L 14.515625 -12.21875 L 14.515625 -13.578125 C 14.515625 -14.421875 14.394531 -15.046875 14.15625 -15.453125 C 13.925781 -15.867188 13.503906 -16.15625 12.890625 -16.3125 C 12.273438 -16.476562 11.351562 -16.5625 10.125 -16.5625 C 8.425781 -16.5625 6.101562 -16.398438 3.15625 -16.078125 L 3.15625 -19.84375 C 5.3125 -20.113281 7.835938 -20.25 10.734375 -20.25 C 13.285156 -20.25 15.25 -20.054688 16.625 -19.671875 C 18.007812 -19.296875 19 -18.640625 19.59375 -17.703125 C 20.195312 -16.773438 20.5 -15.425781 20.5 -13.65625 L 20.5 0 L 14.640625 0 L 14.640625 -1.796875 C 14.171875 -1.003906 13.539062 -0.445312 12.75 -0.125 C 11.957031 0.226562 10.453125 0.40625 8.234375 0.40625 Z M 10.578125 -3.328125 C 11.773438 -3.328125 12.632812 -3.363281 13.15625 -3.4375 C 13.539062 -3.5 13.804688 -3.582031 13.953125 -3.6875 C 14.109375 -3.800781 14.238281 -3.976562 14.34375 -4.21875 C 14.457031 -4.414062 14.515625 -4.703125 14.515625 -5.078125 L 14.515625 -8.9375 L 10.40625 -8.9375 C 9.476562 -8.9375 8.820312 -8.875 8.4375 -8.75 C 8.0625 -8.625 7.804688 -8.378906 7.671875 -8.015625 C 7.535156 -7.648438 7.46875 -7 7.46875 -6.0625 C 7.46875 -5.164062 7.535156 -4.539062 7.671875 -4.1875 C 7.804688 -3.832031 8.070312 -3.597656 8.46875 -3.484375 C 8.863281 -3.378906 9.566406 -3.328125 10.578125 -3.328125 Z M 10.578125 -3.328125 "/></g></g></g><g fill="#f5f6f7" fill-opacity="1"><g transform="translate(86.77013, 51.289334)"><g><path d="M 2.78125 -28.703125 L 8.78125 -28.703125 L 8.78125 0 L 2.78125 0 Z M 2.78125 -28.703125 "/></g></g></g><g fill="#f5f6f7" fill-opacity="1"><g transform="translate(98.329932, 51.289334)"><g><path d="M 2.78125 -27.015625 L 8.78125 -27.015625 L 8.78125 -22.1875 L 2.78125 -22.1875 Z M 2.78125 -19.84375 L 8.78125 -19.84375 L 8.78125 0 L 2.78125 0 Z M 2.78125 -19.84375 "/></g></g></g><g fill="#f5f6f7" fill-opacity="1"><g transform="translate(109.889735, 51.289334)"><g><path d="M 2.625 -19.84375 L 8.53125 -19.84375 L 8.53125 -17.421875 C 8.988281 -19.304688 11.109375 -20.25 14.890625 -20.25 C 17.429688 -20.25 19.210938 -19.789062 20.234375 -18.875 C 21.253906 -17.957031 21.765625 -16.519531 21.765625 -14.5625 L 21.765625 0 L 15.78125 0 L 15.78125 -13.78125 C 15.78125 -14.539062 15.703125 -15.113281 15.546875 -15.5 C 15.398438 -15.882812 15.101562 -16.15625 14.65625 -16.3125 C 14.207031 -16.476562 13.519531 -16.5625 12.59375 -16.5625 C 11.414062 -16.5625 10.550781 -16.484375 10 -16.328125 C 9.457031 -16.179688 9.085938 -15.914062 8.890625 -15.53125 C 8.703125 -15.15625 8.609375 -14.570312 8.609375 -13.78125 L 8.609375 0 L 2.625 0 Z M 2.625 -19.84375 "/></g></g></g><g fill="#f5f6f7" fill-opacity="1"><g transform="translate(134.280091, 51.289334)"><g><path d="M 2.625 -28.703125 L 8.609375 -28.703125 L 8.609375 0 L 2.625 0 Z M 8.859375 -11.15625 L 15.375 -19.84375 L 22.21875 -19.84375 L 15.328125 -11.1875 L 22.796875 0 L 16.03125 0 Z M 8.859375 -11.15625 "/></g></g></g><g clip-path="url(#08ea19143f)"><g clip-path="url(#582371a1cd)"><path fill="#8784a1" d="M 179.398438 9.964844 L 190.199219 9.964844 L 190.199219 28.863281 L 179.398438 28.863281 Z M 179.398438 9.964844 " fill-opacity="1" fill-rule="nonzero"/></g></g></svg>