<svg xmlns="http://www.w3.org/2000/svg" xmlns:xlink="http://www.w3.org/1999/xlink" width="256" zoomAndPan="magnify" viewBox="0 0 192 72" height="96" preserveAspectRatio="xMidYMid meet" version="1.0"><defs><g/></defs><g fill="#207cc2" fill-opacity="1"><g transform="translate(143.888725, 27.449978)"><g><path d="M 1.75 -16.21875 L 8.65625 -16.21875 C 10.550781 -16.21875 12.046875 -16.070312 13.140625 -15.78125 C 14.242188 -15.488281 15.050781 -14.984375 15.5625 -14.265625 C 16.082031 -13.554688 16.34375 -12.566406 16.34375 -11.296875 L 16.34375 -4.703125 C 16.34375 -3.460938 16.101562 -2.503906 15.625 -1.828125 C 15.144531 -1.160156 14.351562 -0.6875 13.25 -0.40625 C 12.144531 -0.132812 10.617188 0 8.671875 0 L 1.75 0 Z M 8.5 -2.78125 C 9.5625 -2.78125 10.363281 -2.820312 10.90625 -2.90625 C 11.445312 -3 11.835938 -3.175781 12.078125 -3.4375 C 12.328125 -3.707031 12.453125 -4.128906 12.453125 -4.703125 L 12.453125 -11.375 C 12.453125 -12.144531 12.144531 -12.679688 11.53125 -12.984375 C 10.925781 -13.296875 9.957031 -13.453125 8.625 -13.453125 L 5.65625 -13.453125 L 5.65625 -2.78125 Z M 8.5 -2.78125 "/></g></g></g><g fill="#207cc2" fill-opacity="1"><g transform="translate(160.585921, 27.449978)"><g><path d="M 1.75 -16.21875 L 14.125 -16.21875 L 14.125 -13.453125 L 5.65625 -13.453125 L 5.65625 -9.71875 L 13.296875 -9.71875 L 13.296875 -6.953125 L 5.65625 -6.953125 L 5.65625 -2.78125 L 14.375 -2.78125 L 14.375 0 L 1.75 0 Z M 1.75 -16.21875 "/></g></g></g><g fill="#207cc2" fill-opacity="1"><g transform="translate(174.783509, 27.449978)"><g><path d="M 0 -16.21875 L 3.953125 -16.21875 L 8.296875 -3.25 L 8.40625 -3.25 L 12.75 -16.21875 L 16.59375 -16.21875 L 10.59375 0 L 5.828125 0 Z M 0 -16.21875 "/></g></g></g><g fill="#8784a1" fill-opacity="1"><g transform="translate(0.697254, 51.289334)"><g><path d="M 8.234375 -0.15625 L 0.328125 -19.84375 L 6.84375 -19.84375 L 11.3125 -5.828125 L 15.375 -19.84375 L 21.5625 -19.84375 L 10.703125 8.53125 L 4.640625 8.53125 Z M 8.234375 -0.15625 "/></g></g></g><g fill="#8784a1" fill-opacity="1"><g transform="translate(22.587088, 51.289334)"><g><path d="M 8.234375 0.40625 C 6.378906 0.40625 4.992188 0.238281 4.078125 -0.09375 C 3.160156 -0.4375 2.515625 -1.050781 2.140625 -1.9375 C 1.773438 -2.832031 1.59375 -4.164062 1.59375 -5.9375 C 1.59375 -7.53125 1.789062 -8.773438 2.1875 -9.671875 C 2.582031 -10.578125 3.222656 -11.226562 4.109375 -11.625 C 5.003906 -12.019531 6.234375 -12.21875 7.796875 -12.21875 L 14.515625 -12.21875 L 14.515625 -13.578125 C 14.515625 -14.421875 14.394531 -15.046875 14.15625 -15.453125 C 13.925781 -15.867188 13.503906 -16.15625 12.890625 -16.3125 C 12.273438 -16.476562 11.351562 -16.5625 10.125 -16.5625 C 8.425781 -16.5625 6.101562 -16.398438 3.15625 -16.078125 L 3.15625 -19.84375 C 5.3125 -20.113281 7.835938 -20.25 10.734375 -20.25 C 13.285156 -20.25 15.25 -20.054688 16.625 -19.671875 C 18.007812 -19.296875 19 -18.640625 19.59375 -17.703125 C 20.195312 -16.773438 20.5 -15.425781 20.5 -13.65625 L 20.5 0 L 14.640625 0 L 14.640625 -1.796875 C 14.171875 -1.003906 13.539062 -0.445312 12.75 -0.125 C 11.957031 0.226562 10.453125 0.40625 8.234375 0.40625 Z M 10.578125 -3.328125 C 11.773438 -3.328125 12.632812 -3.363281 13.15625 -3.4375 C 13.539062 -3.5 13.804688 -3.582031 13.953125 -3.6875 C 14.109375 -3.800781 14.238281 -3.976562 14.34375 -4.21875 C 14.457031 -4.414062 14.515625 -4.703125 14.515625 -5.078125 L 14.515625 -8.9375 L 10.40625 -8.9375 C 9.476562 -8.9375 8.820312 -8.875 8.4375 -8.75 C 8.0625 -8.625 7.804688 -8.378906 7.671875 -8.015625 C 7.535156 -7.648438 7.46875 -7 7.46875 -6.0625 C 7.46875 -5.164062 7.535156 -4.539062 7.671875 -4.1875 C 7.804688 -3.832031 8.070312 -3.597656 8.46875 -3.484375 C 8.863281 -3.378906 9.566406 -3.328125 10.578125 -3.328125 Z M 10.578125 -3.328125 "/></g></g></g><g fill="#8784a1" fill-opacity="1"><g transform="translate(45.706693, 51.289334)"><g><path d="M 2.625 -19.84375 L 8.328125 -19.84375 L 8.328125 -16.359375 C 8.328125 -16.984375 8.582031 -17.597656 9.09375 -18.203125 C 9.613281 -18.804688 10.273438 -19.296875 11.078125 -19.671875 C 11.890625 -20.054688 12.691406 -20.25 13.484375 -20.25 L 15.625 -20.25 L 15.625 -15.296875 L 13.578125 -15.296875 C 11.878906 -15.296875 10.625 -15.035156 9.8125 -14.515625 C 9.007812 -13.992188 8.609375 -13.132812 8.609375 -11.9375 L 8.609375 0 L 2.625 0 Z M 2.625 -19.84375 "/></g></g></g><g fill="#8784a1" fill-opacity="1"><g transform="translate(61.980591, 51.289334)"><g><path d="M 8.234375 0.40625 C 6.378906 0.40625 4.992188 0.238281 4.078125 -0.09375 C 3.160156 -0.4375 2.515625 -1.050781 2.140625 -1.9375 C 1.773438 -2.832031 1.59375 -4.164062 1.59375 -5.9375 C 1.59375 -7.53125 1.789062 -8.773438 2.1875 -9.671875 C 2.582031 -10.578125 3.222656 -11.226562 4.109375 -11.625 C 5.003906 -12.019531 6.234375 -12.21875 7.796875 -12.21875 L 14.515625 -12.21875 L 14.515625 -13.578125 C 14.515625 -14.421875 14.394531 -15.046875 14.15625 -15.453125 C 13.925781 -15.867188 13.503906 -16.15625 12.890625 -16.3125 C 12.273438 -16.476562 11.351562 -16.5625 10.125 -16.5625 C 8.425781 -16.5625 6.101562 -16.398438 3.15625 -16.078125 L 3.15625 -19.84375 C 5.3125 -20.113281 7.835938 -20.25 10.734375 -20.25 C 13.285156 -20.25 15.25 -20.054688 16.625 -19.671875 C 18.007812 -19.296875 19 -18.640625 19.59375 -17.703125 C 20.195312 -16.773438 20.5 -15.425781 20.5 -13.65625 L 20.5 0 L 14.640625 0 L 14.640625 -1.796875 C 14.171875 -1.003906 13.539062 -0.445312 12.75 -0.125 C 11.957031 0.226562 10.453125 0.40625 8.234375 0.40625 Z M 10.578125 -3.328125 C 11.773438 -3.328125 12.632812 -3.363281 13.15625 -3.4375 C 13.539062 -3.5 13.804688 -3.582031 13.953125 -3.6875 C 14.109375 -3.800781 14.238281 -3.976562 14.34375 -4.21875 C 14.457031 -4.414062 14.515625 -4.703125 14.515625 -5.078125 L 14.515625 -8.9375 L 10.40625 -8.9375 C 9.476562 -8.9375 8.820312 -8.875 8.4375 -8.75 C 8.0625 -8.625 7.804688 -8.378906 7.671875 -8.015625 C 7.535156 -7.648438 7.46875 -7 7.46875 -6.0625 C 7.46875 -5.164062 7.535156 -4.539062 7.671875 -4.1875 C 7.804688 -3.832031 8.070312 -3.597656 8.46875 -3.484375 C 8.863281 -3.378906 9.566406 -3.328125 10.578125 -3.328125 Z M 10.578125 -3.328125 "/></g></g></g><g fill="#8784a1" fill-opacity="1"><g transform="translate(85.100196, 51.289334)"><g><path d="M 2.78125 -28.703125 L 8.78125 -28.703125 L 8.78125 0 L 2.78125 0 Z M 2.78125 -28.703125 "/></g></g></g><g fill="#8784a1" fill-opacity="1"><g transform="translate(96.659998, 51.289334)"><g><path d="M 2.78125 -27.015625 L 8.78125 -27.015625 L 8.78125 -22.1875 L 2.78125 -22.1875 Z M 2.78125 -19.84375 L 8.78125 -19.84375 L 8.78125 0 L 2.78125 0 Z M 2.78125 -19.84375 "/></g></g></g><g fill="#8784a1" fill-opacity="1"><g transform="translate(108.219801, 51.289334)"><g><path d="M 2.625 -19.84375 L 8.53125 -19.84375 L 8.53125 -17.421875 C 8.988281 -19.304688 11.109375 -20.25 14.890625 -20.25 C 17.429688 -20.25 19.210938 -19.789062 20.234375 -18.875 C 21.253906 -17.957031 21.765625 -16.519531 21.765625 -14.5625 L 21.765625 0 L 15.78125 0 L 15.78125 -13.78125 C 15.78125 -14.539062 15.703125 -15.113281 15.546875 -15.5 C 15.398438 -15.882812 15.101562 -16.15625 14.65625 -16.3125 C 14.207031 -16.476562 13.519531 -16.5625 12.59375 -16.5625 C 11.414062 -16.5625 10.550781 -16.484375 10 -16.328125 C 9.457031 -16.179688 9.085938 -15.914062 8.890625 -15.53125 C 8.703125 -15.15625 8.609375 -14.570312 8.609375 -13.78125 L 8.609375 0 L 2.625 0 Z M 2.625 -19.84375 "/></g></g></g><g fill="#8784a1" fill-opacity="1"><g transform="translate(132.610158, 51.289334)"><g><path d="M 2.625 -28.703125 L 8.609375 -28.703125 L 8.609375 0 L 2.625 0 Z M 8.859375 -11.15625 L 15.375 -19.84375 L 22.21875 -19.84375 L 15.328125 -11.1875 L 22.796875 0 L 16.03125 0 Z M 8.859375 -11.15625 "/></g></g></g></svg>