<svg xmlns="http://www.w3.org/2000/svg" xmlns:xlink="http://www.w3.org/1999/xlink" width="256" zoomAndPan="magnify" viewBox="0 0 192 72" height="96" preserveAspectRatio="xMidYMid meet" version="1.0"><defs><g/></defs><g fill="#8784a1" fill-opacity="1"><g transform="translate(7.019777, 49.550025)"><g><path d="M 10.046875 -0.203125 L 0.40625 -24.203125 L 8.34375 -24.203125 L 13.796875 -7.09375 L 18.75 -24.203125 L 26.296875 -24.203125 L 13.046875 10.40625 L 5.65625 10.40625 Z M 10.046875 -0.203125 "/></g></g></g><g fill="#8784a1" fill-opacity="1"><g transform="translate(32.115642, 49.550025)"><g><path d="M 10.046875 0.5 C 7.785156 0.5 6.09375 0.289062 4.96875 -0.125 C 3.851562 -0.539062 3.070312 -1.289062 2.625 -2.375 C 2.175781 -3.457031 1.953125 -5.082031 1.953125 -7.25 C 1.953125 -9.1875 2.191406 -10.703125 2.671875 -11.796875 C 3.160156 -12.898438 3.945312 -13.691406 5.03125 -14.171875 C 6.113281 -14.660156 7.601562 -14.90625 9.5 -14.90625 L 17.703125 -14.90625 L 17.703125 -16.546875 C 17.703125 -17.578125 17.554688 -18.34375 17.265625 -18.84375 C 16.984375 -19.34375 16.46875 -19.691406 15.71875 -19.890625 C 14.96875 -20.097656 13.84375 -20.203125 12.34375 -20.203125 C 10.28125 -20.203125 7.445312 -20 3.84375 -19.59375 L 3.84375 -24.203125 C 6.476562 -24.535156 9.5625 -24.703125 13.09375 -24.703125 C 16.195312 -24.703125 18.585938 -24.46875 20.265625 -24 C 21.953125 -23.53125 23.160156 -22.726562 23.890625 -21.59375 C 24.628906 -20.46875 25 -18.820312 25 -16.65625 L 25 0 L 17.84375 0 L 17.84375 -2.203125 C 17.28125 -1.234375 16.515625 -0.550781 15.546875 -0.15625 C 14.578125 0.28125 12.742188 0.5 10.046875 0.5 Z M 12.90625 -4.046875 C 14.363281 -4.046875 15.410156 -4.097656 16.046875 -4.203125 C 16.515625 -4.265625 16.835938 -4.363281 17.015625 -4.5 C 17.203125 -4.632812 17.363281 -4.851562 17.5 -5.15625 C 17.632812 -5.382812 17.703125 -5.734375 17.703125 -6.203125 L 17.703125 -10.90625 L 12.703125 -10.90625 C 11.566406 -10.90625 10.765625 -10.828125 10.296875 -10.671875 C 9.828125 -10.523438 9.507812 -10.222656 9.34375 -9.765625 C 9.175781 -9.316406 9.09375 -8.53125 9.09375 -7.40625 C 9.09375 -6.300781 9.175781 -5.53125 9.34375 -5.09375 C 9.507812 -4.664062 9.832031 -4.382812 10.3125 -4.25 C 10.800781 -4.113281 11.664062 -4.046875 12.90625 -4.046875 Z M 12.90625 -4.046875 "/></g></g></g><g fill="#8784a1" fill-opacity="1"><g transform="translate(58.711267, 49.550025)"><g><path d="M 3.203125 -24.203125 L 10.15625 -24.203125 L 10.15625 -19.953125 C 10.15625 -20.710938 10.46875 -21.457031 11.09375 -22.1875 C 11.726562 -22.925781 12.535156 -23.53125 13.515625 -24 C 14.503906 -24.46875 15.484375 -24.703125 16.453125 -24.703125 L 19.046875 -24.703125 L 19.046875 -18.65625 L 16.546875 -18.65625 C 14.484375 -18.65625 12.957031 -18.335938 11.96875 -17.703125 C 10.988281 -17.066406 10.5 -16.015625 10.5 -14.546875 L 10.5 0 L 3.203125 0 Z M 3.203125 -24.203125 "/></g></g></g><g fill="#8784a1" fill-opacity="1"><g transform="translate(76.958184, 49.550025)"><g><path d="M 10.046875 0.5 C 7.785156 0.5 6.09375 0.289062 4.96875 -0.125 C 3.851562 -0.539062 3.070312 -1.289062 2.625 -2.375 C 2.175781 -3.457031 1.953125 -5.082031 1.953125 -7.25 C 1.953125 -9.1875 2.191406 -10.703125 2.671875 -11.796875 C 3.160156 -12.898438 3.945312 -13.691406 5.03125 -14.171875 C 6.113281 -14.660156 7.601562 -14.90625 9.5 -14.90625 L 17.703125 -14.90625 L 17.703125 -16.546875 C 17.703125 -17.578125 17.554688 -18.34375 17.265625 -18.84375 C 16.984375 -19.34375 16.46875 -19.691406 15.71875 -19.890625 C 14.96875 -20.097656 13.84375 -20.203125 12.34375 -20.203125 C 10.28125 -20.203125 7.445312 -20 3.84375 -19.59375 L 3.84375 -24.203125 C 6.476562 -24.535156 9.5625 -24.703125 13.09375 -24.703125 C 16.195312 -24.703125 18.585938 -24.46875 20.265625 -24 C 21.953125 -23.53125 23.160156 -22.726562 23.890625 -21.59375 C 24.628906 -20.46875 25 -18.820312 25 -16.65625 L 25 0 L 17.84375 0 L 17.84375 -2.203125 C 17.28125 -1.234375 16.515625 -0.550781 15.546875 -0.15625 C 14.578125 0.28125 12.742188 0.5 10.046875 0.5 Z M 12.90625 -4.046875 C 14.363281 -4.046875 15.410156 -4.097656 16.046875 -4.203125 C 16.515625 -4.265625 16.835938 -4.363281 17.015625 -4.5 C 17.203125 -4.632812 17.363281 -4.851562 17.5 -5.15625 C 17.632812 -5.382812 17.703125 -5.734375 17.703125 -6.203125 L 17.703125 -10.90625 L 12.703125 -10.90625 C 11.566406 -10.90625 10.765625 -10.828125 10.296875 -10.671875 C 9.828125 -10.523438 9.507812 -10.222656 9.34375 -9.765625 C 9.175781 -9.316406 9.09375 -8.53125 9.09375 -7.40625 C 9.09375 -6.300781 9.175781 -5.53125 9.34375 -5.09375 C 9.507812 -4.664062 9.832031 -4.382812 10.3125 -4.25 C 10.800781 -4.113281 11.664062 -4.046875 12.90625 -4.046875 Z M 12.90625 -4.046875 "/></g></g></g><g fill="#207cc2" fill-opacity="1"><g transform="translate(103.92212, 49.549897)"><g><path d="M 3.40625 -35 L 10.703125 -35 L 10.703125 0 L 3.40625 0 Z M 3.40625 -35 "/></g></g></g><g fill="#207cc2" fill-opacity="1"><g transform="translate(116.419969, 49.549897)"><g><path d="M 3.40625 -32.953125 L 10.703125 -32.953125 L 10.703125 -27.046875 L 3.40625 -27.046875 Z M 3.40625 -24.203125 L 10.703125 -24.203125 L 10.703125 0 L 3.40625 0 Z M 3.40625 -24.203125 "/></g></g></g><g fill="#207cc2" fill-opacity="1"><g transform="translate(128.917818, 49.549897)"><g><path d="M 3.203125 -24.203125 L 10.40625 -24.203125 L 10.40625 -21.25 C 10.96875 -23.550781 13.550781 -24.703125 18.15625 -24.703125 C 21.25 -24.703125 23.421875 -24.140625 24.671875 -23.015625 C 25.921875 -21.898438 26.546875 -20.144531 26.546875 -17.75 L 26.546875 0 L 19.25 0 L 19.25 -16.796875 C 19.25 -17.734375 19.15625 -18.429688 18.96875 -18.890625 C 18.789062 -19.359375 18.425781 -19.691406 17.875 -19.890625 C 17.320312 -20.097656 16.476562 -20.203125 15.34375 -20.203125 C 13.914062 -20.203125 12.867188 -20.109375 12.203125 -19.921875 C 11.535156 -19.742188 11.082031 -19.421875 10.84375 -18.953125 C 10.613281 -18.484375 10.5 -17.765625 10.5 -16.796875 L 10.5 0 L 3.203125 0 Z M 3.203125 -24.203125 "/></g></g></g><g fill="#207cc2" fill-opacity="1"><g transform="translate(157.063238, 49.549897)"><g><path d="M 3.203125 -35 L 10.5 -35 L 10.5 0 L 3.203125 0 Z M 10.796875 -13.59375 L 18.75 -24.203125 L 27.09375 -24.203125 L 18.703125 -13.65625 L 27.796875 0 L 19.546875 0 Z M 10.796875 -13.59375 "/></g></g></g><path stroke-linecap="butt" transform="matrix(0.75202, -0.0045368, 0.00452453, 0.749986, 106.995516, 53.631213)" fill="none" stroke-linejoin="miter" d="M 0.00211868 1.502172 L 103.733166 1.49944 " stroke="#207cc2" stroke-width="3" stroke-opacity="1" stroke-miterlimit="4"/></svg>